{
.appVersion = "1342";
DisplayStrings = (
"/brevecomb/brevecomb_acutecomb",
"/circumflexcomb/circumflexcomb_acutecomb",
"/hookabovecomb/circumflexcomb/circumflexcomb_hookabovecomb",
"/circumflexcomb_tildecomb.case",
"/acutecomb.case AÁ/Aogonek Â/Abreve ÄÃ/Amacron/gravecomb.case ÀÅ/Abreveacute/Abrevedotbelow/Abrevegrave/Abrevehookabove/Abrevetilde/Acircumflexacute/Acircumflexdotbelow/Acircumflexgrave/Acircumflexhookabove/Acircumflextilde/Adotbelow/Ahookabove",
"/dieresiscomb.case/gravecomb.case/acutecomb.case/hungarumlautcomb.case/circumflexcomb.case/caroncomb.case/brevecomb.case/ringcomb.case/tildecomb.case/macroncomb.case/hookabovecomb.case",
"ìíîï/itilde/iogonek/imacron/idotaccent/ihookabove",
"/brevecomb_acutecomb/brevecomb_acutecomb.case/Abreveacute",
"hhhhhhh\012oooooo\012hhoohhoho/space ¡awesome!\012hh/Placeholder ho/Placeholder oo\012abcdefghijklmnopqrstuvwxyz/space \012ortodoxo/space kovowo/space avatar/space oto/space ama",
"/zero.tf/one.tf/two.tf/three.tf/four.tf/five.tf/six.tf/seven.tf/eight.tf/nine.tf \012/zero.tf/one.tf/two.tf/three.tf/four.tf/five.tf/six.tf/seven.tf/eight.tf/nine.tf \012/zero.tosf/one.tosf/two.tosf/three.tosf/four.tosf/five.tosf/six.tosf/seven.tosf/eight.tosf/nine.tosf/space \012/zero.osf/one.osf/two.osf/three.osf/four.osf/five.osf/six.osf/seven.osf/eight.osf/nine.osf",

glyphs = (
{
glyphname = .notdef;
lastChange = "2021-04-30 03:09:52 +0000";
layers = (
{
layerId = "A626400C-4409-4FF6-B7A4-72C4E5A5721C";
paths = (
{
closed = 1;
nodes = (
"343 12 LINE",
"343 589 LINE",
"55 589 LINE",
"55 12 LINE",
"55 12 LINE"
);
},
{
closed = 1;
nodes = (
"93 553 LINE",
"305 553 LINE",
"305 47 LINE",
"93 47 LINE",
"93 47 LINE"
);
}
);
width = 398;
}
);
note = .notdef;
},
{
glyphname = exclam;
lastChange = "2021-04-30 03:09:52 +0000";
layers = (
{
hints = (
{
horizontal = 1;
place = "{-6, 20}";
type = Stem;
}
);
layerId = "A626400C-4409-4FF6-B7A4-72C4E5A5721C";
paths = (
{
closed = 1;
nodes = (
"168 127 LINE",
"167 119 OFFCURVE",
"191 130 OFFCURVE",
"195 138 CURVE SMOOTH",
"205 160 OFFCURVE",
"294 338 OFFCURVE",
"373 492 CURVE SMOOTH",
"377 499 OFFCURVE",
"405 550 OFFCURVE",
"413 556 CURVE SMOOTH",
"417 559 OFFCURVE",
"410 574 OFFCURVE",
"406 574 CURVE",
"406 574 OFFCURVE",
"405 574 OFFCURVE",
"405 574 CURVE",
"378 552 OFFCURVE",
"343 544 OFFCURVE",
"326 540 CURVE",
"322 531 OFFCURVE",
"313 504 OFFCURVE",
"307 487 CURVE SMOOTH",
"265 380 OFFCURVE",
"178 152 OFFCURVE",
"168 127 CURVE"
);
},
{
closed = 1;
nodes = (
"138 -6 LINE",
"149 -6 OFFCURVE",
"162 7 OFFCURVE",
"174 17 CURVE SMOOTH",
"179 22 OFFCURVE",
"181 25 OFFCURVE",
"181 27 CURVE SMOOTH",
"181 29 OFFCURVE",
"179 30 OFFCURVE",
"176 30 CURVE SMOOTH",
"175 30 OFFCURVE",
"173 30 OFFCURVE",
"172 30 CURVE SMOOTH",
"160 28 OFFCURVE",
"149 36 OFFCURVE",
"139 42 CURVE SMOOTH",
"136 44 OFFCURVE",
"98 19 OFFCURVE",
"101 16 CURVE SMOOTH",
"109 6 OFFCURVE",
"123 -6 OFFCURVE",
"138 -6 CURVE"
);
}
);
width = 295;
}
);
note = exclam;
unicode = 0021;
},
{
glyphname = quotedbl;
lastChange = "2021-04-30 03:09:52 +0000";
layers = (
{
hints = (
{
horizontal = 1;
place = "{611, -20}";
target = down;
type = TopGhost;
}
);
layerId = "A626400C-4409-4FF6-B7A4-72C4E5A5721C";
paths = (
{
closed = 1;
nodes = (
"216 428 LINE",
"222 428 OFFCURVE",
"230 434 OFFCURVE",
"236 445 CURVE SMOOTH",
"263 494 OFFCURVE",
"301 560 OFFCURVE",
"316 608 CURVE SMOOTH",
"321 622 OFFCURVE",
"248 588 OFFCURVE",
"249 573 CURVE",
"240 533 OFFCURVE",
"229 483 OFFCURVE",
"212 439 CURVE SMOOTH",
"209 432 OFFCURVE",
"212 428 OFFCURVE",
"216 428 CURVE"
);
},
{
closed = 1;
nodes = (
"111 428 LINE",
"116 428 OFFCURVE",
"125 434 OFFCURVE",
"131 445 CURVE SMOOTH",
"157 494 OFFCURVE",
"195 560 OFFCURVE",
"211 608 CURVE SMOOTH",
"215 622 OFFCURVE",
"143 588 OFFCURVE",
"144 573 CURVE",
"135 533 OFFCURVE",
"124 483 OFFCURVE",
"107 439 CURVE SMOOTH",
"104 432 OFFCURVE",
"107 428 OFFCURVE",
"111 428 CURVE"
);
}
);
width = 168;
}
);
note = quotedbl;
unicode = 0022;
},
{
glyphname = numbersign;
lastChange = "2021-04-30 03:09:52 +0000";
layers = (
{
hints = (
{
horizontal = 1;
place = "{193, 29}";
type = Stem;
},
{
horizontal = 1;
place = "{314, 29}";
type = Stem;
}
);
layerId = "A626400C-4409-4FF6-B7A4-72C4E5A5721C";
paths = (
{
closed = 1;
nodes = (
"74 40 LINE",
"79 40 OFFCURVE",
"85 42 OFFCURVE",
"87 45 CURVE SMOOTH",
"106 76 OFFCURVE",
"140 132 OFFCURVE",
"179 194 CURVE",
"210 194 OFFCURVE",
"237 194 OFFCURVE",
"253 194 CURVE SMOOTH",
"266 194 OFFCURVE",
"292 194 OFFCURVE",
"321 193 CURVE",
"285 131 OFFCURVE",
"255 76 OFFCURVE",
"244 46 CURVE SMOOTH",
"242 42 OFFCURVE",
"249 40 OFFCURVE",
"255 40 CURVE SMOOTH",
"261 40 OFFCURVE",
"267 42 OFFCURVE",
"269 45 CURVE SMOOTH",
"287 76 OFFCURVE",
"321 131 OFFCURVE",
"360 192 CURVE",
"410 191 OFFCURVE",
"462 190 OFFCURVE",
"475 189 CURVE SMOOTH",
"486 188 OFFCURVE",
"516 225 OFFCURVE",
"510 225 CURVE SMOOTH",
"494 224 OFFCURVE",
"437 223 OFFCURVE",
"379 223 CURVE",
"398 252 OFFCURVE",
"418 283 OFFCURVE",
"438 313 CURVE",
"484 312 OFFCURVE",
"528 310 OFFCURVE",
"540 309 CURVE SMOOTH",
"551 308 OFFCURVE",
"581 345 OFFCURVE",
"575 345 CURVE SMOOTH",
"560 345 OFFCURVE",
"512 344 OFFCURVE",
"459 343 CURVE",
"503 407 OFFCURVE",
"545 462 OFFCURVE",
"575 490 CURVE",
"577 491 OFFCURVE",
"539 503 OFFCURVE",
"535 500 CURVE SMOOTH",
"505 471 OFFCURVE",
"460 411 OFFCURVE",
"415 343 CURVE",
"376 342 OFFCURVE",
"341 342 OFFCURVE",
"320 342 CURVE SMOOTH",
"277 342 LINE",
"321 406 OFFCURVE",
"363 462 OFFCURVE",
"393 490 CURVE",
"395 491 OFFCURVE",
"357 503 OFFCURVE",
"354 500 CURVE SMOOTH",
"324 472 OFFCURVE",
"279 411 OFFCURVE",
"234 343 CURVE",
"182 343 OFFCURVE",
"126 345 OFFCURVE",
"112 347 CURVE SMOOTH",
"101 348 OFFCURVE",
"71 310 OFFCURVE",
"78 311 CURVE SMOOTH",
"104 313 OFFCURVE",
"161 314 OFFCURVE",
"215 314 CURVE",
"195 284 OFFCURVE",
"175 253 OFFCURVE",
"157 222 CURVE",
"109 223 OFFCURVE",
"60 224 OFFCURVE",
"48 226 CURVE SMOOTH",
"37 228 OFFCURVE",
"7 190 OFFCURVE",
"13 190 CURVE SMOOTH",
"37 192 OFFCURVE",
"89 193 OFFCURVE",
"140 194 CURVE",
"102 129 OFFCURVE",
"72 73 OFFCURVE",
"62 46 CURVE SMOOTH",
"61 42 OFFCURVE",
"67 40 OFFCURVE",
"74 40 CURVE"
);
},
{
closed = 1;
nodes = (
"197 222 LINE",
"217 253 OFFCURVE",
"237 284 OFFCURVE",
"258 315 CURVE",
"283 315 OFFCURVE",
"304 315 OFFCURVE",
"318 315 CURVE SMOOTH",
"332 315 OFFCURVE",
"362 314 OFFCURVE",
"396 314 CURVE",
"376 283 OFFCURVE",
"357 252 OFFCURVE",
"339 222 CURVE",
"305 222 OFFCURVE",
"274 222 OFFCURVE",
"256 222 CURVE SMOOTH",
"244 222 OFFCURVE",
"222 222 OFFCURVE",
"197 222 CURVE"
);
}
);
width = 579;
}
);
note = numbersign;
unicode = 0023;
},
{
glyphname = dollar;
lastChange = "2021-04-30 03:09:52 +0000";
layers = (
{
hints = (
{
place = "{164, 41}";
type = Stem;
},
{
place = "{259, 48}";
type = Stem;
}
);
layerId = "A626400C-4409-4FF6-B7A4-72C4E5A5721C";
paths = (
{
closed = 1;
nodes = (
"91 -49 LINE",
"90 -53 OFFCURVE",
"129 -36 OFFCURVE",
"130 -34 CURVE SMOOTH",
"137 -10 OFFCURVE",
"148 23 OFFCURVE",
"162 62 CURVE",
"234 63 OFFCURVE",
"307 118 OFFCURVE",
"307 192 CURVE SMOOTH",
"307 216 OFFCURVE",
"298 241 OFFCURVE",
"280 265 CURVE SMOOTH",
"272 276 OFFCURVE",
"260 288 OFFCURVE",
"248 302 CURVE",
"265 350 OFFCURVE",
"282 395 OFFCURVE",
"295 431 CURVE",
"307 426 OFFCURVE",
"316 416 OFFCURVE",
"322 402 CURVE SMOOTH",
"325 394 OFFCURVE",
"326 385 OFFCURVE",
"326 376 CURVE SMOOTH",
"326 362 OFFCURVE",
"323 348 OFFCURVE",
"321 337 CURVE SMOOTH",
"318 324 OFFCURVE",
"335 332 OFFCURVE",
"341 343 CURVE SMOOTH",
"350 362 OFFCURVE",
"359 387 OFFCURVE",
"359 409 CURVE SMOOTH",
"359 446 OFFCURVE",
"335 457 OFFCURVE",
"306 460 CURVE",
"318 490 OFFCURVE",
"326 511 OFFCURVE",
"329 518 CURVE SMOOTH",
"331 525 OFFCURVE",
"309 518 OFFCURVE",
"306 511 CURVE SMOOTH",
"301 498 OFFCURVE",
"294 481 OFFCURVE",
"285 461 CURVE",
"283 461 LINE SMOOTH",
"252 461 OFFCURVE",
"221 446 OFFCURVE",
"198 423 CURVE SMOOTH",
"173 398 OFFCURVE",
"164 373 OFFCURVE",
"164 348 CURVE SMOOTH",
"164 314 OFFCURVE",
"182 281 OFFCURVE",
"204 256 CURVE",
"181 199 OFFCURVE",
"158 140 OFFCURVE",
"139 88 CURVE",
"119 96 OFFCURVE",
"102 111 OFFCURVE",
"91 133 CURVE SMOOTH",
"85 144 OFFCURVE",
"82 157 OFFCURVE",
"82 171 CURVE SMOOTH",
"82 179 OFFCURVE",
"83 188 OFFCURVE",
"86 197 CURVE SMOOTH",
"89 205 OFFCURVE",
"94 214 OFFCURVE",
"98 219 CURVE SMOOTH",
"100 221 OFFCURVE",
"98 226 OFFCURVE",
"93 226 CURVE SMOOTH",
"92 226 OFFCURVE",
"90 226 OFFCURVE",
"89 225 CURVE",
"60 207 OFFCURVE",
"50 177 OFFCURVE",
"50 147 CURVE SMOOTH",
"50 97 OFFCURVE",
"85 71 OFFCURVE",
"130 64 CURVE",
"113 17 OFFCURVE",
"99 -23 OFFCURVE",
"91 -49 CURVE"
);
},
{
closed = 1;
nodes = (
"168 81 LINE",
"185 128 OFFCURVE",
"204 182 OFFCURVE",
"223 236 CURVE",
"248 211 OFFCURVE",
"259 186 OFFCURVE",
"259 164 CURVE SMOOTH",
"259 121 OFFCURVE",
"227 89 OFFCURVE",
"195 83 CURVE SMOOTH",
"186 81 OFFCURVE",
"177 81 OFFCURVE",
"168 81 CURVE"
);
},
{
closed = 1;
nodes = (
"230 322 LINE",
"218 336 OFFCURVE",
"209 349 OFFCURVE",
"206 361 CURVE SMOOTH",
"205 365 OFFCURVE",
"205 369 OFFCURVE",
"205 373 CURVE SMOOTH",
"205 412 OFFCURVE",
"242 439 OFFCURVE",
"275 436 CURVE",
"262 403 OFFCURVE",
"246 364 OFFCURVE",
"230 322 CURVE"
);
}
);
width = 313;
}
);
note = dollar;
unicode = 0024;
},
{
glyphname = percent;
lastChange = "2021-04-30 03:09:52 +0000";
layers = (
{
hints = (
{
horizontal = 1;
place = "{-10, 11}";
type = Stem;
},
{
horizontal = 1;
place = "{291, 11}";
type = Stem;
},
{
horizontal = 1;
place = "{539, 25}";
type = Stem;
},
{
place = "{138, 23}";
type = Stem;
},
{
place = "{376, 23}";
type = Stem;
}
);
layerId = "A626400C-4409-4FF6-B7A4-72C4E5A5721C";
paths = (
{
closed = 1;
nodes = (
"85 -34 LINE",
"93 -34 OFFCURVE",
"101 -32 OFFCURVE",
"104 -28 CURVE SMOOTH",
"211 93 OFFCURVE",
"519 421 OFFCURVE",
"690 538 CURVE",
"708 541 OFFCURVE",
"733 569 OFFCURVE",
"733 585 CURVE SMOOTH",
"733 590 OFFCURVE",
"730 594 OFFCURVE",
"722 595 CURVE",
"675 582 OFFCURVE",
"598 567 OFFCURVE",
"542 564 CURVE SMOOTH",
"518 563 OFFCURVE",
"494 562 OFFCURVE",
"469 562 CURVE SMOOTH",
"423 562 OFFCURVE",
"378 565 OFFCURVE",
"337 577 CURVE SMOOTH",
"326 580 OFFCURVE",
"317 574 OFFCURVE",
"310 567 CURVE",
"334 558 OFFCURVE",
"343 539 OFFCURVE",
"343 517 CURVE SMOOTH",
"343 458 OFFCURVE",
"280 364 OFFCURVE",
"224 321 CURVE SMOOTH",
"214 313 OFFCURVE",
"197 302 OFFCURVE",
"184 302 CURVE SMOOTH",
"167 302 OFFCURVE",
"161 311 OFFCURVE",
"161 324 CURVE SMOOTH",
"161 355 OFFCURVE",
"193 407 OFFCURVE",
"198 415 CURVE SMOOTH",
"236 470 OFFCURVE",
"287 528 OFFCURVE",
"288 538 CURVE SMOOTH",
"289 546 OFFCURVE",
"278 549 OFFCURVE",
"272 549 CURVE SMOOTH",
"250 549 OFFCURVE",
"188 464 OFFCURVE",
"179 449 CURVE SMOOTH",
"170 435 OFFCURVE",
"161 420 OFFCURVE",
"154 405 CURVE SMOOTH",
"146 389 OFFCURVE",
"138 363 OFFCURVE",
"138 339 CURVE SMOOTH",
"138 313 OFFCURVE",
"148 291 OFFCURVE",
"182 291 CURVE SMOOTH",
"200 291 OFFCURVE",
"223 300 OFFCURVE",
"243 314 CURVE SMOOTH",
"294 349 OFFCURVE",
"344 412 OFFCURVE",
"363 444 CURVE SMOOTH",
"372 459 OFFCURVE",
"391 492 OFFCURVE",
"391 518 CURVE SMOOTH",
"391 533 OFFCURVE",
"385 545 OFFCURVE",
"369 550 CURVE",
"403 543 OFFCURVE",
"442 539 OFFCURVE",
"487 539 CURVE SMOOTH",
"530 539 OFFCURVE",
"577 542 OFFCURVE",
"628 550 CURVE",
"460 433 OFFCURVE",
"195 130 OFFCURVE",
"72 -25 CURVE SMOOTH",
"67 -31 OFFCURVE",
"76 -34 OFFCURVE",
"85 -34 CURVE"
);
},
{
closed = 1;
nodes = (
"420 -10 LINE",
"438 -10 OFFCURVE",
"461 -1 OFFCURVE",
"482 13 CURVE SMOOTH",
"532 48 OFFCURVE",
"582 111 OFFCURVE",
"601 142 CURVE SMOOTH",
"615 166 OFFCURVE",
"629 193 OFFCURVE",
"629 218 CURVE SMOOTH",
"629 256 OFFCURVE",
"581 276 OFFCURVE",
"549 276 CURVE SMOOTH",
"547 276 OFFCURVE",
"543 273 OFFCURVE",
"543 270 CURVE SMOOTH",
"543 269 OFFCURVE",
"545 267 OFFCURVE",
"549 266 CURVE SMOOTH",
"572 257 OFFCURVE",
"581 238 OFFCURVE",
"581 216 CURVE SMOOTH",
"581 157 OFFCURVE",
"518 61 OFFCURVE",
"462 20 CURVE SMOOTH",
"452 12 OFFCURVE",
"435 1 OFFCURVE",
"422 1 CURVE SMOOTH",
"405 1 OFFCURVE",
"399 10 OFFCURVE",
"399 23 CURVE SMOOTH",
"399 54 OFFCURVE",
"431 106 OFFCURVE",
"437 114 CURVE SMOOTH",
"474 168 OFFCURVE",
"526 227 OFFCURVE",
"527 237 CURVE SMOOTH",
"528 245 OFFCURVE",
"516 248 OFFCURVE",
"510 248 CURVE SMOOTH",
"488 248 OFFCURVE",
"426 163 OFFCURVE",
"417 148 CURVE SMOOTH",
"408 134 OFFCURVE",
"399 119 OFFCURVE",
"392 104 CURVE SMOOTH",
"384 88 OFFCURVE",
"376 62 OFFCURVE",
"376 38 CURVE SMOOTH",
"376 12 OFFCURVE",
"386 -10 OFFCURVE",
"420 -10 CURVE"
);
}
);
width = 632;
}
);
note = percent;
unicode = 0025;
},
{
glyphname = ampersand;
lastChange = "2021-04-30 03:09:52 +0000";
layers = (
{
hints = (
{
horizontal = 1;
place = "{-111, 38}";
type = Stem;
},
{
horizontal = 1;
place = "{-41, 49}";
type = Stem;
},
{
horizontal = 1;
place = "{183, 23}";
type = Stem;
},
{
horizontal = 1;
place = "{471, 12}";
type = Stem;
},
{
place = "{111, 60}";
type = Stem;
},
{
place = "{273, 31}";
type = Stem;
},
{
place = "{476, 14}";
type = Stem;
}
);
layerId = "A626400C-4409-4FF6-B7A4-72C4E5A5721C";
paths = (
{
closed = 1;
nodes = (
"652 -111 LINE",
"702 -111 OFFCURVE",
"748 -70 OFFCURVE",
"795 -5 CURVE",
"798 -2 OFFCURVE",
"799 2 OFFCURVE",
"799 5 CURVE SMOOTH",
"799 8 OFFCURVE",
"797 11 OFFCURVE",
"794 11 CURVE SMOOTH",
"792 11 OFFCURVE",
"790 10 OFFCURVE",
"788 7 CURVE SMOOTH",
"758 -32 OFFCURVE",
"722 -73 OFFCURVE",
"677 -73 CURVE SMOOTH",
"647 -73 OFFCURVE",
"613 -54 OFFCURVE",
"573 -3 CURVE SMOOTH",
"553 24 OFFCURVE",
"528 64 OFFCURVE",
"504 105 CURVE",
"519 127 OFFCURVE",
"532 158 OFFCURVE",
"537 182 CURVE",
"556 180 OFFCURVE",
"574 178 OFFCURVE",
"590 176 CURVE SMOOTH",
"598 175 OFFCURVE",
"603 175 OFFCURVE",
"607 175 CURVE SMOOTH",
"614 175 OFFCURVE",
"616 176 OFFCURVE",
"619 182 CURVE",
"637 209 LINE SMOOTH",
"640 214 OFFCURVE",
"635 215 OFFCURVE",
"633 213 CURVE SMOOTH",
"623 205 OFFCURVE",
"602 206 OFFCURVE",
"583 206 CURVE SMOOTH",
"449 206 LINE",
"428 248 OFFCURVE",
"406 293 OFFCURVE",
"396 318 CURVE",
"433 344 OFFCURVE",
"490 391 OFFCURVE",
"490 434 CURVE SMOOTH",
"490 465 OFFCURVE",
"464 483 OFFCURVE",
"434 483 CURVE SMOOTH",
"402 483 OFFCURVE",
"366 462 OFFCURVE",
"355 414 CURVE SMOOTH",
"353 402 OFFCURVE",
"351 389 OFFCURVE",
"351 377 CURVE SMOOTH",
"351 354 OFFCURVE",
"355 332 OFFCURVE",
"362 310 CURVE",
"361 309 LINE",
"299 273 OFFCURVE",
"231 243 OFFCURVE",
"176 195 CURVE SMOOTH",
"141 164 OFFCURVE",
"111 122 OFFCURVE",
"111 73 CURVE SMOOTH",
"111 47 OFFCURVE",
"121 22 OFFCURVE",
"138 3 CURVE SMOOTH",
"162 -24 OFFCURVE",
"201 -41 OFFCURVE",
"248 -41 CURVE SMOOTH",
"293 -41 OFFCURVE",
"344 -27 OFFCURVE",
"399 8 CURVE SMOOTH",
"431 28 OFFCURVE",
"452 46 OFFCURVE",
"473 68 CURVE",
"492 34 OFFCURVE",
"511 1 OFFCURVE",
"529 -24 CURVE SMOOTH",
"573 -85 OFFCURVE",
"613 -111 OFFCURVE",
"652 -111 CURVE"
);
},
{
closed = 1;
nodes = (
"287 8 LINE",
"248 8 OFFCURVE",
"212 16 OFFCURVE",
"190 38 CURVE SMOOTH",
"176 53 OFFCURVE",
"171 71 OFFCURVE",
"171 89 CURVE SMOOTH",
"171 120 OFFCURVE",
"185 152 OFFCURVE",
"203 174 CURVE SMOOTH",
"241 222 OFFCURVE",
"304 260 OFFCURVE",
"356 292 CURVE SMOOTH",
"365 298 LINE",
"377 267 OFFCURVE",
"390 236 OFFCURVE",
"402 207 CURVE",
"392 207 OFFCURVE",
"382 208 OFFCURVE",
"371 208 CURVE SMOOTH",
"338 208 OFFCURVE",
"304 204 OFFCURVE",
"287 190 CURVE SMOOTH",
"271 177 OFFCURVE",
"272 157 OFFCURVE",
"273 145 CURVE SMOOTH",
"274 133 OFFCURVE",
"294 102 OFFCURVE",
"304 85 CURVE",
"312 91 LINE",
"310 95 OFFCURVE",
"304 113 OFFCURVE",
"304 122 CURVE SMOOTH",
"300 173 OFFCURVE",
"370 187 OFFCURVE",
"411 189 CURVE",
"432 145 OFFCURVE",
"452 108 OFFCURVE",
"464 85 CURVE",
"442 59 OFFCURVE",
"416 37 OFFCURVE",
"388 26 CURVE SMOOTH",
"360 15 OFFCURVE",
"322 8 OFFCURVE",
"287 8 CURVE"
);
},
{
closed = 1;
nodes = (
"493 124 LINE",
"484 140 OFFCURVE",
"472 164 OFFCURVE",
"458 189 CURVE",
"480 188 OFFCURVE",
"502 186 OFFCURVE",
"523 184 CURVE",
"516 166 OFFCURVE",
"505 142 OFFCURVE",
"493 124 CURVE"
);
},
{
closed = 1;
nodes = (
"392 329 LINE",
"388 342 OFFCURVE",
"382 368 OFFCURVE",
"382 393 CURVE SMOOTH",
"382 401 OFFCURVE",
"382 409 OFFCURVE",
"384 417 CURVE SMOOTH",
"393 455 OFFCURVE",
"418 471 OFFCURVE",
"440 471 CURVE SMOOTH",
"459 471 OFFCURVE",
"476 459 OFFCURVE",
"476 437 CURVE SMOOTH",
"476 434 OFFCURVE",
"476 430 OFFCURVE",
"475 426 CURVE SMOOTH",
"466 391 OFFCURVE",
"430 356 OFFCURVE",
"392 329 CURVE"
);
}
);
width = 608;
}
);
note = ampersand;
unicode = 0026;
},
{
glyphname = quotesingle;
lastChange = "2021-04-30 03:09:52 +0000";
layers = (
{
hints = (
{
horizontal = 1;
place = "{611, -20}";
target = down;
type = TopGhost;
}
);
layerId = "A626400C-4409-4FF6-B7A4-72C4E5A5721C";
paths = (
{
closed = 1;
nodes = (
"111 428 LINE",
"116 428 OFFCURVE",
"125 434 OFFCURVE",
"131 445 CURVE SMOOTH",
"157 494 OFFCURVE",
"195 560 OFFCURVE",
"211 608 CURVE SMOOTH",
"215 622 OFFCURVE",
"143 588 OFFCURVE",
"144 573 CURVE",
"135 533 OFFCURVE",
"124 483 OFFCURVE",
"107 439 CURVE SMOOTH",
"104 432 OFFCURVE",
"107 428 OFFCURVE",
"111 428 CURVE"
);
}
);
width = 106;
}
);
note = quotesingle;
unicode = 0027;
},
{
glyphname = parenleft;
lastChange = "2021-04-30 03:09:52 +0000";
layers = (
{
hints = (
{
place = "{49, 62}";
type = Stem;
}
);
layerId = "A626400C-4409-4FF6-B7A4-72C4E5A5721C";
paths = (
{
closed = 1;
nodes = (
"163 -54 LINE",
"180 -54 OFFCURVE",
"198 -51 OFFCURVE",
"218 -45 CURVE SMOOTH",
"228 -42 OFFCURVE",
"235 -34 OFFCURVE",
"235 -29 CURVE SMOOTH",
"235 -27 OFFCURVE",
"233 -25 OFFCURVE",
"229 -25 CURVE",
"229 -25 OFFCURVE",
"228 -25 OFFCURVE",
"228 -25 CURVE",
"222 -26 OFFCURVE",
"216 -28 OFFCURVE",
"210 -29 CURVE SMOOTH",
"135 -36 OFFCURVE",
"112 46 OFFCURVE",
"112 99 CURVE SMOOTH",
"112 358 OFFCURVE",
"371 594 OFFCURVE",
"602 633 CURVE SMOOTH",
"609 634 OFFCURVE",
"602 650 OFFCURVE",
"595 649 CURVE SMOOTH",
"558 646 OFFCURVE",
"521 637 OFFCURVE",
"484 624 CURVE SMOOTH",
"341 574 OFFCURVE",
"189 457 OFFCURVE",
"118 332 CURVE SMOOTH",
"77 258 OFFCURVE",
"49 170 OFFCURVE",
"49 83 CURVE SMOOTH",
"49 -5 OFFCURVE",
"95 -54 OFFCURVE",
"163 -54 CURVE"
);
}
);
width = 268;
}
);
note = parenleft;
unicode = 0028;
},
{
glyphname = parenright;
lastChange = "2021-04-30 03:09:52 +0000";
layers = (
{
hints = (
{
place = "{449, 62}";
type = Stem;
}
);
layerId = "A626400C-4409-4FF6-B7A4-72C4E5A5721C";
paths = (
{
closed = 1;
nodes = (
"-35 -45 LINE",
"2 -42 OFFCURVE",
"40 -33 OFFCURVE",
"76 -20 CURVE SMOOTH",
"220 30 OFFCURVE",
"371 146 OFFCURVE",
"442 272 CURVE SMOOTH",
"484 344 OFFCURVE",
"511 431 OFFCURVE",
"511 517 CURVE SMOOTH",
"511 608 OFFCURVE",
"466 658 OFFCURVE",
"397 658 CURVE SMOOTH",
"380 658 OFFCURVE",
"362 655 OFFCURVE",
"343 649 CURVE SMOOTH",
"332 646 OFFCURVE",
"326 638 OFFCURVE",
"326 633 CURVE SMOOTH",
"326 631 OFFCURVE",
"327 629 OFFCURVE",
"331 629 CURVE",
"331 629 OFFCURVE",
"332 629 OFFCURVE",
"332 629 CURVE",
"338 630 OFFCURVE",
"344 632 OFFCURVE",
"351 633 CURVE SMOOTH",
"426 639 OFFCURVE",
"449 558 OFFCURVE",
"449 505 CURVE SMOOTH",
"449 245 OFFCURVE",
"189 9 OFFCURVE",
"-42 -29 CURVE SMOOTH",
"-48 -30 OFFCURVE",
"-41 -46 OFFCURVE",
"-35 -45 CURVE"
);
}
);
width = 507;
}
);
note = parenright;
unicode = 0029;
},
{
glyphname = asterisk;
lastChange = "2021-04-30 03:09:52 +0000";
layers = (
{
hints = (
{
horizontal = 1;
place = "{609, -20}";
target = down;
type = TopGhost;
},
{
place = "{70, 420}";
type = Stem;
}
);
layerId = "A626400C-4409-4FF6-B7A4-72C4E5A5721C";
paths = (
{
closed = 1;
nodes = (
"254 234 LINE",
"284 399 LINE",
"288 401 LINE",
"401 303 LINE",
"449 354 LINE",
"305 420 LINE",
"306 422 LINE",
"490 490 LINE",
"474 541 LINE",
"300 441 LINE",
"297 443 LINE",
"368 609 LINE",
"306 609 LINE",
"275 443 LINE",
"271 441 LINE",
"158 540 LINE",
"111 489 LINE",
"254 422 LINE",
"254 420 LINE",
"70 354 LINE",
"86 303 LINE",
"259 401 LINE",
"262 399 LINE",
"192 234 LINE",
"192 234 LINE"
);
}
);
width = 507;
}
);
note = asterisk;
unicode = 002A;
},
{
glyphname = plus;
lastChange = "2021-04-30 03:09:52 +0000";
layers = (
{
hints = (
{
horizontal = 1;
place = "{192, 36}";
type = Stem;
}
);
layerId = "A626400C-4409-4FF6-B7A4-72C4E5A5721C";
paths = (
{
closed = 1;
nodes = (
"170 41 LINE",
"166 35 OFFCURVE",
"222 51 OFFCURVE",
"225 62 CURVE SMOOTH",
"230 86 OFFCURVE",
"259 155 OFFCURVE",
"275 193 CURVE",
"276 197 LINE",
"322 196 OFFCURVE",
"392 193 OFFCURVE",
"413 192 CURVE SMOOTH",
"424 191 OFFCURVE",
"454 228 OFFCURVE",
"448 228 CURVE SMOOTH",
"424 227 OFFCURVE",
"346 225 OFFCURVE",
"288 225 CURVE",
"310 275 OFFCURVE",
"339 336 OFFCURVE",
"350 359 CURVE",
"352 365 OFFCURVE",
"298 349 OFFCURVE",
"294 339 CURVE SMOOTH",
"288 318 OFFCURVE",
"268 265 OFFCURVE",
"252 225 CURVE",
"213 225 OFFCURVE",
"144 225 OFFCURVE",
"121 229 CURVE SMOOTH",
"110 231 OFFCURVE",
"80 193 OFFCURVE",
"86 193 CURVE SMOOTH",
"130 197 OFFCURVE",
"194 197 OFFCURVE",
"241 197 CURVE",
"221 151 OFFCURVE",
"193 84 OFFCURVE",
"170 41 CURVE"
);
}
);
width = 326;
}
);
note = plus;
unicode = 002B;
},
{
glyphname = comma;
lastChange = "2021-04-30 03:09:52 +0000";
layers = (
{
hints = (
{
horizontal = 1;
place = "{-85, 148}";
type = Stem;
},
{
place = "{80, 40}";
type = Stem;
}
);
layerId = "A626400C-4409-4FF6-B7A4-72C4E5A5721C";
paths = (
{
closed = 1;
nodes = (
"36 -80 LINE",
"34 -88 OFFCURVE",
"41 -85 OFFCURVE",
"49 -80 CURVE SMOOTH",
"86 -54 OFFCURVE",
"110 -28 OFFCURVE",
"120 21 CURVE SMOOTH",
"121 27 OFFCURVE",
"122 32 OFFCURVE",
"122 37 CURVE SMOOTH",
"122 51 OFFCURVE",
"116 61 OFFCURVE",
"101 63 CURVE SMOOTH",
"98 63 OFFCURVE",
"92 55 OFFCURVE",
"86 51 CURVE SMOOTH",
"81 47 OFFCURVE",
"66 39 OFFCURVE",
"59 38 CURVE",
"55 27 LINE",
"71 23 OFFCURVE",
"80 9 OFFCURVE",
"80 -6 CURVE SMOOTH",
"80 -20 OFFCURVE",
"67 -49 OFFCURVE",
"44 -69 CURVE SMOOTH",
"36 -76 OFFCURVE",
"37 -77 OFFCURVE",
"36 -80 CURVE"
);
}
);
width = 129;
}
);
note = comma;
unicode = 002C;
},
{
glyphname = hyphen;
lastChange = "2021-04-30 03:09:52 +0000";
layers = (
{
hints = (
{
horizontal = 1;
place = "{147, 21}";
target = up;
type = BottomGhost;
}
);
layerId = "A626400C-4409-4FF6-B7A4-72C4E5A5721C";
paths = (
{
closed = 1;
nodes = (
"220 144 LINE",
"227 143 OFFCURVE",
"246 171 OFFCURVE",
"242 171 CURVE SMOOTH",
"224 170 OFFCURVE",
"198 168 OFFCURVE",
"163 168 CURVE SMOOTH",
"138 169 OFFCURVE",
"113 169 OFFCURVE",
"98 172 CURVE SMOOTH",
"91 173 OFFCURVE",
"72 144 OFFCURVE",
"76 145 CURVE",
"106 148 OFFCURVE",
"130 148 OFFCURVE",
"161 148 CURVE SMOOTH",
"187 148 OFFCURVE",
"204 145 OFFCURVE",
"220 144 CURVE"
);
}
);
width = 249;
}
);
note = hyphen;
unicode = 002D;
},
{
glyphname = period;
lastChange = "2021-04-30 03:09:52 +0000";
layers = (
{
hints = (
{
horizontal = 1;
place = "{-6, 20}";
type = Stem;
}
);
layerId = "A626400C-4409-4FF6-B7A4-72C4E5A5721C";
paths = (
{
closed = 1;
nodes = (
"70 -6 LINE",
"82 -6 OFFCURVE",
"95 7 OFFCURVE",
"107 17 CURVE SMOOTH",
"112 22 OFFCURVE",
"114 25 OFFCURVE",
"114 27 CURVE SMOOTH",
"114 29 OFFCURVE",
"112 30 OFFCURVE",
"109 30 CURVE SMOOTH",
"107 30 OFFCURVE",
"106 30 OFFCURVE",
"105 30 CURVE SMOOTH",
"93 28 OFFCURVE",
"82 36 OFFCURVE",
"72 42 CURVE SMOOTH",
"69 44 OFFCURVE",
"31 19 OFFCURVE",
"33 16 CURVE SMOOTH",
"41 6 OFFCURVE",
"56 -6 OFFCURVE",
"70 -6 CURVE"
);
}
);
width = 149;
}
);
note = period;
unicode = 002E;
},
{
glyphname = slash;
lastChange = "2021-04-30 03:09:52 +0000";
layers = (
{
hints = (
{
horizontal = 1;
place = "{613, -20}";
target = down;
type = TopGhost;
},
{
place = "{0, 571}";
type = Stem;
}
);
layerId = "A626400C-4409-4FF6-B7A4-72C4E5A5721C";
paths = (
{
closed = 1;
nodes = (
"19 -32 LINE",
"29 -32 OFFCURVE",
"40 -30 OFFCURVE",
"43 -26 CURVE SMOOTH",
"130 93 OFFCURVE",
"482 516 OFFCURVE",
"571 610 CURVE SMOOTH",
"573 612 OFFCURVE",
"552 613 OFFCURVE",
"533 613 CURVE SMOOTH",
"518 613 OFFCURVE",
"504 612 OFFCURVE",
"502 610 CURVE SMOOTH",
"404 505 OFFCURVE",
"148 181 OFFCURVE",
"0 -25 CURVE SMOOTH",
"-3 -30 OFFCURVE",
"7 -32 OFFCURVE",
"19 -32 CURVE"
);
}
);
width = 377;
}
);
note = slash;
unicode = 002F;
},
{
glyphname = zero;
lastChange = "2021-04-30 03:09:52 +0000";
layers = (
{
hints = (
{
horizontal = 1;
place = "{-8, 20}";
type = Stem;
},
{
place = "{64, 51}";
type = Stem;
},
{
place = "{354, 49}";
type = Stem;
}
);
layerId = "A626400C-4409-4FF6-B7A4-72C4E5A5721C";
paths = (
{
closed = 1;
nodes = (
"153 -8 LINE",
"174 -8 OFFCURVE",
"212 0 OFFCURVE",
"233 20 CURVE SMOOTH",
"256 42 OFFCURVE",
"278 55 OFFCURVE",
"300 75 CURVE SMOOTH",
"358 129 OFFCURVE",
"403 243 OFFCURVE",
"403 330 CURVE SMOOTH",
"403 393 OFFCURVE",
"379 442 OFFCURVE",
"319 442 CURVE SMOOTH",
"298 442 OFFCURVE",
"263 436 OFFCURVE",
"245 421 CURVE SMOOTH",
"223 402 OFFCURVE",
"195 381 OFFCURVE",
"173 361 CURVE SMOOTH",
"116 308 OFFCURVE",
"64 189 OFFCURVE",
"64 100 CURVE SMOOTH",
"64 39 OFFCURVE",
"88 -8 OFFCURVE",
"153 -8 CURVE"
);
},
{
closed = 1;
nodes = (
"194 26 LINE",
"182 26 OFFCURVE",
"171 28 OFFCURVE",
"160 34 CURVE SMOOTH",
"128 50 OFFCURVE",
"115 85 OFFCURVE",
"115 129 CURVE SMOOTH",
"115 175 OFFCURVE",
"129 230 OFFCURVE",
"152 282 CURVE SMOOTH",
"181 352 OFFCURVE",
"224 404 OFFCURVE",
"274 404 CURVE SMOOTH",
"284 404 OFFCURVE",
"294 402 OFFCURVE",
"304 398 CURVE SMOOTH",
"339 383 OFFCURVE",
"354 347 OFFCURVE",
"354 300 CURVE SMOOTH",
"354 254 OFFCURVE",
"339 199 OFFCURVE",
"316 146 CURVE SMOOTH",
"282 69 OFFCURVE",
"239 26 OFFCURVE",
"194 26 CURVE"
);
}
);
width = 368;
}
);
note = zero;
unicode = 0030;
},
{
glyphname = one;
lastChange = "2021-04-30 03:09:52 +0000";
layers = (
{
hints = (
{
horizontal = 1;
place = "{148, 23}";
type = Stem;
}
);
layerId = "A626400C-4409-4FF6-B7A4-72C4E5A5721C";
paths = (
{
closed = 1;
nodes = (
"99 5 OFFCURVE",
"125 6 OFFCURVE",
"125 6 CURVE",
"155 5 OFFCURVE",
"208 1 OFFCURVE",
"219 -2 CURVE",
"230 10 LINE",
"217 9 OFFCURVE",
"158 12 OFFCURVE",
"163 44 CURVE SMOOTH",
"167 71 OFFCURVE",
"189 146 OFFCURVE",
"206 197 CURVE SMOOTH",
"221 246 LINE SMOOTH",
"248 333 OFFCURVE",
"267 388 OFFCURVE",
"292 438 CURVE SMOOTH",
"294 442 OFFCURVE",
"295 446 OFFCURVE",
"295 449 CURVE SMOOTH",
"295 451 OFFCURVE",
"294 453 OFFCURVE",
"292 453 CURVE SMOOTH",
"290 453 OFFCURVE",
"287 452 OFFCURVE",
"283 449 CURVE SMOOTH",
"260 435 OFFCURVE",
"224 413 OFFCURVE",
"208 402 CURVE SMOOTH",
"176 382 OFFCURVE",
"150 368 OFFCURVE",
"131 356 CURVE",
"128 347 OFFCURVE",
"127 343 OFFCURVE",
"123 329 CURVE",
"129 332 OFFCURVE",
"142 344 OFFCURVE",
"156 354 CURVE SMOOTH",
"175 369 OFFCURVE",
"194 382 OFFCURVE",
"201 378 CURVE SMOOTH",
"206 375 OFFCURVE",
"210 373 OFFCURVE",
"210 363 CURVE SMOOTH",
"210 353 OFFCURVE",
"206 336 OFFCURVE",
"196 303 CURVE SMOOTH",
"162 198 LINE SMOOTH",
"151 164 OFFCURVE",
"120 69 OFFCURVE",
"107 44 CURVE SMOOTH",
"92 18 OFFCURVE",
"53 10 OFFCURVE",
"30 10 CURVE SMOOTH",
"24 10 OFFCURVE",
"20 10 OFFCURVE",
"17 11 CURVE",
"8 -2 LINE",
"8 -2 LINE"
);
}
);
width = 243;
}
);
note = one;
unicode = 0031;
},
{
glyphname = two;
lastChange = "2021-04-30 03:09:52 +0000";
layers = (
{
hints = (
{
horizontal = 1;
place = "{2, 35}";
type = Stem;
},
{
horizontal = 1;
place = "{420, 19}";
type = Stem;
},
{
place = "{356, 50}";
type = Stem;
}
);
layerId = "A626400C-4409-4FF6-B7A4-72C4E5A5721C";
paths = (
{
closed = 1;
nodes = (
"21 -5 LINE",
"93 0 OFFCURVE",
"127 2 OFFCURVE",
"127 2 CURVE",
"135 3 OFFCURVE",
"146 3 OFFCURVE",
"158 3 CURVE SMOOTH",
"188 3 OFFCURVE",
"228 0 OFFCURVE",
"250 0 CURVE SMOOTH",
"279 0 OFFCURVE",
"293 16 OFFCURVE",
"305 42 CURVE SMOOTH",
"316 66 OFFCURVE",
"342 105 OFFCURVE",
"345 109 CURVE",
"336 112 LINE",
"329 97 OFFCURVE",
"296 59 OFFCURVE",
"276 48 CURVE SMOOTH",
"257 37 OFFCURVE",
"215 33 OFFCURVE",
"174 33 CURVE SMOOTH",
"149 33 OFFCURVE",
"124 35 OFFCURVE",
"104 36 CURVE",
"99 37 OFFCURVE",
"93 37 OFFCURVE",
"93 40 CURVE SMOOTH",
"93 43 OFFCURVE",
"98 49 OFFCURVE",
"111 59 CURVE SMOOTH",
"178 111 OFFCURVE",
"296 197 OFFCURVE",
"354 259 CURVE SMOOTH",
"374 281 OFFCURVE",
"392 305 OFFCURVE",
"400 332 CURVE SMOOTH",
"404 344 OFFCURVE",
"406 357 OFFCURVE",
"406 369 CURVE SMOOTH",
"406 395 OFFCURVE",
"396 417 OFFCURVE",
"369 429 CURVE SMOOTH",
"351 437 OFFCURVE",
"326 440 OFFCURVE",
"296 439 CURVE SMOOTH",
"274 438 LINE SMOOTH",
"248 437 OFFCURVE",
"211 431 OFFCURVE",
"198 426 CURVE SMOOTH",
"191 423 OFFCURVE",
"180 416 OFFCURVE",
"180 406 CURVE SMOOTH",
"179 393 OFFCURVE",
"164 324 OFFCURVE",
"157 301 CURVE",
"178 312 LINE",
"177 316 OFFCURVE",
"183 342 OFFCURVE",
"186 352 CURVE SMOOTH",
"191 370 OFFCURVE",
"209 395 OFFCURVE",
"223 404 CURVE SMOOTH",
"240 414 OFFCURVE",
"266 420 OFFCURVE",
"288 420 CURVE SMOOTH",
"332 420 OFFCURVE",
"356 397 OFFCURVE",
"356 366 CURVE SMOOTH",
"356 359 OFFCURVE",
"355 351 OFFCURVE",
"352 343 CURVE SMOOTH",
"332 279 OFFCURVE",
"232 189 OFFCURVE",
"181 141 CURVE SMOOTH",
"113 76 OFFCURVE",
"51 21 OFFCURVE",
"21 -5 CURVE"
);
}
);
width = 331;
}
);
note = two;
unicode = 0032;
},
{
glyphname = three;
lastChange = "2021-04-30 03:09:52 +0000";
layers = (
{
hints = (
{
horizontal = 1;
place = "{-8, 18}";
type = Stem;
},
{
horizontal = 1;
place = "{420, 19}";
type = Stem;
},
{
place = "{339, 48}";
type = Stem;
}
);
layerId = "A626400C-4409-4FF6-B7A4-72C4E5A5721C";
paths = (
{
closed = 1;
nodes = (
"135 -9 LINE",
"216 -9 OFFCURVE",
"266 20 OFFCURVE",
"299 61 CURVE SMOOTH",
"316 82 OFFCURVE",
"343 137 OFFCURVE",
"343 176 CURVE SMOOTH",
"343 185 OFFCURVE",
"342 192 OFFCURVE",
"339 199 CURVE SMOOTH",
"328 226 OFFCURVE",
"302 236 OFFCURVE",
"271 239 CURVE SMOOTH",
"263 240 OFFCURVE",
"253 241 OFFCURVE",
"253 244 CURVE SMOOTH",
"253 245 OFFCURVE",
"257 248 OFFCURVE",
"267 251 CURVE SMOOTH",
"327 271 OFFCURVE",
"369 306 OFFCURVE",
"383 350 CURVE SMOOTH",
"385 358 OFFCURVE",
"387 366 OFFCURVE",
"387 375 CURVE SMOOTH",
"387 396 OFFCURVE",
"377 417 OFFCURVE",
"352 429 CURVE SMOOTH",
"334 437 OFFCURVE",
"309 440 OFFCURVE",
"279 439 CURVE SMOOTH",
"257 438 LINE SMOOTH",
"231 437 OFFCURVE",
"194 431 OFFCURVE",
"181 426 CURVE SMOOTH",
"174 423 OFFCURVE",
"163 416 OFFCURVE",
"163 406 CURVE SMOOTH",
"162 393 OFFCURVE",
"147 324 OFFCURVE",
"140 301 CURVE",
"161 312 LINE",
"160 316 OFFCURVE",
"166 342 OFFCURVE",
"169 352 CURVE SMOOTH",
"174 370 OFFCURVE",
"192 395 OFFCURVE",
"207 404 CURVE SMOOTH",
"223 414 OFFCURVE",
"249 420 OFFCURVE",
"271 420 CURVE SMOOTH",
"315 420 OFFCURVE",
"339 397 OFFCURVE",
"339 366 CURVE SMOOTH",
"339 359 OFFCURVE",
"338 351 OFFCURVE",
"335 343 CURVE SMOOTH",
"315 279 OFFCURVE",
"237 259 OFFCURVE",
"193 250 CURVE SMOOTH",
"186 249 OFFCURVE",
"184 249 OFFCURVE",
"175 247 CURVE",
"175 247 OFFCURVE",
"169 239 OFFCURVE",
"162 231 CURVE",
"223 231 OFFCURVE",
"294 226 OFFCURVE",
"294 167 CURVE SMOOTH",
"294 157 OFFCURVE",
"292 146 OFFCURVE",
"288 133 CURVE SMOOTH",
"270 73 OFFCURVE",
"222 10 OFFCURVE",
"136 10 CURVE SMOOTH",
"115 10 OFFCURVE",
"93 15 OFFCURVE",
"82 26 CURVE SMOOTH",
"74 33 OFFCURVE",
"69 49 OFFCURVE",
"69 65 CURVE SMOOTH",
"69 69 OFFCURVE",
"69 73 OFFCURVE",
"70 77 CURVE SMOOTH",
"73 87 OFFCURVE",
"80 112 OFFCURVE",
"83 116 CURVE",
"61 107 LINE",
"55 84 OFFCURVE",
"41 38 OFFCURVE",
"35 26 CURVE SMOOTH",
"30 16 OFFCURVE",
"38 9 OFFCURVE",
"43 6 CURVE SMOOTH",
"62 -5 OFFCURVE",
"104 -9 OFFCURVE",
"135 -9 CURVE"
);
}
);
width = 314;
}
);
note = three;
unicode = 0033;
},
{
glyphname = four;
lastChange = "2021-04-30 03:09:52 +0000";
layers = (
{
hints = (
{
horizontal = 1;
place = "{123, 41}";
type = Stem;
}
);
layerId = "A626400C-4409-4FF6-B7A4-72C4E5A5721C";
paths = (
{
closed = 1;
nodes = (
"211 5 OFFCURVE",
"237 6 OFFCURVE",
"237 6 CURVE",
"267 5 OFFCURVE",
"321 1 OFFCURVE",
"331 -2 CURVE",
"343 10 LINE",
"329 9 OFFCURVE",
"271 12 OFFCURVE",
"275 44 CURVE SMOOTH",
"278 60 OFFCURVE",
"287 93 OFFCURVE",
"297 128 CURVE",
"310 128 OFFCURVE",
"323 127 OFFCURVE",
"334 127 CURVE SMOOTH",
"363 127 OFFCURVE",
"378 143 OFFCURVE",
"391 169 CURVE SMOOTH",
"402 193 OFFCURVE",
"430 231 OFFCURVE",
"433 235 CURVE",
"423 238 LINE",
"416 224 OFFCURVE",
"380 186 OFFCURVE",
"358 175 CURVE",
"349 169 OFFCURVE",
"330 166 OFFCURVE",
"307 164 CURVE",
"311 175 OFFCURVE",
"315 187 OFFCURVE",
"318 197 CURVE SMOOTH",
"333 246 LINE SMOOTH",
"361 333 OFFCURVE",
"379 388 OFFCURVE",
"405 438 CURVE SMOOTH",
"408 444 OFFCURVE",
"406 447 OFFCURVE",
"402 447 CURVE SMOOTH",
"390 447 OFFCURVE",
"356 427 OFFCURVE",
"333 420 CURVE SMOOTH",
"318 415 OFFCURVE",
"299 384 OFFCURVE",
"260 343 CURVE SMOOTH",
"143 220 LINE SMOOTH",
"115 191 OFFCURVE",
"79 149 OFFCURVE",
"57 135 CURVE SMOOTH",
"51 131 OFFCURVE",
"46 128 OFFCURVE",
"46 125 CURVE SMOOTH",
"46 124 OFFCURVE",
"48 123 OFFCURVE",
"54 123 CURVE SMOOTH",
"56 123 OFFCURVE",
"58 123 OFFCURVE",
"61 123 CURVE SMOOTH",
"133 127 OFFCURVE",
"195 129 OFFCURVE",
"195 129 CURVE",
"209 129 OFFCURVE",
"230 129 OFFCURVE",
"252 129 CURVE",
"240 94 OFFCURVE",
"227 58 OFFCURVE",
"219 44 CURVE SMOOTH",
"204 18 OFFCURVE",
"165 10 OFFCURVE",
"142 10 CURVE SMOOTH",
"137 10 OFFCURVE",
"133 10 OFFCURVE",
"130 11 CURVE",
"121 -2 LINE",
"121 -2 LINE"
);
},
{
closed = 1;
nodes = (
"221 160 LINE",
"187 160 OFFCURVE",
"155 162 OFFCURVE",
"133 163 CURVE SMOOTH",
"125 164 OFFCURVE",
"121 166 OFFCURVE",
"121 169 CURVE SMOOTH",
"121 172 OFFCURVE",
"123 176 OFFCURVE",
"128 181 CURVE SMOOTH",
"165 221 OFFCURVE",
"295 365 OFFCURVE",
"322 383 CURVE",
"324 381 OFFCURVE",
"325 377 OFFCURVE",
"325 372 CURVE SMOOTH",
"325 358 OFFCURVE",
"318 332 OFFCURVE",
"308 303 CURVE SMOOTH",
"274 198 LINE",
"272 189 OFFCURVE",
"267 176 OFFCURVE",
"262 161 CURVE",
"249 160 OFFCURVE",
"235 160 OFFCURVE",
"221 160 CURVE"
);
}
);
width = 403;
}
);
note = four;
unicode = 0034;
},
{
glyphname = five;
lastChange = "2021-04-30 03:09:52 +0000";
layers = (
{
hints = (
{
horizontal = 1;
place = "{-8, 18}";
type = Stem;
},
{
horizontal = 1;
place = "{239, 27}";
type = Stem;
},
{
horizontal = 1;
place = "{397, 38}";
type = Stem;
},
{
place = "{294, 56}";
type = Stem;
}
);
layerId = "A626400C-4409-4FF6-B7A4-72C4E5A5721C";
paths = (
{
closed = 1;
nodes = (
"135 -9 LINE",
"231 -9 OFFCURVE",
"311 41 OFFCURVE",
"341 138 CURVE SMOOTH",
"347 157 OFFCURVE",
"350 174 OFFCURVE",
"350 189 CURVE SMOOTH",
"350 240 OFFCURVE",
"315 266 OFFCURVE",
"239 266 CURVE SMOOTH",
"215 266 OFFCURVE",
"171 259 OFFCURVE",
"148 247 CURVE",
"158 269 OFFCURVE",
"196 348 OFFCURVE",
"214 383 CURVE SMOOTH",
"219 392 OFFCURVE",
"228 396 OFFCURVE",
"240 397 CURVE SMOOTH",
"261 399 OFFCURVE",
"337 399 OFFCURVE",
"355 399 CURVE SMOOTH",
"380 399 OFFCURVE",
"388 392 OFFCURVE",
"388 384 CURVE SMOOTH",
"388 379 OFFCURVE",
"386 375 OFFCURVE",
"383 370 CURVE",
"383 370 OFFCURVE",
"372 343 OFFCURVE",
"360 325 CURVE",
"374 322 LINE",
"383 339 OFFCURVE",
"397 375 OFFCURVE",
"397 375 CURVE",
"406 395 OFFCURVE",
"435 434 OFFCURVE",
"419 435 CURVE SMOOTH",
"410 435 OFFCURVE",
"276 435 OFFCURVE",
"213 435 CURVE SMOOTH",
"208 435 OFFCURVE",
"204 433 OFFCURVE",
"201 425 CURVE SMOOTH",
"198 416 OFFCURVE",
"181 374 OFFCURVE",
"176 361 CURVE SMOOTH",
"169 344 OFFCURVE",
"146 286 OFFCURVE",
"125 243 CURVE SMOOTH",
"119 232 OFFCURVE",
"115 226 OFFCURVE",
"115 224 CURVE SMOOTH",
"115 223 OFFCURVE",
"116 223 OFFCURVE",
"117 223 CURVE SMOOTH",
"119 223 OFFCURVE",
"122 224 OFFCURVE",
"126 225 CURVE SMOOTH",
"155 235 OFFCURVE",
"190 240 OFFCURVE",
"220 240 CURVE SMOOTH",
"246 240 OFFCURVE",
"269 232 OFFCURVE",
"282 216 CURVE SMOOTH",
"291 205 OFFCURVE",
"295 191 OFFCURVE",
"295 175 CURVE SMOOTH",
"295 161 OFFCURVE",
"292 145 OFFCURVE",
"287 130 CURVE SMOOTH",
"269 69 OFFCURVE",
"213 10 OFFCURVE",
"136 10 CURVE SMOOTH",
"115 10 OFFCURVE",
"93 15 OFFCURVE",
"82 26 CURVE SMOOTH",
"74 33 OFFCURVE",
"69 49 OFFCURVE",
"69 65 CURVE SMOOTH",
"69 69 OFFCURVE",
"69 73 OFFCURVE",
"70 77 CURVE SMOOTH",
"73 87 OFFCURVE",
"80 112 OFFCURVE",
"83 116 CURVE",
"61 107 LINE",
"55 84 OFFCURVE",
"41 38 OFFCURVE",
"35 26 CURVE SMOOTH",
"30 16 OFFCURVE",
"38 9 OFFCURVE",
"43 6 CURVE SMOOTH",
"63 -5 OFFCURVE",
"104 -9 OFFCURVE",
"135 -9 CURVE"
);
}
);
width = 331;
}
);
note = five;
unicode = 0035;
},
{
glyphname = six;
lastChange = "2021-04-30 03:09:52 +0000";
layers = (
{
hints = (
{
horizontal = 1;
place = "{-4, 20}";
type = Stem;
},
{
horizontal = 1;
place = "{244, 28}";
type = Stem;
},
{
horizontal = 1;
place = "{428, 18}";
type = Stem;
},
{
place = "{62, 50}";
type = Stem;
},
{
place = "{306, 53}";
type = Stem;
}
);
layerId = "A626400C-4409-4FF6-B7A4-72C4E5A5721C";
paths = (
{
closed = 1;
nodes = (
"159 -4 LINE",
"178 -4 OFFCURVE",
"213 1 OFFCURVE",
"230 13 CURVE SMOOTH",
"251 27 OFFCURVE",
"269 35 OFFCURVE",
"288 47 CURVE SMOOTH",
"331 76 OFFCURVE",
"359 134 OFFCURVE",
"359 183 CURVE SMOOTH",
"359 231 OFFCURVE",
"333 272 OFFCURVE",
"268 272 CURVE SMOOTH",
"248 272 OFFCURVE",
"216 268 OFFCURVE",
"201 259 CURVE SMOOTH",
"185 248 OFFCURVE",
"161 239 OFFCURVE",
"140 223 CURVE",
"145 244 OFFCURVE",
"156 270 OFFCURVE",
"167 292 CURVE SMOOTH",
"197 354 OFFCURVE",
"265 428 OFFCURVE",
"336 428 CURVE SMOOTH",
"352 428 OFFCURVE",
"366 425 OFFCURVE",
"376 416 CURVE SMOOTH",
"382 410 OFFCURVE",
"386 397 OFFCURVE",
"386 384 CURVE SMOOTH",
"386 380 OFFCURVE",
"386 376 OFFCURVE",
"385 372 CURVE SMOOTH",
"382 363 OFFCURVE",
"375 342 OFFCURVE",
"373 338 CURVE",
"391 346 LINE",
"396 366 OFFCURVE",
"409 407 OFFCURVE",
"415 418 CURVE SMOOTH",
"420 426 OFFCURVE",
"413 432 OFFCURVE",
"408 434 CURVE SMOOTH",
"391 443 OFFCURVE",
"368 446 OFFCURVE",
"344 446 CURVE SMOOTH",
"214 446 OFFCURVE",
"127 326 OFFCURVE",
"86 213 CURVE SMOOTH",
"73 175 OFFCURVE",
"62 133 OFFCURVE",
"62 96 CURVE SMOOTH",
"62 40 OFFCURVE",
"86 -4 OFFCURVE",
"159 -4 CURVE"
);
},
{
closed = 1;
nodes = (
"194 22 LINE",
"184 22 OFFCURVE",
"174 23 OFFCURVE",
"164 26 CURVE SMOOTH",
"127 37 OFFCURVE",
"112 65 OFFCURVE",
"112 98 CURVE SMOOTH",
"112 122 OFFCURVE",
"120 147 OFFCURVE",
"132 172 CURVE SMOOTH",
"145 200 OFFCURVE",
"168 223 OFFCURVE",
"195 235 CURVE SMOOTH",
"209 241 OFFCURVE",
"222 244 OFFCURVE",
"235 244 CURVE SMOOTH",
"271 244 OFFCURVE",
"297 220 OFFCURVE",
"304 186 CURVE SMOOTH",
"306 177 OFFCURVE",
"307 168 OFFCURVE",
"307 158 CURVE SMOOTH",
"307 114 OFFCURVE",
"288 60 OFFCURVE",
"239 33 CURVE SMOOTH",
"225 26 OFFCURVE",
"210 22 OFFCURVE",
"194 22 CURVE"
);
}
);
width = 336;
}
);
note = six;
unicode = 0036;
},
{
glyphname = seven;
lastChange = "2021-04-30 03:09:52 +0000";
layers = (
{
hints = (
{
horizontal = 1;
place = "{399, 36}";
type = Stem;
}
);
layerId = "A626400C-4409-4FF6-B7A4-72C4E5A5721C";
paths = (
{
closed = 1;
nodes = (
"109 0 LINE",
"117 59 OFFCURVE",
"378 366 OFFCURVE",
"436 431 CURVE SMOOTH",
"449 446 OFFCURVE",
"416 433 OFFCURVE",
"401 433 CURVE SMOOTH",
"333 434 OFFCURVE",
"202 435 OFFCURVE",
"193 435 CURVE SMOOTH",
"176 434 OFFCURVE",
"165 395 OFFCURVE",
"154 375 CURVE",
"154 375 OFFCURVE",
"136 343 OFFCURVE",
"127 326 CURVE",
"145 329 LINE",
"150 347 OFFCURVE",
"167 374 OFFCURVE",
"167 374 CURVE",
"175 389 OFFCURVE",
"186 399 OFFCURVE",
"223 399 CURVE SMOOTH",
"241 399 OFFCURVE",
"319 399 OFFCURVE",
"339 397 CURVE SMOOTH",
"349 396 OFFCURVE",
"356 392 OFFCURVE",
"356 385 CURVE SMOOTH",
"356 384 OFFCURVE",
"356 384 OFFCURVE",
"356 383 CURVE SMOOTH",
"352 348 OFFCURVE",
"53 24 OFFCURVE",
"50 2 CURVE",
"51 -2 OFFCURVE",
"67 2 OFFCURVE",
"86 2 CURVE SMOOTH",
"93 2 OFFCURVE",
"101 2 OFFCURVE",
"109 0 CURVE"
);
}
);
width = 310;
}
);
note = seven;
unicode = 0037;
},
{
glyphname = eight;
lastChange = "2021-04-30 03:09:52 +0000";
layers = (
{
hints = (
{
horizontal = 1;
place = "{-9, 19}";
type = Stem;
},
{
horizontal = 1;
place = "{434, 15}";
type = Stem;
},
{
place = "{40, 42}";
type = Stem;
},
{
place = "{134, 56}";
type = Stem;
},
{
place = "{253, 62}";
type = Stem;
},
{
place = "{350, 31}";
type = Stem;
}
);
layerId = "A626400C-4409-4FF6-B7A4-72C4E5A5721C";
paths = (
{
closed = 1;
nodes = (
"130 -9 LINE",
"204 -9 OFFCURVE",
"284 39 OFFCURVE",
"309 117 CURVE SMOOTH",
"313 130 OFFCURVE",
"315 142 OFFCURVE",
"315 152 CURVE SMOOTH",
"315 192 OFFCURVE",
"288 215 OFFCURVE",
"256 239 CURVE",
"301 266 OFFCURVE",
"360 308 OFFCURVE",
"376 357 CURVE SMOOTH",
"380 369 OFFCURVE",
"381 379 OFFCURVE",
"381 388 CURVE SMOOTH",
"381 430 OFFCURVE",
"348 449 OFFCURVE",
"302 449 CURVE SMOOTH",
"238 449 OFFCURVE",
"162 396 OFFCURVE",
"141 327 CURVE SMOOTH",
"137 313 OFFCURVE",
"134 300 OFFCURVE",
"134 290 CURVE SMOOTH",
"134 256 OFFCURVE",
"153 236 OFFCURVE",
"182 216 CURVE",
"128 186 OFFCURVE",
"64 143 OFFCURVE",
"44 80 CURVE SMOOTH",
"41 71 OFFCURVE",
"40 63 OFFCURVE",
"40 55 CURVE SMOOTH",
"40 11 OFFCURVE",
"84 -9 OFFCURVE",
"130 -9 CURVE"
);
},
{
closed = 1;
nodes = (
"133 10 LINE",
"98 10 OFFCURVE",
"82 29 OFFCURVE",
"82 57 CURVE SMOOTH",
"82 66 OFFCURVE",
"83 77 OFFCURVE",
"87 88 CURVE SMOOTH",
"103 139 OFFCURVE",
"150 176 OFFCURVE",
"197 206 CURVE",
"227 184 OFFCURVE",
"253 163 OFFCURVE",
"253 125 CURVE SMOOTH",
"253 115 OFFCURVE",
"252 105 OFFCURVE",
"248 93 CURVE SMOOTH",
"231 41 OFFCURVE",
"184 10 OFFCURVE",
"133 10 CURVE"
);
},
{
closed = 1;
nodes = (
"242 249 LINE",
"217 268 OFFCURVE",
"190 290 OFFCURVE",
"190 326 CURVE SMOOTH",
"190 334 OFFCURVE",
"191 343 OFFCURVE",
"194 352 CURVE SMOOTH",
"209 400 OFFCURVE",
"249 433 OFFCURVE",
"296 433 CURVE SMOOTH",
"328 433 OFFCURVE",
"350 414 OFFCURVE",
"350 384 CURVE SMOOTH",
"350 377 OFFCURVE",
"349 369 OFFCURVE",
"346 361 CURVE SMOOTH",
"333 320 OFFCURVE",
"280 273 OFFCURVE",
"242 249 CURVE"
);
}
);
width = 351;
}
);
note = eight;
unicode = 0038;
},
{
glyphname = nine;
lastChange = "2021-04-30 03:09:52 +0000";
layers = (
{
hints = (
{
horizontal = 1;
place = "{-4, 18}";
type = Stem;
},
{
place = "{101, 47}";
type = Stem;
},
{
place = "{348, 50}";
type = Stem;
}
);
layerId = "A626400C-4409-4FF6-B7A4-72C4E5A5721C";
paths = (
{
closed = 1;
nodes = (
"115 -4 LINE",
"246 -4 OFFCURVE",
"333 117 OFFCURVE",
"373 230 CURVE SMOOTH",
"387 268 OFFCURVE",
"398 311 OFFCURVE",
"398 347 CURVE SMOOTH",
"398 403 OFFCURVE",
"374 446 OFFCURVE",
"301 446 CURVE SMOOTH",
"281 446 OFFCURVE",
"247 441 OFFCURVE",
"229 429 CURVE SMOOTH",
"209 416 OFFCURVE",
"190 408 OFFCURVE",
"172 395 CURVE SMOOTH",
"129 366 OFFCURVE",
"100 308 OFFCURVE",
"100 259 CURVE SMOOTH",
"100 211 OFFCURVE",
"126 171 OFFCURVE",
"191 171 CURVE SMOOTH",
"211 171 OFFCURVE",
"244 175 OFFCURVE",
"259 184 CURVE SMOOTH",
"275 194 OFFCURVE",
"299 204 OFFCURVE",
"320 219 CURVE",
"315 198 OFFCURVE",
"303 173 OFFCURVE",
"293 151 CURVE SMOOTH",
"262 89 OFFCURVE",
"195 15 OFFCURVE",
"124 15 CURVE SMOOTH",
"108 15 OFFCURVE",
"94 18 OFFCURVE",
"84 27 CURVE SMOOTH",
"78 33 OFFCURVE",
"74 46 OFFCURVE",
"74 58 CURVE SMOOTH",
"74 62 OFFCURVE",
"74 66 OFFCURVE",
"75 70 CURVE SMOOTH",
"78 80 OFFCURVE",
"84 101 OFFCURVE",
"87 104 CURVE",
"69 96 LINE",
"64 76 OFFCURVE",
"50 36 OFFCURVE",
"45 25 CURVE SMOOTH",
"40 16 OFFCURVE",
"47 11 OFFCURVE",
"51 8 CURVE",
"69 -1 OFFCURVE",
"91 -4 OFFCURVE",
"115 -4 CURVE"
);
},
{
closed = 1;
nodes = (
"227 200 LINE",
"219 200 OFFCURVE",
"211 201 OFFCURVE",
"203 203 CURVE SMOOTH",
"163 213 OFFCURVE",
"147 242 OFFCURVE",
"147 276 CURVE SMOOTH",
"147 299 OFFCURVE",
"155 325 OFFCURVE",
"167 350 CURVE SMOOTH",
"190 396 OFFCURVE",
"226 421 OFFCURVE",
"265 421 CURVE SMOOTH",
"275 421 OFFCURVE",
"286 419 OFFCURVE",
"296 416 CURVE SMOOTH",
"333 405 OFFCURVE",
"348 377 OFFCURVE",
"348 344 CURVE SMOOTH",
"348 321 OFFCURVE",
"340 295 OFFCURVE",
"328 270 CURVE SMOOTH",
"308 230 OFFCURVE",
"269 200 OFFCURVE",
"227 200 CURVE"
);
}
);
width = 336;
}
);
note = nine;
unicode = 0039;
},
{
glyphname = colon;
lastChange = "2021-04-30 03:09:52 +0000";
layers = (
{
hints = (
{
horizontal = 1;
place = "{-5, 20}";
type = Stem;
},
{
horizontal = 1;
place = "{294, -20}";
target = down;
type = TopGhost;
}
);
layerId = "A626400C-4409-4FF6-B7A4-72C4E5A5721C";
paths = (
{
closed = 1;
nodes = (
"95 -5 LINE",
"106 -5 OFFCURVE",
"120 8 OFFCURVE",
"132 19 CURVE SMOOTH",
"137 23 OFFCURVE",
"139 27 OFFCURVE",
"139 29 CURVE SMOOTH",
"139 31 OFFCURVE",
"137 32 OFFCURVE",
"133 32 CURVE SMOOTH",
"132 32 OFFCURVE",
"131 32 OFFCURVE",
"130 32 CURVE SMOOTH",
"118 30 OFFCURVE",
"107 38 OFFCURVE",
"97 44 CURVE",
"94 45 OFFCURVE",
"56 20 OFFCURVE",
"59 17 CURVE SMOOTH",
"67 8 OFFCURVE",
"80 -4 OFFCURVE",
"95 -5 CURVE"
);
},
{
closed = 1;
nodes = (
"167 246 LINE",
"179 246 OFFCURVE",
"192 259 OFFCURVE",
"204 269 CURVE SMOOTH",
"209 274 OFFCURVE",
"211 277 OFFCURVE",
"211 279 CURVE SMOOTH",
"211 281 OFFCURVE",
"209 282 OFFCURVE",
"206 282 CURVE SMOOTH",
"205 282 OFFCURVE",
"203 282 OFFCURVE",
"202 282 CURVE SMOOTH",
"190 280 OFFCURVE",
"179 288 OFFCURVE",
"169 294 CURVE",
"166 295 OFFCURVE",
"128 270 OFFCURVE",
"131 267 CURVE SMOOTH",
"139 258 OFFCURVE",
"153 246 OFFCURVE",
"167 246 CURVE"
);
}
);
width = 154;
}
);
note = colon;
unicode = 003A;
},
{
glyphname = semicolon;
lastChange = "2021-04-30 03:09:52 +0000";
layers = (
{
hints = (
{
horizontal = 1;
place = "{294, -20}";
target = down;
type = TopGhost;
}
);
layerId = "A626400C-4409-4FF6-B7A4-72C4E5A5721C";
paths = (
{
closed = 1;
nodes = (
"37 -116 OFFCURVE",
"44 -113 OFFCURVE",
"51 -108 CURVE SMOOTH",
"89 -82 OFFCURVE",
"122 -44 OFFCURVE",
"133 5 CURVE SMOOTH",
"134 10 OFFCURVE",
"135 15 OFFCURVE",
"135 20 CURVE SMOOTH",
"135 34 OFFCURVE",
"129 45 OFFCURVE",
"114 47 CURVE SMOOTH",
"110 47 OFFCURVE",
"104 39 OFFCURVE",
"99 35 CURVE SMOOTH",
"93 31 OFFCURVE",
"79 23 OFFCURVE",
"72 22 CURVE",
"68 11 LINE",
"85 7 OFFCURVE",
"96 -8 OFFCURVE",
"93 -24 CURVE SMOOTH",
"87 -53 OFFCURVE",
"69 -78 OFFCURVE",
"47 -97 CURVE SMOOTH",
"39 -104 OFFCURVE",
"40 -105 OFFCURVE",
"39 -108 CURVE SMOOTH",
"37 -116 LINE",
"37 -116 LINE"
);
},
{
closed = 1;
nodes = (
"181 246 LINE",
"192 246 OFFCURVE",
"206 259 OFFCURVE",
"218 269 CURVE SMOOTH",
"223 274 OFFCURVE",
"225 277 OFFCURVE",
"225 279 CURVE SMOOTH",
"225 281 OFFCURVE",
"223 282 OFFCURVE",
"220 282 CURVE SMOOTH",
"218 282 OFFCURVE",
"217 282 OFFCURVE",
"216 282 CURVE SMOOTH",
"204 280 OFFCURVE",
"193 288 OFFCURVE",
"183 294 CURVE",
"179 295 OFFCURVE",
"142 270 OFFCURVE",
"144 267 CURVE SMOOTH",
"152 258 OFFCURVE",
"166 246 OFFCURVE",
"181 246 CURVE"
);
}
);
width = 154;
}
);
note = semicolon;
unicode = 003B;
},
{
glyphname = less;
lastChange = "2021-04-30 03:09:52 +0000";
layers = (
{
hints = (
{
horizontal = 1;
place = "{65, 304}";
type = Stem;
},
{
place = "{38, 213}";
type = Stem;
}
);
layerId = "A626400C-4409-4FF6-B7A4-72C4E5A5721C";
paths = (
{
closed = 1;
nodes = (
"237 52 LINE",
"243 52 LINE",
"246 59 OFFCURVE",
"270 79 OFFCURVE",
"272 82 CURVE SMOOTH",
"275 85 OFFCURVE",
"276 88 OFFCURVE",
"276 92 CURVE SMOOTH",
"276 112 OFFCURVE",
"243 142 OFFCURVE",
"235 150 CURVE SMOOTH",
"211 175 OFFCURVE",
"178 200 OFFCURVE",
"153 217 CURVE",
"151 219 OFFCURVE",
"151 222 OFFCURVE",
"155 225 CURVE SMOOTH",
"186 243 OFFCURVE",
"297 317 OFFCURVE",
"320 346 CURVE",
"324 353 OFFCURVE",
"326 362 OFFCURVE",
"326 369 CURVE",
"251 313 OFFCURVE",
"174 261 OFFCURVE",
"93 217 CURVE",
"88 200 LINE",
"134 176 OFFCURVE",
"191 128 OFFCURVE",
"224 82 CURVE SMOOTH",
"230 74 OFFCURVE",
"238 65 OFFCURVE",
"237 52 CURVE"
);
}
);
width = 293;
}
);
note = less;
unicode = 003C;
},
{
glyphname = equal;
lastChange = "2021-04-30 03:09:52 +0000";
layers = (
{
hints = (
{
horizontal = 1;
place = "{129, 31}";
type = Stem;
},
{
horizontal = 1;
place = "{250, 31}";
type = Stem;
}
);
layerId = "A626400C-4409-4FF6-B7A4-72C4E5A5721C";
paths = (
{
closed = 1;
nodes = (
"322 124 LINE",
"333 123 OFFCURVE",
"363 160 OFFCURVE",
"357 160 CURVE SMOOTH",
"328 159 OFFCURVE",
"263 157 OFFCURVE",
"208 157 CURVE SMOOTH",
"169 157 OFFCURVE",
"119 158 OFFCURVE",
"96 161 CURVE SMOOTH",
"85 163 OFFCURVE",
"55 125 OFFCURVE",
"61 125 CURVE SMOOTH",
"108 129 OFFCURVE",
"158 129 OFFCURVE",
"206 129 CURVE SMOOTH",
"246 129 OFFCURVE",
"297 126 OFFCURVE",
"322 124 CURVE"
);
},
{
closed = 1;
nodes = (
"347 245 LINE",
"358 244 OFFCURVE",
"388 281 OFFCURVE",
"382 281 CURVE SMOOTH",
"353 280 OFFCURVE",
"288 277 OFFCURVE",
"233 277 CURVE SMOOTH",
"194 278 OFFCURVE",
"144 278 OFFCURVE",
"121 282 CURVE SMOOTH",
"110 284 OFFCURVE",
"80 245 OFFCURVE",
"86 246 CURVE SMOOTH",
"133 250 OFFCURVE",
"183 250 OFFCURVE",
"231 250 CURVE SMOOTH",
"271 250 OFFCURVE",
"322 247 OFFCURVE",
"347 245 CURVE"
);
}
);
width = 344;
}
);
note = equal;
unicode = 003D;
},
{
glyphname = greater;
lastChange = "2021-04-30 03:09:52 +0000";
layers = (
{
hints = (
{
horizontal = 1;
place = "{65, 304}";
type = Stem;
},
{
place = "{39, 213}";
type = Stem;
}
);
layerId = "A626400C-4409-4FF6-B7A4-72C4E5A5721C";
paths = (
{
closed = 1;
nodes = (
"80 52 LINE",
"86 52 LINE",
"90 65 OFFCURVE",
"102 74 OFFCURVE",
"112 82 CURVE SMOOTH",
"164 128 OFFCURVE",
"242 176 OFFCURVE",
"298 200 CURVE",
"300 217 LINE",
"238 261 OFFCURVE",
"182 313 OFFCURVE",
"132 369 CURVE",
"130 363 OFFCURVE",
"128 356 OFFCURVE",
"128 350 CURVE SMOOTH",
"128 349 OFFCURVE",
"128 347 OFFCURVE",
"128 346 CURVE",
"139 317 OFFCURVE",
"218 243 OFFCURVE",
"241 225 CURVE SMOOTH",
"245 222 OFFCURVE",
"243 219 OFFCURVE",
"240 217 CURVE SMOOTH",
"208 200 OFFCURVE",
"164 175 OFFCURVE",
"130 150 CURVE SMOOTH",
"116 140 OFFCURVE",
"55 100 OFFCURVE",
"63 82 CURVE",
"65 79 OFFCURVE",
"80 59 OFFCURVE",
"80 52 CURVE"
);
}
);
width = 293;
}
);
note = greater;
unicode = 003E;
},
{
glyphname = question;
lastChange = "2021-04-30 03:09:52 +0000";
layers = (
{
hints = (
{
horizontal = 1;
place = "{-6, 20}";
type = Stem;
},
{
horizontal = 1;
place = "{546, 24}";
type = Stem;
},
{
place = "{156, 25}";
type = Stem;
},
{
place = "{416, 65}";
type = Stem;
}
);
layerId = "A626400C-4409-4FF6-B7A4-72C4E5A5721C";
paths = (
{
closed = 1;
nodes = (
"180 115 LINE",
"191 130 LINE",
"184 138 OFFCURVE",
"181 148 OFFCURVE",
"181 160 CURVE SMOOTH",
"181 181 OFFCURVE",
"192 208 OFFCURVE",
"210 236 CURVE SMOOTH",
"275 337 OFFCURVE",
"454 331 OFFCURVE",
"478 465 CURVE SMOOTH",
"480 474 OFFCURVE",
"480 483 OFFCURVE",
"480 490 CURVE SMOOTH",
"480 546 OFFCURVE",
"441 571 OFFCURVE",
"373 571 CURVE SMOOTH",
"364 571 OFFCURVE",
"355 571 OFFCURVE",
"345 570 CURVE SMOOTH",
"317 568 LINE SMOOTH",
"286 566 OFFCURVE",
"240 558 OFFCURVE",
"224 550 CURVE SMOOTH",
"216 546 OFFCURVE",
"202 536 OFFCURVE",
"202 522 CURVE SMOOTH",
"202 503 OFFCURVE",
"191 449 OFFCURVE",
"184 420 CURVE SMOOTH",
"182 407 OFFCURVE",
"204 417 OFFCURVE",
"204 429 CURVE",
"212 462 OFFCURVE",
"240 510 OFFCURVE",
"259 523 CURVE SMOOTH",
"280 538 OFFCURVE",
"311 546 OFFCURVE",
"339 546 CURVE SMOOTH",
"353 546 OFFCURVE",
"367 544 OFFCURVE",
"378 539 CURVE SMOOTH",
"403 528 OFFCURVE",
"416 505 OFFCURVE",
"416 480 CURVE SMOOTH",
"416 454 OFFCURVE",
"403 426 OFFCURVE",
"376 404 CURVE SMOOTH",
"210 272 LINE SMOOTH",
"183 251 OFFCURVE",
"155 215 OFFCURVE",
"155 180 CURVE SMOOTH",
"155 153 OFFCURVE",
"164 132 OFFCURVE",
"180 115 CURVE"
);
},
{
closed = 1;
nodes = (
"138 -6 LINE",
"149 -6 OFFCURVE",
"162 7 OFFCURVE",
"174 17 CURVE SMOOTH",
"179 22 OFFCURVE",
"181 25 OFFCURVE",
"181 27 CURVE SMOOTH",
"181 29 OFFCURVE",
"179 30 OFFCURVE",
"176 30 CURVE SMOOTH",
"175 30 OFFCURVE",
"173 30 OFFCURVE",
"172 30 CURVE SMOOTH",
"160 28 OFFCURVE",
"149 36 OFFCURVE",
"139 42 CURVE SMOOTH",
"136 44 OFFCURVE",
"98 19 OFFCURVE",
"101 16 CURVE SMOOTH",
"109 6 OFFCURVE",
"123 -6 OFFCURVE",
"138 -6 CURVE"
);
}
);
width = 434;
}
);
note = question;
unicode = 003F;
},
{
glyphname = at;
lastChange = "2021-04-30 03:09:52 +0000";
layers = (
{
hints = (
{
horizontal = 1;
place = "{-10, 18}";
type = Stem;
},
{
horizontal = 1;
place = "{119, 29}";
type = Stem;
},
{
horizontal = 1;
place = "{383, 12}";
type = Stem;
},
{
place = "{20, 53}";
type = Stem;
},
{
place = "{328, 52}";
type = Stem;
},
{
place = "{621, 58}";
type = Stem;
}
);
layerId = "A626400C-4409-4FF6-B7A4-72C4E5A5721C";
paths = (
{
closed = 1;
nodes = (
"313 -113 LINE",
"426 -113 OFFCURVE",
"508 -98 OFFCURVE",
"590 -24 CURVE SMOOTH",
"601 -14 OFFCURVE",
"606 -2 OFFCURVE",
"606 6 CURVE SMOOTH",
"606 14 OFFCURVE",
"603 19 OFFCURVE",
"597 19 CURVE SMOOTH",
"592 19 OFFCURVE",
"586 16 OFFCURVE",
"578 8 CURVE SMOOTH",
"508 -67 OFFCURVE",
"415 -98 OFFCURVE",
"313 -98 CURVE SMOOTH",
"203 -98 OFFCURVE",
"117 -23 OFFCURVE",
"117 86 CURVE SMOOTH",
"119 272 OFFCURVE",
"292 407 OFFCURVE",
"465 407 CURVE SMOOTH",
"569 407 OFFCURVE",
"670 364 OFFCURVE",
"670 251 CURVE SMOOTH",
"670 108 OFFCURVE",
"528 42 OFFCURVE",
"460 42 CURVE SMOOTH",
"440 42 OFFCURVE",
"426 49 OFFCURVE",
"426 61 CURVE SMOOTH",
"426 100 OFFCURVE",
"496 220 OFFCURVE",
"515 251 CURVE SMOOTH",
"522 261 OFFCURVE",
"536 283 OFFCURVE",
"551 283 CURVE SMOOTH",
"555 283 OFFCURVE",
"560 287 OFFCURVE",
"560 291 CURVE SMOOTH",
"560 294 OFFCURVE",
"557 295 OFFCURVE",
"555 295 CURVE SMOOTH",
"440 296 LINE SMOOTH",
"413 296 OFFCURVE",
"387 286 OFFCURVE",
"365 270 CURVE SMOOTH",
"304 222 OFFCURVE",
"241 127 OFFCURVE",
"231 50 CURVE",
"231 42 LINE SMOOTH",
"231 30 OFFCURVE",
"235 21 OFFCURVE",
"249 21 CURVE SMOOTH",
"284 21 OFFCURVE",
"314 43 OFFCURVE",
"339 65 CURVE SMOOTH",
"365 86 OFFCURVE",
"390 110 OFFCURVE",
"413 135 CURVE",
"399 112 OFFCURVE",
"374 65 OFFCURVE",
"374 39 CURVE SMOOTH",
"374 24 OFFCURVE",
"384 19 OFFCURVE",
"398 19 CURVE SMOOTH",
"568 19 OFFCURVE",
"716 84 OFFCURVE",
"727 243 CURVE SMOOTH",
"736 376 OFFCURVE",
"595 430 OFFCURVE",
"456 430 CURVE SMOOTH",
"258 430 OFFCURVE",
"66 299 OFFCURVE",
"64 86 CURVE SMOOTH",
"64 -60 OFFCURVE",
"189 -113 OFFCURVE",
"313 -113 CURVE"
);
},
{
closed = 1;
nodes = (
"290 54 LINE",
"283 54 OFFCURVE",
"281 60 OFFCURVE",
"281 66 CURVE SMOOTH",
"281 108 OFFCURVE",
"350 219 OFFCURVE",
"381 248 CURVE SMOOTH",
"396 262 OFFCURVE",
"423 283 OFFCURVE",
"444 283 CURVE SMOOTH",
"457 283 OFFCURVE",
"468 278 OFFCURVE",
"468 264 CURVE SMOOTH",
"468 222 OFFCURVE",
"330 54 OFFCURVE",
"290 54 CURVE"
);
}
);
width = 707;
}
);
note = at;
unicode = 0040;
},
{
glyphname = A;
lastChange = "2021-04-30 03:09:52 +0000";
layers = (
{
anchors = (
{
name = bottom;
position = "{412, 0}";
},
{
name = ogonek;
position = "{667, 0}";
},
{
name = top;
position = "{849, 577}";
}
);
hints = (
{
horizontal = 1;
place = "{-136, 22}";
type = Stem;
},
{
horizontal = 1;
place = "{180, 32}";
type = Stem;
},
{
horizontal = 1;
place = "{583, 18}";
type = Stem;
}
);
layerId = "A626400C-4409-4FF6-B7A4-72C4E5A5721C";
paths = (
{
closed = 1;
nodes = (
"87 -25 LINE",
"214 -25 OFFCURVE",
"360 103 OFFCURVE",
"484 231 CURVE",
"504 230 OFFCURVE",
"525 230 OFFCURVE",
"546 230 CURVE SMOOTH",
"571 230 OFFCURVE",
"597 230 OFFCURVE",
"622 232 CURVE SMOOTH",
"663 235 OFFCURVE",
"679 276 OFFCURVE",
"679 276 CURVE",
"656 265 OFFCURVE",
"628 261 OFFCURVE",
"607 261 CURVE SMOOTH",
"576 261 OFFCURVE",
"545 262 OFFCURVE",
"515 263 CURVE",
"577 330 OFFCURVE",
"632 394 OFFCURVE",
"674 437 CURVE SMOOTH",
"726 490 OFFCURVE",
"799 529 OFFCURVE",
"831 530 CURVE",
"789 473 OFFCURVE",
"685 282 OFFCURVE",
"631 168 CURVE SMOOTH",
"618 140 OFFCURVE",
"598 90 OFFCURVE",
"598 51 CURVE SMOOTH",
"598 8 OFFCURVE",
"624 -9 OFFCURVE",
"651 -9 CURVE SMOOTH",
"664 -9 OFFCURVE",
"678 -5 OFFCURVE",
"690 0 CURVE SMOOTH",
"747 25 OFFCURVE",
"800 102 OFFCURVE",
"815 122 CURVE SMOOTH",
"817 125 OFFCURVE",
"818 128 OFFCURVE",
"818 130 CURVE SMOOTH",
"818 133 OFFCURVE",
"816 135 OFFCURVE",
"814 135 CURVE SMOOTH",
"812 135 OFFCURVE",
"809 133 OFFCURVE",
"807 130 CURVE SMOOTH",
"802 123 OFFCURVE",
"776 86 OFFCURVE",
"741 53 CURVE SMOOTH",
"723 36 OFFCURVE",
"704 22 OFFCURVE",
"687 15 CURVE SMOOTH",
"680 12 OFFCURVE",
"674 11 OFFCURVE",
"669 11 CURVE SMOOTH",
"655 11 OFFCURVE",
"650 22 OFFCURVE",
"650 38 CURVE SMOOTH",
"650 77 OFFCURVE",
"681 146 OFFCURVE",
"686 158 CURVE SMOOTH",
"742 283 OFFCURVE",
"859 492 OFFCURVE",
"905 538 CURVE SMOOTH",
"928 562 OFFCURVE",
"940 563 OFFCURVE",
"953 563 CURVE SMOOTH",
"968 563 OFFCURVE",
"973 566 OFFCURVE",
"973 568 CURVE SMOOTH",
"973 572 OFFCURVE",
"964 577 OFFCURVE",
"957 577 CURVE SMOOTH",
"930 577 OFFCURVE",
"890 559 OFFCURVE",
"857 544 CURVE",
"858 545 OFFCURVE",
"857 545 OFFCURVE",
"856 545 CURVE SMOOTH",
"807 545 OFFCURVE",
"763 545 OFFCURVE",
"747 545 CURVE SMOOTH",
"667 545 OFFCURVE",
"477 547 OFFCURVE",
"462 443 CURVE SMOOTH",
"459 425 OFFCURVE",
"472 389 OFFCURVE",
"485 380 CURVE SMOOTH",
"489 377 OFFCURVE",
"502 384 OFFCURVE",
"502 388 CURVE",
"502 388 OFFCURVE",
"502 389 OFFCURVE",
"501 389 CURVE",
"493 394 OFFCURVE",
"490 403 OFFCURVE",
"490 415 CURVE SMOOTH",
"490 433 OFFCURVE",
"500 457 OFFCURVE",
"520 475 CURVE SMOOTH",
"567 515 OFFCURVE",
"662 521 OFFCURVE",
"733 521 CURVE SMOOTH",
"788 521 LINE",
"733 506 OFFCURVE",
"680 469 OFFCURVE",
"633 420 CURVE SMOOTH",
"599 384 OFFCURVE",
"544 326 OFFCURVE",
"481 265 CURVE",
"440 267 OFFCURVE",
"404 268 OFFCURVE",
"379 268 CURVE SMOOTH",
"331 268 OFFCURVE",
"284 255 OFFCURVE",
"240 236 CURVE SMOOTH",
"211 223 OFFCURVE",
"168 209 OFFCURVE",
"168 177 CURVE SMOOTH",
"168 173 OFFCURVE",
"168 170 OFFCURVE",
"169 167 CURVE SMOOTH",
"173 152 OFFCURVE",
"192 153 OFFCURVE",
"197 151 CURVE",
"195 156 OFFCURVE",
"195 161 OFFCURVE",
"195 166 CURVE SMOOTH",
"195 184 OFFCURVE",
"204 205 OFFCURVE",
"213 214 CURVE SMOOTH",
"235 236 OFFCURVE",
"284 239 OFFCURVE",
"314 239 CURVE SMOOTH",
"348 239 OFFCURVE",
"395 235 OFFCURVE",
"447 233 CURVE",
"330 124 OFFCURVE",
"193 17 OFFCURVE",
"96 17 CURVE SMOOTH",
"62 17 OFFCURVE",
"40 31 OFFCURVE",
"40 61 CURVE SMOOTH",
"40 74 OFFCURVE",
"44 90 OFFCURVE",
"53 109 CURVE SMOOTH",
"55 113 OFFCURVE",
"54 117 OFFCURVE",
"52 117 CURVE SMOOTH",
"49 117 OFFCURVE",
"45 114 OFFCURVE",
"40 103 CURVE SMOOTH",
"31 84 OFFCURVE",
"22 64 OFFCURVE",
"21 47 CURVE SMOOTH",
"16 -1 OFFCURVE",
"46 -25 OFFCURVE",
"87 -25 CURVE"
);
}
);
width = 768;
}
);
note = A;
unicode = 0041;
},
{
glyphname = B;
lastChange = "2021-04-30 03:09:52 +0000";
layers = (
{
hints = (
{
horizontal = 1;
place = "{565, 16}";
type = Stem;
},
{
place = "{36, 35}";
type = Stem;
}
);
layerId = "A626400C-4409-4FF6-B7A4-72C4E5A5721C";
paths = (
{
closed = 1;
nodes = (
"11 -19 LINE",
"13 -19 OFFCURVE",
"15 -19 OFFCURVE",
"17 -18 CURVE SMOOTH",
"43 -9 OFFCURVE",
"65 9 OFFCURVE",
"79 15 CURVE SMOOTH",
"91 21 OFFCURVE",
"100 23 OFFCURVE",
"109 23 CURVE SMOOTH",
"120 23 OFFCURVE",
"128 19 OFFCURVE",
"138 14 CURVE SMOOTH",
"182 -9 OFFCURVE",
"239 -17 OFFCURVE",
"288 -17 CURVE SMOOTH",
"329 -17 OFFCURVE",
"366 -11 OFFCURVE",
"398 1 CURVE SMOOTH",
"474 29 OFFCURVE",
"551 94 OFFCURVE",
"551 181 CURVE SMOOTH",
"551 231 OFFCURVE",
"515 261 OFFCURVE",
"469 271 CURVE SMOOTH",
"455 274 OFFCURVE",
"435 276 OFFCURVE",
"429 277 CURVE SMOOTH",
"426 277 OFFCURVE",
"427 283 OFFCURVE",
"429 283 CURVE",
"461 290 OFFCURVE",
"483 301 OFFCURVE",
"503 315 CURVE SMOOTH",
"523 328 OFFCURVE",
"539 343 OFFCURVE",
"551 358 CURVE SMOOTH",
"570 382 OFFCURVE",
"585 417 OFFCURVE",
"585 451 CURVE SMOOTH",
"585 468 OFFCURVE",
"581 484 OFFCURVE",
"572 499 CURVE SMOOTH",
"546 540 OFFCURVE",
"480 546 OFFCURVE",
"426 546 CURVE SMOOTH",
"410 546 OFFCURVE",
"395 545 OFFCURVE",
"383 545 CURVE SMOOTH",
"333 545 OFFCURVE",
"268 544 OFFCURVE",
"226 544 CURVE SMOOTH",
"171 544 OFFCURVE",
"64 542 OFFCURVE",
"64 473 CURVE SMOOTH",
"64 466 OFFCURVE",
"65 459 OFFCURVE",
"67 451 CURVE SMOOTH",
"71 434 OFFCURVE",
"93 401 OFFCURVE",
"105 394 CURVE SMOOTH",
"109 392 OFFCURVE",
"115 396 OFFCURVE",
"115 399 CURVE SMOOTH",
"115 400 OFFCURVE",
"115 401 OFFCURVE",
"114 401 CURVE",
"103 408 OFFCURVE",
"98 420 OFFCURVE",
"98 434 CURVE SMOOTH",
"98 446 OFFCURVE",
"102 458 OFFCURVE",
"108 470 CURVE SMOOTH",
"132 515 OFFCURVE",
"260 532 OFFCURVE",
"342 532 CURVE SMOOTH",
"351 532 OFFCURVE",
"359 531 OFFCURVE",
"367 531 CURVE",
"344 523 OFFCURVE",
"317 508 OFFCURVE",
"308 491 CURVE SMOOTH",
"295 468 OFFCURVE",
"271 412 OFFCURVE",
"240 357 CURVE SMOOTH",
"208 298 OFFCURVE",
"176 239 OFFCURVE",
"144 180 CURVE SMOOTH",
"119 132 OFFCURVE",
"92 85 OFFCURVE",
"64 38 CURVE SMOOTH",
"50 13 OFFCURVE",
"29 -5 OFFCURVE",
"0 -10 CURVE",
"-5 -13 OFFCURVE",
"1 -19 OFFCURVE",
"11 -19 CURVE"
);
},
{
closed = 1;
nodes = (
"256 -3 LINE",
"225 -3 OFFCURVE",
"194 4 OFFCURVE",
"171 21 CURVE SMOOTH",
"155 33 OFFCURVE",
"146 45 OFFCURVE",
"146 60 CURVE SMOOTH",
"146 67 OFFCURVE",
"148 75 OFFCURVE",
"152 83 CURVE SMOOTH",
"183 145 OFFCURVE",
"215 207 OFFCURVE",
"246 267 CURVE SMOOTH",
"284 341 OFFCURVE",
"327 439 OFFCURVE",
"378 505 CURVE SMOOTH",
"393 524 OFFCURVE",
"427 529 OFFCURVE",
"453 529 CURVE SMOOTH",
"460 529 OFFCURVE",
"467 529 OFFCURVE",
"472 528 CURVE SMOOTH",
"513 522 OFFCURVE",
"531 490 OFFCURVE",
"531 452 CURVE SMOOTH",
"531 435 OFFCURVE",
"528 418 OFFCURVE",
"522 401 CURVE SMOOTH",
"486 300 OFFCURVE",
"420 292 OFFCURVE",
"322 292 CURVE SMOOTH",
"317 292 OFFCURVE",
"306 284 OFFCURVE",
"303 281 CURVE SMOOTH",
"292 272 OFFCURVE",
"266 253 OFFCURVE",
"275 250 CURVE",
"289 254 OFFCURVE",
"307 258 OFFCURVE",
"325 261 CURVE SMOOTH",
"343 265 OFFCURVE",
"367 268 OFFCURVE",
"392 268 CURVE SMOOTH",
"442 268 OFFCURVE",
"493 253 OFFCURVE",
"493 196 CURVE SMOOTH",
"493 108 OFFCURVE",
"428 44 OFFCURVE",
"355 16 CURVE SMOOTH",
"327 5 OFFCURVE",
"291 -3 OFFCURVE",
"256 -3 CURVE"
);
}
);
width = 562;
}
);
note = B;
unicode = 0042;
},
{
glyphname = C;
lastChange = "2021-04-30 03:09:52 +0000";
layers = (
{
anchors = (
{
name = bottom;
position = "{251, -24}";
},
{
name = top;
position = "{461, 549}";
}
);
hints = (
{
horizontal = 1;
place = "{568, 18}";
type = Stem;
}
);
layerId = "A626400C-4409-4FF6-B7A4-72C4E5A5721C";
paths = (
{
closed = 1;
nodes = (
"248 -29 LINE",
"307 -29 OFFCURVE",
"368 -16 OFFCURVE",
"412 2 CURVE SMOOTH",
"477 29 OFFCURVE",
"535 69 OFFCURVE",
"581 130 CURVE SMOOTH",
"587 138 OFFCURVE",
"589 145 OFFCURVE",
"589 149 CURVE SMOOTH",
"589 151 OFFCURVE",
"588 153 OFFCURVE",
"586 153 CURVE SMOOTH",
"584 153 OFFCURVE",
"582 151 OFFCURVE",
"579 148 CURVE SMOOTH",
"530 87 OFFCURVE",
"474 51 OFFCURVE",
"404 24 CURVE SMOOTH",
"363 8 OFFCURVE",
"310 -4 OFFCURVE",
"260 -4 CURVE SMOOTH",
"174 -4 OFFCURVE",
"97 31 OFFCURVE",
"97 137 CURVE SMOOTH",
"97 240 OFFCURVE",
"165 369 OFFCURVE",
"259 452 CURVE SMOOTH",
"293 481 OFFCURVE",
"331 504 OFFCURVE",
"370 518 CURVE SMOOTH",
"392 526 OFFCURVE",
"425 534 OFFCURVE",
"456 534 CURVE SMOOTH",
"488 534 OFFCURVE",
"518 526 OFFCURVE",
"532 502 CURVE SMOOTH",
"540 490 OFFCURVE",
"543 472 OFFCURVE",
"543 454 CURVE SMOOTH",
"543 428 OFFCURVE",
"537 401 OFFCURVE",
"526 384 CURVE SMOOTH",
"523 378 OFFCURVE",
"543 383 OFFCURVE",
"545 389 CURVE SMOOTH",
"555 418 OFFCURVE",
"581 447 OFFCURVE",
"586 468 CURVE SMOOTH",
"587 471 OFFCURVE",
"587 475 OFFCURVE",
"587 478 CURVE SMOOTH",
"587 501 OFFCURVE",
"569 519 OFFCURVE",
"543 531 CURVE SMOOTH",
"512 546 OFFCURVE",
"484 549 OFFCURVE",
"451 549 CURVE SMOOTH",
"371 549 OFFCURVE",
"285 516 OFFCURVE",
"224 470 CURVE SMOOTH",
"120 391 OFFCURVE",
"38 265 OFFCURVE",
"38 135 CURVE SMOOTH",
"38 12 OFFCURVE",
"141 -29 OFFCURVE",
"248 -29 CURVE"
);
}
);
width = 527;
}
);
note = C;
unicode = 0043;
},
{
glyphname = D;
lastChange = "2021-04-30 03:09:52 +0000";
layers = (
{
anchors = (
{
name = bottom;
position = "{242, -15}";
},
{
name = center;
position = "{313, 289}";
},
{
name = top;
position = "{476, 544}";
}
);
hints = (
{
horizontal = 1;
place = "{-2, 18}";
type = Stem;
},
{
horizontal = 1;
place = "{514, 18}";
type = Stem;
}
);
layerId = "A626400C-4409-4FF6-B7A4-72C4E5A5721C";
paths = (
{
closed = 1;
nodes = (
"10 -19 LINE",
"39 -19 OFFCURVE",
"73 23 OFFCURVE",
"108 23 CURVE SMOOTH",
"119 23 OFFCURVE",
"128 19 OFFCURVE",
"138 14 CURVE SMOOTH",
"179 -7 OFFCURVE",
"228 -16 OFFCURVE",
"274 -16 CURVE SMOOTH",
"422 -16 OFFCURVE",
"534 44 OFFCURVE",
"616 167 CURVE SMOOTH",
"654 224 OFFCURVE",
"684 302 OFFCURVE",
"684 371 CURVE SMOOTH",
"684 523 OFFCURVE",
"551 549 OFFCURVE",
"427 549 CURVE SMOOTH",
"361 549 OFFCURVE",
"295 544 OFFCURVE",
"228 544 CURVE SMOOTH",
"179 544 OFFCURVE",
"64 544 OFFCURVE",
"64 473 CURVE SMOOTH",
"64 465 OFFCURVE",
"65 458 OFFCURVE",
"67 451 CURVE SMOOTH",
"70 440 OFFCURVE",
"96 393 OFFCURVE",
"108 393 CURVE SMOOTH",
"111 393 OFFCURVE",
"116 396 OFFCURVE",
"116 399 CURVE SMOOTH",
"116 402 OFFCURVE",
"98 408 OFFCURVE",
"98 435 CURVE SMOOTH",
"98 447 OFFCURVE",
"102 459 OFFCURVE",
"108 470 CURVE SMOOTH",
"136 522 OFFCURVE",
"290 531 OFFCURVE",
"343 531 CURVE SMOOTH",
"351 531 OFFCURVE",
"359 531 OFFCURVE",
"367 531 CURVE",
"346 524 OFFCURVE",
"319 510 OFFCURVE",
"308 491 CURVE SMOOTH",
"299 476 OFFCURVE",
"292 460 OFFCURVE",
"285 444 CURVE SMOOTH",
"270 415 OFFCURVE",
"256 385 OFFCURVE",
"240 357 CURVE SMOOTH",
"182 250 OFFCURVE",
"127 142 OFFCURVE",
"64 38 CURVE SMOOTH",
"52 17 OFFCURVE",
"36 1 OFFCURVE",
"13 -7 CURVE SMOOTH",
"0 -11 OFFCURVE",
"13 -6 OFFCURVE",
"0 -10 CURVE",
"0 -10 OFFCURVE",
"-2 -12 OFFCURVE",
"-2 -13 CURVE SMOOTH",
"-2 -17 OFFCURVE",
"7 -19 OFFCURVE",
"10 -19 CURVE"
);
},
{
closed = 1;
nodes = (
"262 -2 LINE",
"232 -2 OFFCURVE",
"196 2 OFFCURVE",
"171 21 CURVE SMOOTH",
"159 31 OFFCURVE",
"146 43 OFFCURVE",
"146 60 CURVE SMOOTH",
"146 69 OFFCURVE",
"149 76 OFFCURVE",
"152 83 CURVE SMOOTH",
"161 102 OFFCURVE",
"171 121 OFFCURVE",
"181 140 CURVE SMOOTH",
"202 182 OFFCURVE",
"224 225 OFFCURVE",
"246 267 CURVE SMOOTH",
"274 322 OFFCURVE",
"300 379 OFFCURVE",
"331 433 CURVE SMOOTH",
"345 457 OFFCURVE",
"360 484 OFFCURVE",
"378 505 CURVE SMOOTH",
"395 525 OFFCURVE",
"426 528 OFFCURVE",
"451 528 CURVE SMOOTH",
"553 528 OFFCURVE",
"623 469 OFFCURVE",
"623 365 CURVE SMOOTH",
"623 319 OFFCURVE",
"610 272 OFFCURVE",
"593 229 CURVE SMOOTH",
"537 92 OFFCURVE",
"412 -2 OFFCURVE",
"262 -2 CURVE"
);
}
);
width = 626;
}
);
note = D;
unicode = 0044;
},
{
glyphname = E;
lastChange = "2021-04-30 03:09:52 +0000";
layers = (
{
anchors = (
{
name = bottom;
position = "{239, 0}";
},
{
name = ogonek;
position = "{255, -10}";
},
{
name = top;
position = "{438, 544}";
},
{
name = topleft;
position = "{20, 577}";
}
);
hints = (
{
horizontal = 1;
place = "{272, 21}";
target = up;
type = BottomGhost;
},
{
horizontal = 1;
place = "{471, 27}";
type = Stem;
},
{
horizontal = 1;
place = "{573, 18}";
type = Stem;
}
);
layerId = "A626400C-4409-4FF6-B7A4-72C4E5A5721C";
paths = (
{
closed = 1;
nodes = (
"234 -12 LINE",
"310 -12 OFFCURVE",
"378 -5 OFFCURVE",
"406 3 CURVE SMOOTH",
"445 15 OFFCURVE",
"483 70 OFFCURVE",
"524 121 CURVE SMOOTH",
"527 125 OFFCURVE",
"525 135 OFFCURVE",
"521 135 CURVE SMOOTH",
"520 135 OFFCURVE",
"519 134 OFFCURVE",
"518 133 CURVE SMOOTH",
"444 39 OFFCURVE",
"326 8 OFFCURVE",
"211 8 CURVE SMOOTH",
"155 9 OFFCURVE",
"111 22 OFFCURVE",
"111 63 CURVE SMOOTH",
"111 99 OFFCURVE",
"144 161 OFFCURVE",
"160 192 CURVE SMOOTH",
"175 219 OFFCURVE",
"183 236 OFFCURVE",
"196 260 CURVE SMOOTH",
"199 265 OFFCURVE",
"203 267 OFFCURVE",
"210 268 CURVE SMOOTH",
"227 269 OFFCURVE",
"241 269 OFFCURVE",
"255 269 CURVE SMOOTH",
"309 269 OFFCURVE",
"346 265 OFFCURVE",
"412 265 CURVE SMOOTH",
"444 265 OFFCURVE",
"469 311 OFFCURVE",
"458 311 CURVE SMOOTH",
"457 311 OFFCURVE",
"455 310 OFFCURVE",
"452 308 CURVE SMOOTH",
"435 299 OFFCURVE",
"390 296 OFFCURVE",
"377 295 CURVE SMOOTH",
"336 294 OFFCURVE",
"276 296 OFFCURVE",
"230 296 CURVE SMOOTH",
"224 296 OFFCURVE",
"221 298 OFFCURVE",
"221 302 CURVE SMOOTH",
"221 303 OFFCURVE",
"221 305 OFFCURVE",
"222 307 CURVE SMOOTH",
"259 371 OFFCURVE",
"300 446 OFFCURVE",
"344 508 CURVE SMOOTH",
"354 521 OFFCURVE",
"369 527 OFFCURVE",
"398 529 CURVE SMOOTH",
"416 530 OFFCURVE",
"435 531 OFFCURVE",
"452 531 CURVE SMOOTH",
"475 531 OFFCURVE",
"495 529 OFFCURVE",
"505 526 CURVE SMOOTH",
"529 518 OFFCURVE",
"536 497 OFFCURVE",
"536 473 CURVE SMOOTH",
"536 460 OFFCURVE",
"534 445 OFFCURVE",
"531 433 CURVE SMOOTH",
"528 421 OFFCURVE",
"545 428 OFFCURVE",
"551 439 CURVE SMOOTH",
"563 461 OFFCURVE",
"581 491 OFFCURVE",
"581 513 CURVE SMOOTH",
"581 530 OFFCURVE",
"570 543 OFFCURVE",
"537 545 CURVE SMOOTH",
"507 547 OFFCURVE",
"477 547 OFFCURVE",
"447 547 CURVE SMOOTH",
"377 547 OFFCURVE",
"307 544 OFFCURVE",
"236 544 CURVE SMOOTH",
"181 544 OFFCURVE",
"75 542 OFFCURVE",
"75 473 CURVE SMOOTH",
"75 467 OFFCURVE",
"76 459 OFFCURVE",
"78 451 CURVE SMOOTH",
"82 434 OFFCURVE",
"104 401 OFFCURVE",
"116 394 CURVE SMOOTH",
"120 392 OFFCURVE",
"126 396 OFFCURVE",
"126 399 CURVE SMOOTH",
"126 400 OFFCURVE",
"126 401 OFFCURVE",
"125 401 CURVE",
"114 408 OFFCURVE",
"109 420 OFFCURVE",
"109 434 CURVE SMOOTH",
"109 446 OFFCURVE",
"113 458 OFFCURVE",
"119 470 CURVE SMOOTH",
"147 523 OFFCURVE",
"279 526 OFFCURVE",
"336 529 CURVE",
"312 523 OFFCURVE",
"287 501 OFFCURVE",
"275 482 CURVE SMOOTH",
"249 442 OFFCURVE",
"222 393 OFFCURVE",
"206 364 CURVE SMOOTH",
"154 272 OFFCURVE",
"100 181 OFFCURVE",
"49 89 CURVE SMOOTH",
"38 70 OFFCURVE",
"33 54 OFFCURVE",
"33 41 CURVE SMOOTH",
"33 13 OFFCURVE",
"58 -1 OFFCURVE",
"104 -5 CURVE SMOOTH",
"146 -10 OFFCURVE",
"191 -12 OFFCURVE",
"234 -12 CURVE"
);
}
);
width = 478;
}
);
note = E;
unicode = 0045;
},
{
glyphname = F;
lastChange = "2021-04-30 03:09:52 +0000";
layers = (
{
hints = (
{
horizontal = 1;
place = "{205, 29}";
type = Stem;
},
{
horizontal = 1;
place = "{537, 15}";
type = Stem;
}
);
layerId = "A626400C-4409-4FF6-B7A4-72C4E5A5721C";
paths = (
{
closed = 1;
nodes = (
"141 -38 LINE",
"187 -38 OFFCURVE",
"233 -13 OFFCURVE",
"267 23 CURVE SMOOTH",
"326 86 OFFCURVE",
"368 182 OFFCURVE",
"407 260 CURVE SMOOTH",
"410 265 OFFCURVE",
"414 268 OFFCURVE",
"421 268 CURVE SMOOTH",
"577 268 LINE SMOOTH",
"587 268 OFFCURVE",
"591 261 OFFCURVE",
"591 252 CURVE SMOOTH",
"591 238 OFFCURVE",
"583 218 OFFCURVE",
"578 206 CURVE SMOOTH",
"575 200 OFFCURVE",
"591 206 OFFCURVE",
"593 212 CURVE SMOOTH",
"599 228 OFFCURVE",
"612 242 OFFCURVE",
"622 263 CURVE SMOOTH",
"625 270 OFFCURVE",
"627 275 OFFCURVE",
"627 279 CURVE SMOOTH",
"627 293 OFFCURVE",
"608 295 OFFCURVE",
"579 295 CURVE SMOOTH",
"539 295 OFFCURVE",
"465 296 OFFCURVE",
"438 296 CURVE SMOOTH",
"432 296 OFFCURVE",
"429 298 OFFCURVE",
"429 301 CURVE SMOOTH",
"429 303 OFFCURVE",
"429 305 OFFCURVE",
"430 307 CURVE SMOOTH",
"459 369 OFFCURVE",
"505 476 OFFCURVE",
"547 508 CURVE SMOOTH",
"570 525 OFFCURVE",
"614 533 OFFCURVE",
"654 533 CURVE SMOOTH",
"675 533 OFFCURVE",
"694 531 OFFCURVE",
"708 526 CURVE SMOOTH",
"731 518 OFFCURVE",
"739 497 OFFCURVE",
"739 473 CURVE SMOOTH",
"739 460 OFFCURVE",
"736 445 OFFCURVE",
"733 433 CURVE SMOOTH",
"730 421 OFFCURVE",
"748 428 OFFCURVE",
"753 439 CURVE SMOOTH",
"765 461 OFFCURVE",
"784 490 OFFCURVE",
"784 513 CURVE SMOOTH",
"784 530 OFFCURVE",
"773 543 OFFCURVE",
"739 545 CURVE SMOOTH",
"691 548 OFFCURVE",
"650 549 OFFCURVE",
"603 549 CURVE SMOOTH",
"557 549 OFFCURVE",
"505 548 OFFCURVE",
"437 548 CURVE SMOOTH",
"365 548 OFFCURVE",
"193 547 OFFCURVE",
"193 467 CURVE SMOOTH",
"193 460 OFFCURVE",
"195 452 OFFCURVE",
"198 443 CURVE SMOOTH",
"204 425 OFFCURVE",
"234 389 OFFCURVE",
"251 380 CURVE",
"257 378 OFFCURVE",
"266 383 OFFCURVE",
"266 387 CURVE SMOOTH",
"266 388 OFFCURVE",
"265 388 OFFCURVE",
"264 389 CURVE",
"246 398 OFFCURVE",
"234 417 OFFCURVE",
"234 438 CURVE SMOOTH",
"234 448 OFFCURVE",
"237 459 OFFCURVE",
"243 468 CURVE SMOOTH",
"269 506 OFFCURVE",
"355 522 OFFCURVE",
"432 527 CURVE SMOOTH",
"462 529 OFFCURVE",
"535 532 OFFCURVE",
"549 532 CURVE",
"524 522 OFFCURVE",
"481 499 OFFCURVE",
"460 458 CURVE SMOOTH",
"404 348 OFFCURVE",
"306 130 OFFCURVE",
"253 72 CURVE SMOOTH",
"215 31 OFFCURVE",
"171 0 OFFCURVE",
"124 0 CURVE SMOOTH",
"77 0 OFFCURVE",
"42 33 OFFCURVE",
"42 96 CURVE SMOOTH",
"42 104 OFFCURVE",
"43 112 OFFCURVE",
"43 120 CURVE SMOOTH",
"43 122 OFFCURVE",
"42 122 OFFCURVE",
"41 122 CURVE SMOOTH",
"33 122 OFFCURVE",
"32 112 OFFCURVE",
"32 103 CURVE SMOOTH",
"32 98 OFFCURVE",
"32 93 OFFCURVE",
"32 90 CURVE SMOOTH",
"32 71 OFFCURVE",
"33 50 OFFCURVE",
"40 33 CURVE SMOOTH",
"58 -15 OFFCURVE",
"100 -38 OFFCURVE",
"141 -38 CURVE"
);
}
);
width = 582;
}
);
note = F;
unicode = 0046;
},
{
glyphname = G;
lastChange = "2021-04-30 03:09:52 +0000";
layers = (
{
anchors = (
{
name = bottom;
position = "{188, -325}";
},
{
name = top;
position = "{455, 561}";
}
);
hints = (
{
horizontal = 1;
place = "{208, 15}";
type = Stem;
},
{
horizontal = 1;
place = "{467, 16}";
type = Stem;
}
);
layerId = "A626400C-4409-4FF6-B7A4-72C4E5A5721C";
paths = (
{
closed = 1;
nodes = (
"178 -348 LINE",
"232 -348 OFFCURVE",
"304 -318 OFFCURVE",
"347 -282 CURVE SMOOTH",
"466 -179 OFFCURVE",
"487 -41 OFFCURVE",
"528 101 CURVE SMOOTH",
"544 153 OFFCURVE",
"556 200 OFFCURVE",
"585 238 CURVE SMOOTH",
"600 257 OFFCURVE",
"625 261 OFFCURVE",
"644 261 CURVE",
"655 273 LINE",
"465 273 LINE SMOOTH",
"449 273 OFFCURVE",
"420 276 OFFCURVE",
"391 276 CURVE SMOOTH",
"359 276 OFFCURVE",
"326 272 OFFCURVE",
"310 258 CURVE SMOOTH",
"295 245 OFFCURVE",
"295 225 OFFCURVE",
"296 214 CURVE SMOOTH",
"297 202 OFFCURVE",
"313 180 OFFCURVE",
"323 163 CURVE",
"332 169 LINE",
"330 174 OFFCURVE",
"327 185 OFFCURVE",
"327 195 CURVE SMOOTH",
"327 251 OFFCURVE",
"424 254 OFFCURVE",
"455 254 CURVE SMOOTH",
"558 254 LINE",
"511 114 OFFCURVE",
"407 -13 OFFCURVE",
"245 -13 CURVE SMOOTH",
"166 -13 OFFCURVE",
"97 31 OFFCURVE",
"97 137 CURVE SMOOTH",
"97 240 OFFCURVE",
"165 369 OFFCURVE",
"259 452 CURVE SMOOTH",
"293 481 OFFCURVE",
"331 504 OFFCURVE",
"370 518 CURVE SMOOTH",
"392 526 OFFCURVE",
"425 534 OFFCURVE",
"456 534 CURVE SMOOTH",
"488 534 OFFCURVE",
"518 526 OFFCURVE",
"532 502 CURVE SMOOTH",
"540 490 OFFCURVE",
"543 472 OFFCURVE",
"543 454 CURVE SMOOTH",
"543 428 OFFCURVE",
"537 401 OFFCURVE",
"526 384 CURVE SMOOTH",
"523 378 OFFCURVE",
"543 383 OFFCURVE",
"545 389 CURVE SMOOTH",
"555 418 OFFCURVE",
"581 447 OFFCURVE",
"586 468 CURVE SMOOTH",
"587 471 OFFCURVE",
"587 475 OFFCURVE",
"587 478 CURVE SMOOTH",
"587 501 OFFCURVE",
"569 519 OFFCURVE",
"543 531 CURVE SMOOTH",
"512 546 OFFCURVE",
"484 549 OFFCURVE",
"451 549 CURVE SMOOTH",
"371 549 OFFCURVE",
"285 516 OFFCURVE",
"224 470 CURVE SMOOTH",
"120 391 OFFCURVE",
"38 265 OFFCURVE",
"38 135 CURVE SMOOTH",
"38 23 OFFCURVE",
"133 -32 OFFCURVE",
"240 -32 CURVE SMOOTH",
"340 -32 OFFCURVE",
"462 32 OFFCURVE",
"515 111 CURVE",
"472 2 OFFCURVE",
"443 -93 OFFCURVE",
"359 -196 CURVE SMOOTH",
"302 -268 OFFCURVE",
"231 -312 OFFCURVE",
"147 -312 CURVE SMOOTH",
"88 -312 OFFCURVE",
"44 -280 OFFCURVE",
"44 -218 CURVE SMOOTH",
"44 -209 OFFCURVE",
"46 -201 OFFCURVE",
"46 -193 CURVE SMOOTH",
"46 -191 OFFCURVE",
"45 -191 OFFCURVE",
"44 -191 CURVE SMOOTH",
"33 -191 OFFCURVE",
"32 -202 OFFCURVE",
"32 -212 CURVE SMOOTH",
"32 -216 OFFCURVE",
"32 -220 OFFCURVE",
"32 -223 CURVE SMOOTH",
"32 -242 OFFCURVE",
"33 -262 OFFCURVE",
"42 -279 CURVE SMOOTH",
"65 -327 OFFCURVE",
"127 -348 OFFCURVE",
"178 -348 CURVE"
);
}
);
width = 576;
}
);
note = G;
unicode = 0047;
},
{
glyphname = H;
lastChange = "2021-04-30 03:09:52 +0000";
layers = (
{
anchors = (
{
name = bottom;
position = "{382, 0}";
},
{
name = center;
position = "{385, 289}";
},
{
name = top;
position = "{699, 577}";
},
{
name = topleft;
position = "{20, 577}";
}
);
guideLines = (
{
angle = 63;
position = "{420, 84}";
}
);
hints = (
{
horizontal = 1;
place = "{203, 18}";
type = Stem;
},
{
horizontal = 1;
place = "{254, 27}";
type = Stem;
},
{
horizontal = 1;
place = "{526, 33}";
type = Stem;
},
{
place = "{303, 38}";
type = Stem;
}
);
layerId = "A626400C-4409-4FF6-B7A4-72C4E5A5721C";
paths = (
{
closed = 1;
nodes = (
"114 -20 LINE",
"160 -20 OFFCURVE",
"210 5 OFFCURVE",
"244 41 CURVE SMOOTH",
"287 87 OFFCURVE",
"326 166 OFFCURVE",
"364 242 CURVE",
"388 242 OFFCURVE",
"405 242 OFFCURVE",
"412 242 CURVE SMOOTH",
"495 242 OFFCURVE",
"543 242 OFFCURVE",
"584 238 CURVE SMOOTH",
"600 237 OFFCURVE",
"619 248 OFFCURVE",
"632 260 CURVE",
"597 191 OFFCURVE",
"568 130 OFFCURVE",
"556 99 CURVE SMOOTH",
"552 88 OFFCURVE",
"550 77 OFFCURVE",
"550 67 CURVE SMOOTH",
"550 24 OFFCURVE",
"584 -10 OFFCURVE",
"626 -10 CURVE SMOOTH",
"652 -10 OFFCURVE",
"678 -4 OFFCURVE",
"699 7 CURVE SMOOTH",
"754 37 OFFCURVE",
"796 92 OFFCURVE",
"821 128 CURVE SMOOTH",
"823 131 OFFCURVE",
"824 136 OFFCURVE",
"824 139 CURVE SMOOTH",
"824 143 OFFCURVE",
"823 146 OFFCURVE",
"821 146 CURVE SMOOTH",
"820 146 OFFCURVE",
"819 145 OFFCURVE",
"817 142 CURVE SMOOTH",
"793 110 OFFCURVE",
"753 56 OFFCURVE",
"705 29 CURVE SMOOTH",
"688 20 OFFCURVE",
"664 10 OFFCURVE",
"643 10 CURVE SMOOTH",
"613 10 OFFCURVE",
"605 28 OFFCURVE",
"605 50 CURVE SMOOTH",
"605 60 OFFCURVE",
"607 72 OFFCURVE",
"609 82 CURVE SMOOTH",
"629 163 OFFCURVE",
"798 480 OFFCURVE",
"856 538 CURVE SMOOTH",
"879 562 OFFCURVE",
"891 563 OFFCURVE",
"905 563 CURVE SMOOTH",
"920 563 OFFCURVE",
"925 566 OFFCURVE",
"925 568 CURVE SMOOTH",
"925 572 OFFCURVE",
"916 577 OFFCURVE",
"909 577 CURVE SMOOTH",
"874 577 OFFCURVE",
"823 548 OFFCURVE",
"789 534 CURVE",
"760 497 OFFCURVE",
"697 384 OFFCURVE",
"643 281 CURVE",
"625 273 OFFCURVE",
"584 269 OFFCURVE",
"572 269 CURVE SMOOTH",
"558 269 OFFCURVE",
"543 269 OFFCURVE",
"526 269 CURVE SMOOTH",
"493 269 OFFCURVE",
"456 269 OFFCURVE",
"425 269 CURVE SMOOTH",
"422 269 OFFCURVE",
"404 270 OFFCURVE",
"379 271 CURVE",
"410 332 OFFCURVE",
"458 422 OFFCURVE",
"471 445 CURVE SMOOTH",
"500 496 OFFCURVE",
"537 530 OFFCURVE",
"578 534 CURVE SMOOTH",
"581 534 OFFCURVE",
"587 540 OFFCURVE",
"587 545 CURVE SMOOTH",
"587 547 OFFCURVE",
"585 549 OFFCURVE",
"581 549 CURVE SMOOTH",
"580 549 OFFCURVE",
"578 548 OFFCURVE",
"576 548 CURVE SMOOTH",
"553 544 OFFCURVE",
"515 544 OFFCURVE",
"465 544 CURVE SMOOTH",
"432 544 OFFCURVE",
"395 544 OFFCURVE",
"354 544 CURVE SMOOTH",
"299 544 OFFCURVE",
"193 542 OFFCURVE",
"193 473 CURVE SMOOTH",
"193 467 OFFCURVE",
"194 459 OFFCURVE",
"196 451 CURVE SMOOTH",
"200 434 OFFCURVE",
"222 401 OFFCURVE",
"234 394 CURVE SMOOTH",
"238 392 OFFCURVE",
"244 396 OFFCURVE",
"244 399 CURVE SMOOTH",
"244 400 OFFCURVE",
"244 400 OFFCURVE",
"243 401 CURVE SMOOTH",
"234 408 OFFCURVE",
"229 421 OFFCURVE",
"229 437 CURVE SMOOTH",
"229 448 OFFCURVE",
"231 459 OFFCURVE",
"237 470 CURVE SMOOTH",
"247 490 OFFCURVE",
"273 503 OFFCURVE",
"304 511 CURVE SMOOTH",
"372 530 OFFCURVE",
"450 526 OFFCURVE",
"521 529 CURVE",
"477 520 OFFCURVE",
"434 471 OFFCURVE",
"415 432 CURVE SMOOTH",
"391 384 OFFCURVE",
"363 326 OFFCURVE",
"334 273 CURVE",
"300 274 OFFCURVE",
"264 275 OFFCURVE",
"241 276 CURVE",
"220 274 OFFCURVE",
"163 228 OFFCURVE",
"187 232 CURVE SMOOTH",
"225 238 OFFCURVE",
"275 240 OFFCURVE",
"318 241 CURVE",
"286 179 OFFCURVE",
"256 123 OFFCURVE",
"226 90 CURVE SMOOTH",
"188 49 OFFCURVE",
"144 19 OFFCURVE",
"97 19 CURVE SMOOTH",
"50 19 OFFCURVE",
"15 51 OFFCURVE",
"15 114 CURVE SMOOTH",
"15 122 OFFCURVE",
"16 130 OFFCURVE",
"16 138 CURVE SMOOTH",
"16 140 OFFCURVE",
"15 140 OFFCURVE",
"14 140 CURVE SMOOTH",
"6 140 OFFCURVE",
"5 130 OFFCURVE",
"5 121 CURVE SMOOTH",
"5 116 OFFCURVE",
"5 111 OFFCURVE",
"5 108 CURVE SMOOTH",
"5 89 OFFCURVE",
"6 68 OFFCURVE",
"13 51 CURVE SMOOTH",
"31 4 OFFCURVE",
"73 -20 OFFCURVE",
"114 -20 CURVE"
);
}
);
width = 770;
}
);
note = H;
unicode = 0048;
},
{
glyphname = I;
lastChange = "2021-04-30 03:09:52 +0000";
layers = (
{
anchors = (
{
name = bottom;
position = "{106, 0}";
},
{
name = ogonek;
position = "{110, -5}";
},
{
name = top;
position = "{483, 542}";
},
{
name = topleft;
position = "{20, 577}";
}
);
hints = (
{
horizontal = 1;
place = "{-10, 38}";
type = Stem;
},
{
horizontal = 1;
place = "{519, 26}";
type = Stem;
},
{
place = "{10, 11}";
type = Stem;
},
{
place = "{277, 38}";
type = Stem;
},
{
horizontal = 1;
place = "{519, 23}";
type = Stem;
}
);
layerId = "A626400C-4409-4FF6-B7A4-72C4E5A5721C";
paths = (
{
closed = 1;
nodes = (
"120 -10 LINE",
"166 -10 OFFCURVE",
"223 19 OFFCURVE",
"256 55 CURVE SMOOTH",
"346 151 OFFCURVE",
"406 330 OFFCURVE",
"446 420 CURVE",
"449 425 OFFCURVE",
"452 430 OFFCURVE",
"455 435 CURVE SMOOTH",
"484 484 OFFCURVE",
"531 516 OFFCURVE",
"563 521 CURVE SMOOTH",
"589 526 OFFCURVE",
"617 528 OFFCURVE",
"630 528 CURVE",
"643 543 LINE",
"483 542 LINE SMOOTH",
"462 542 OFFCURVE",
"426 546 OFFCURVE",
"390 546 CURVE SMOOTH",
"352 546 OFFCURVE",
"314 542 OFFCURVE",
"294 525 CURVE SMOOTH",
"276 509 OFFCURVE",
"276 484 OFFCURVE",
"277 471 CURVE SMOOTH",
"279 456 OFFCURVE",
"305 417 OFFCURVE",
"317 396 CURVE",
"327 404 LINE",
"325 408 OFFCURVE",
"316 431 OFFCURVE",
"315 442 CURVE SMOOTH",
"309 515 OFFCURVE",
"432 519 OFFCURVE",
"471 519 CURVE SMOOTH",
"501 519 LINE",
"468 497 OFFCURVE",
"440 460 OFFCURVE",
"421 420 CURVE SMOOTH",
"366 302 OFFCURVE",
"322 198 OFFCURVE",
"232 99 CURVE SMOOTH",
"194 58 OFFCURVE",
"150 28 OFFCURVE",
"103 28 CURVE SMOOTH",
"56 28 OFFCURVE",
"21 60 OFFCURVE",
"21 123 CURVE SMOOTH",
"21 127 OFFCURVE",
"18 131 OFFCURVE",
"15 131 CURVE SMOOTH",
"13 131 OFFCURVE",
"10 128 OFFCURVE",
"10 117 CURVE SMOOTH",
"10 98 OFFCURVE",
"12 78 OFFCURVE",
"19 61 CURVE SMOOTH",
"37 13 OFFCURVE",
"79 -10 OFFCURVE",
"120 -10 CURVE"
);
}
);
width = 365;
}
);
note = I;
unicode = 0049;
},
{
glyphname = J;
lastChange = "2021-04-30 03:09:52 +0000";
layers = (
{
anchors = (
{
name = bottom;
position = "{-113, -167}";
},
{
name = top;
position = "{322, 545}";
}
);
hints = (
{
horizontal = 1;
place = "{475, 25}";
type = Stem;
}
);
layerId = "A626400C-4409-4FF6-B7A4-72C4E5A5721C";
paths = (
{
closed = 1;
nodes = (
"-113 -167 LINE",
"-67 -167 OFFCURVE",
"-10 -137 OFFCURVE",
"24 -101 CURVE SMOOTH",
"104 -15 OFFCURVE",
"137 74 OFFCURVE",
"189 195 CURVE SMOOTH",
"217 260 OFFCURVE",
"273 386 OFFCURVE",
"289 417 CURVE SMOOTH",
"309 458 OFFCURVE",
"345 527 OFFCURVE",
"401 530 CURVE SMOOTH",
"404 530 OFFCURVE",
"416 540 OFFCURVE",
"416 544 CURVE SMOOTH",
"416 545 OFFCURVE",
"416 545 OFFCURVE",
"414 545 CURVE SMOOTH",
"366 545 OFFCURVE",
"322 545 OFFCURVE",
"306 545 CURVE SMOOTH",
"233 545 OFFCURVE",
"67 547 OFFCURVE",
"67 467 CURVE SMOOTH",
"67 460 OFFCURVE",
"68 452 OFFCURVE",
"71 443 CURVE SMOOTH",
"77 425 OFFCURVE",
"108 389 OFFCURVE",
"125 380 CURVE",
"131 378 OFFCURVE",
"139 383 OFFCURVE",
"139 386 CURVE SMOOTH",
"139 387 OFFCURVE",
"138 388 OFFCURVE",
"137 389 CURVE",
"118 398 OFFCURVE",
"105 422 OFFCURVE",
"105 445 CURVE SMOOTH",
"105 455 OFFCURVE",
"108 466 OFFCURVE",
"114 475 CURVE SMOOTH",
"140 513 OFFCURVE",
"225 522 OFFCURVE",
"301 524 CURVE SMOOTH",
"312 524 OFFCURVE",
"331 527 OFFCURVE",
"353 528 CURVE",
"280 499 OFFCURVE",
"275 479 OFFCURVE",
"245 412 CURVE SMOOTH",
"211 339 OFFCURVE",
"169 228 OFFCURVE",
"154 195 CURVE SMOOTH",
"113 102 OFFCURVE",
"61 11 OFFCURVE",
"-1 -57 CURVE SMOOTH",
"-39 -98 OFFCURVE",
"-83 -128 OFFCURVE",
"-129 -128 CURVE SMOOTH",
"-177 -128 OFFCURVE",
"-212 -96 OFFCURVE",
"-212 -33 CURVE SMOOTH",
"-212 -29 OFFCURVE",
"-215 -25 OFFCURVE",
"-217 -25 CURVE SMOOTH",
"-220 -25 OFFCURVE",
"-222 -28 OFFCURVE",
"-222 -39 CURVE SMOOTH",
"-222 -58 OFFCURVE",
"-221 -78 OFFCURVE",
"-214 -95 CURVE SMOOTH",
"-195 -143 OFFCURVE",
"-154 -167 OFFCURVE",
"-113 -167 CURVE"
);
}
);
width = 203;
}
);
note = J;
unicode = 004A;
},
{
glyphname = K;
lastChange = "2021-04-30 03:09:52 +0000";
layers = (
{
anchors = (
{
name = bottom;
position = "{210, 0}";
},
{
name = top;
position = "{540, 545}";
}
);
hints = (
{
horizontal = 1;
place = "{253, 27}";
type = Stem;
},
{
horizontal = 1;
place = "{507, 15}";
type = Stem;
}
);
layerId = "A626400C-4409-4FF6-B7A4-72C4E5A5721C";
paths = (
{
closed = 1;
nodes = (
"442 -11 LINE",
"496 -11 OFFCURVE",
"549 42 OFFCURVE",
"608 124 CURVE SMOOTH",
"612 129 OFFCURVE",
"613 133 OFFCURVE",
"613 136 CURVE SMOOTH",
"613 139 OFFCURVE",
"612 141 OFFCURVE",
"609 141 CURVE SMOOTH",
"608 141 OFFCURVE",
"605 139 OFFCURVE",
"602 135 CURVE SMOOTH",
"564 85 OFFCURVE",
"519 31 OFFCURVE",
"466 31 CURVE SMOOTH",
"439 31 OFFCURVE",
"409 46 OFFCURVE",
"378 84 CURVE SMOOTH",
"316 159 OFFCURVE",
"278 242 OFFCURVE",
"267 272 CURVE",
"325 314 OFFCURVE",
"411 374 OFFCURVE",
"482 413 CURVE SMOOTH",
"534 442 OFFCURVE",
"595 469 OFFCURVE",
"649 492 CURVE SMOOTH",
"676 503 OFFCURVE",
"715 518 OFFCURVE",
"744 518 CURVE SMOOTH",
"777 518 OFFCURVE",
"780 494 OFFCURVE",
"790 494 CURVE SMOOTH",
"793 494 OFFCURVE",
"794 496 OFFCURVE",
"794 498 CURVE SMOOTH",
"796 514 OFFCURVE",
"773 528 OFFCURVE",
"760 532 CURVE SMOOTH",
"743 539 OFFCURVE",
"723 542 OFFCURVE",
"705 542 CURVE SMOOTH",
"683 542 OFFCURVE",
"662 537 OFFCURVE",
"641 528 CURVE SMOOTH",
"578 501 OFFCURVE",
"515 457 OFFCURVE",
"462 425 CURVE SMOOTH",
"383 376 OFFCURVE",
"303 323 OFFCURVE",
"228 254 CURVE",
"242 228 OFFCURVE",
"273 143 OFFCURVE",
"338 57 CURVE SMOOTH",
"374 10 OFFCURVE",
"408 -11 OFFCURVE",
"442 -11 CURVE"
);
},
{
closed = 1;
nodes = (
"6 -21 LINE",
"7 -21 OFFCURVE",
"9 -21 OFFCURVE",
"10 -20 CURVE SMOOTH",
"29 -3 OFFCURVE",
"45 5 OFFCURVE",
"68 5 CURVE SMOOTH",
"77 5 OFFCURVE",
"85 3 OFFCURVE",
"91 3 CURVE SMOOTH",
"104 3 OFFCURVE",
"109 30 OFFCURVE",
"118 46 CURVE SMOOTH",
"160 130 OFFCURVE",
"202 209 OFFCURVE",
"238 276 CURVE SMOOTH",
"273 341 OFFCURVE",
"337 449 OFFCURVE",
"337 449 CURVE",
"368 503 OFFCURVE",
"400 529 OFFCURVE",
"429 529 CURVE SMOOTH",
"434 529 OFFCURVE",
"437 528 OFFCURVE",
"442 528 CURVE SMOOTH",
"447 528 OFFCURVE",
"449 532 OFFCURVE",
"449 536 CURVE SMOOTH",
"449 541 OFFCURVE",
"445 548 OFFCURVE",
"437 548 CURVE SMOOTH",
"436 548 OFFCURVE",
"434 548 OFFCURVE",
"433 548 CURVE SMOOTH",
"411 544 OFFCURVE",
"377 544 OFFCURVE",
"350 544 CURVE SMOOTH",
"332 544 OFFCURVE",
"317 544 OFFCURVE",
"310 544 CURVE SMOOTH",
"258 544 OFFCURVE",
"140 546 OFFCURVE",
"140 473 CURVE SMOOTH",
"140 467 OFFCURVE",
"141 459 OFFCURVE",
"143 451 CURVE SMOOTH",
"147 434 OFFCURVE",
"169 401 OFFCURVE",
"181 394 CURVE SMOOTH",
"185 392 OFFCURVE",
"191 396 OFFCURVE",
"191 399 CURVE SMOOTH",
"191 400 OFFCURVE",
"191 400 OFFCURVE",
"190 401 CURVE SMOOTH",
"181 408 OFFCURVE",
"176 422 OFFCURVE",
"176 438 CURVE SMOOTH",
"176 448 OFFCURVE",
"178 460 OFFCURVE",
"183 470 CURVE SMOOTH",
"210 519 OFFCURVE",
"292 526 OFFCURVE",
"390 528 CURVE",
"357 519 OFFCURVE",
"309 488 OFFCURVE",
"273 425 CURVE",
"273 425 OFFCURVE",
"149 203 OFFCURVE",
"83 90 CURVE SMOOTH",
"69 66 LINE SMOOTH",
"47 28 OFFCURVE",
"29 8 OFFCURVE",
"-1 -16 CURVE SMOOTH",
"-4 -18 OFFCURVE",
"1 -21 OFFCURVE",
"6 -21 CURVE"
);
}
);
width = 560;
}
);
note = K;
unicode = 004B;
},
{
glyphname = L;
lastChange = "2021-04-30 03:09:52 +0000";
layers = (
{
anchors = (
{
name = bottom;
position = "{274, 0}";
},
{
name = center;
position = "{274, 289}";
},
{
name = top;
position = "{440, 546}";
},
{
name = topright;
position = "{579, 535}";
}
);
hints = (
{
horizontal = 1;
place = "{-4, 37}";
type = Stem;
},
{
horizontal = 1;
place = "{535, 11}";
type = Stem;
},
{
place = "{475, 41}";
type = Stem;
},
{
horizontal = 1;
place = "{16, 17}";
type = Stem;
},
{
place = "{506, 35}";
type = Stem;
}
);
layerId = "A626400C-4409-4FF6-B7A4-72C4E5A5721C";
paths = (
{
closed = 1;
nodes = (
"8 -7 LINE",
"22 6 OFFCURVE",
"53 18 OFFCURVE",
"81 16 CURVE SMOOTH",
"190 11 OFFCURVE",
"332 -4 OFFCURVE",
"445 -4 CURVE SMOOTH",
"491 -4 OFFCURVE",
"516 11 OFFCURVE",
"516 37 CURVE SMOOTH",
"516 43 OFFCURVE",
"515 49 OFFCURVE",
"513 55 CURVE SMOOTH",
"507 73 OFFCURVE",
"471 118 OFFCURVE",
"454 126 CURVE SMOOTH",
"449 129 OFFCURVE",
"445 125 OFFCURVE",
"445 122 CURVE SMOOTH",
"445 120 OFFCURVE",
"446 119 OFFCURVE",
"448 118 CURVE SMOOTH",
"466 110 OFFCURVE",
"475 96 OFFCURVE",
"475 81 CURVE SMOOTH",
"475 71 OFFCURVE",
"472 61 OFFCURVE",
"465 51 CURVE SMOOTH",
"453 35 OFFCURVE",
"390 33 OFFCURVE",
"326 33 CURVE SMOOTH",
"308 33 OFFCURVE",
"289 33 OFFCURVE",
"272 33 CURVE SMOOTH",
"211 33 OFFCURVE",
"85 33 OFFCURVE",
"85 33 CURVE",
"103 40 OFFCURVE",
"133 63 OFFCURVE",
"168 127 CURVE SMOOTH",
"353 468 LINE SMOOTH",
"379 517 OFFCURVE",
"418 535 OFFCURVE",
"453 535 CURVE SMOOTH",
"491 535 OFFCURVE",
"506 503 OFFCURVE",
"506 469 CURVE SMOOTH",
"506 446 OFFCURVE",
"499 423 OFFCURVE",
"489 407 CURVE SMOOTH",
"486 401 OFFCURVE",
"489 398 OFFCURVE",
"492 398 CURVE SMOOTH",
"496 398 OFFCURVE",
"500 400 OFFCURVE",
"501 405 CURVE",
"512 437 OFFCURVE",
"537 456 OFFCURVE",
"541 477 CURVE SMOOTH",
"542 481 OFFCURVE",
"542 485 OFFCURVE",
"542 489 CURVE SMOOTH",
"542 532 OFFCURVE",
"485 546 OFFCURVE",
"440 546 CURVE SMOOTH",
"321 546 OFFCURVE",
"274 449 OFFCURVE",
"236 355 CURVE SMOOTH",
"144 125 LINE SMOOTH",
"127 83 OFFCURVE",
"76 24 OFFCURVE",
"20 21 CURVE SMOOTH",
"7 20 OFFCURVE",
"3 9 OFFCURVE",
"3 1 CURVE SMOOTH",
"3 -4 OFFCURVE",
"4 -8 OFFCURVE",
"6 -8 CURVE SMOOTH",
"7 -8 OFFCURVE",
"7 -8 OFFCURVE",
"8 -7 CURVE"
);
}
);
width = 547;
}
);
note = L;
unicode = 004C;
},
{
glyphname = M;
lastChange = "2021-04-30 03:09:52 +0000";
layers = (
{
hints = (
{
place = "{732, 39}";
type = Stem;
}
);
layerId = "A626400C-4409-4FF6-B7A4-72C4E5A5721C";
paths = (
{
closed = 1;
nodes = (
"116 -10 LINE",
"161 -10 OFFCURVE",
"219 19 OFFCURVE",
"252 55 CURVE SMOOTH",
"348 157 OFFCURVE",
"409 354 OFFCURVE",
"449 437 CURVE SMOOTH",
"463 466 OFFCURVE",
"486 491 OFFCURVE",
"509 508 CURVE",
"495 491 OFFCURVE",
"485 467 OFFCURVE",
"485 435 CURVE",
"485 435 OFFCURVE",
"485 280 OFFCURVE",
"480 168 CURVE SMOOTH",
"479 144 LINE SMOOTH",
"478 105 OFFCURVE",
"469 75 OFFCURVE",
"452 53 CURVE",
"451 51 OFFCURVE",
"456 48 OFFCURVE",
"460 48 CURVE SMOOTH",
"461 48 OFFCURVE",
"463 48 OFFCURVE",
"463 49 CURVE",
"468 55 OFFCURVE",
"488 79 OFFCURVE",
"498 83 CURVE SMOOTH",
"515 90 OFFCURVE",
"522 100 OFFCURVE",
"524 111 CURVE",
"812 415 LINE",
"777 357 OFFCURVE",
"750 297 OFFCURVE",
"733 261 CURVE SMOOTH",
"708 209 OFFCURVE",
"655 112 OFFCURVE",
"655 50 CURVE SMOOTH",
"655 7 OFFCURVE",
"683 -9 OFFCURVE",
"712 -9 CURVE SMOOTH",
"725 -9 OFFCURVE",
"739 -5 OFFCURVE",
"751 0 CURVE SMOOTH",
"808 25 OFFCURVE",
"861 102 OFFCURVE",
"877 122 CURVE SMOOTH",
"880 126 OFFCURVE",
"881 129 OFFCURVE",
"881 133 CURVE SMOOTH",
"881 136 OFFCURVE",
"879 139 OFFCURVE",
"877 139 CURVE SMOOTH",
"876 139 OFFCURVE",
"874 138 OFFCURVE",
"872 135 CURVE SMOOTH",
"867 129 OFFCURVE",
"837 86 OFFCURVE",
"802 53 CURVE SMOOTH",
"784 36 OFFCURVE",
"761 22 OFFCURVE",
"744 15 CURVE SMOOTH",
"737 12 OFFCURVE",
"732 11 OFFCURVE",
"727 11 CURVE SMOOTH",
"714 11 OFFCURVE",
"708 21 OFFCURVE",
"708 39 CURVE SMOOTH",
"708 134 OFFCURVE",
"871 441 OFFCURVE",
"907 500 CURVE SMOOTH",
"931 539 OFFCURVE",
"958 571 OFFCURVE",
"993 570 CURVE",
"999 571 OFFCURVE",
"1006 578 OFFCURVE",
"1006 582 CURVE",
"1006 582 OFFCURVE",
"1005 583 OFFCURVE",
"1004 583 CURVE SMOOTH",
"957 587 OFFCURVE",
"915 548 OFFCURVE",
"871 502 CURVE SMOOTH",
"524 136 LINE",
"524 138 OFFCURVE",
"524 140 OFFCURVE",
"524 142 CURVE SMOOTH",
"521 225 OFFCURVE",
"516 435 OFFCURVE",
"516 435 CURVE",
"514 497 OFFCURVE",
"531 523 OFFCURVE",
"564 530 CURVE",
"567 530 OFFCURVE",
"579 540 OFFCURVE",
"579 544 CURVE SMOOTH",
"579 545 OFFCURVE",
"579 545 OFFCURVE",
"577 545 CURVE SMOOTH",
"529 545 OFFCURVE",
"485 545 OFFCURVE",
"469 545 CURVE SMOOTH",
"396 545 OFFCURVE",
"230 547 OFFCURVE",
"230 467 CURVE SMOOTH",
"230 460 OFFCURVE",
"231 452 OFFCURVE",
"234 443 CURVE SMOOTH",
"240 425 OFFCURVE",
"271 389 OFFCURVE",
"288 380 CURVE",
"294 378 OFFCURVE",
"302 383 OFFCURVE",
"302 386 CURVE SMOOTH",
"302 387 OFFCURVE",
"301 388 OFFCURVE",
"300 389 CURVE",
"281 398 OFFCURVE",
"268 422 OFFCURVE",
"268 445 CURVE SMOOTH",
"268 455 OFFCURVE",
"271 466 OFFCURVE",
"277 475 CURVE SMOOTH",
"304 515 OFFCURVE",
"396 521 OFFCURVE",
"467 521 CURVE SMOOTH",
"522 521 LINE",
"521 520 LINE",
"473 506 OFFCURVE",
"439 468 OFFCURVE",
"417 420 CURVE SMOOTH",
"362 302 OFFCURVE",
"318 198 OFFCURVE",
"227 99 CURVE SMOOTH",
"190 58 OFFCURVE",
"145 28 OFFCURVE",
"99 28 CURVE SMOOTH",
"52 28 OFFCURVE",
"17 60 OFFCURVE",
"17 123 CURVE SMOOTH",
"17 127 OFFCURVE",
"14 131 OFFCURVE",
"11 131 CURVE SMOOTH",
"9 131 OFFCURVE",
"6 128 OFFCURVE",
"6 117 CURVE SMOOTH",
"6 98 OFFCURVE",
"8 78 OFFCURVE",
"15 61 CURVE SMOOTH",
"33 13 OFFCURVE",
"75 -10 OFFCURVE",
"116 -10 CURVE"
);
}
);
width = 830;
}
);
note = M;
unicode = 004D;
},
{
glyphname = N;
lastChange = "2021-04-30 03:09:52 +0000";
layers = (
{
anchors = (
{
name = bottom;
position = "{384, 0}";
},
{
name = top;
position = "{687, 560}";
}
);
hints = (
{
horizontal = 1;
place = "{-10, 24}";
type = Stem;
},
{
horizontal = 1;
place = "{521, 24}";
type = Stem;
},
{
place = "{6, 10}";
type = Stem;
},
{
place = "{230, 38}";
type = Stem;
},
{
place = "{932, 9}";
type = Stem;
},
{
horizontal = 1;
place = "{572, 41}";
type = Stem;
},
{
place = "{625, 16}";
type = Stem;
},
{
horizontal = 1;
place = "{380, 9}";
type = Stem;
}
);
layerId = "A626400C-4409-4FF6-B7A4-72C4E5A5721C";
paths = (
{
closed = 1;
nodes = (
"577 -30 LINE",
"579 -30 OFFCURVE",
"580 -29 OFFCURVE",
"581 -28 CURVE SMOOTH",
"585 -22 OFFCURVE",
"606 1 OFFCURVE",
"616 5 CURVE SMOOTH",
"625 9 OFFCURVE",
"632 13 OFFCURVE",
"638 17 CURVE SMOOTH",
"643 21 OFFCURVE",
"646 26 OFFCURVE",
"646 31 CURVE SMOOTH",
"646 33 OFFCURVE",
"645 34 OFFCURVE",
"645 36 CURVE SMOOTH",
"644 43 OFFCURVE",
"641 50 OFFCURVE",
"641 55 CURVE",
"640 59 OFFCURVE",
"640 63 OFFCURVE",
"640 67 CURVE SMOOTH",
"640 80 OFFCURVE",
"643 93 OFFCURVE",
"650 108 CURVE SMOOTH",
"692 209 OFFCURVE",
"821 574 OFFCURVE",
"904 572 CURVE SMOOTH",
"913 572 OFFCURVE",
"933 565 OFFCURVE",
"932 548 CURVE",
"931 546 OFFCURVE",
"941 549 OFFCURVE",
"941 550 CURVE SMOOTH",
"942 586 LINE SMOOTH",
"943 605 OFFCURVE",
"928 613 OFFCURVE",
"909 613 CURVE SMOOTH",
"889 613 OFFCURVE",
"864 604 OFFCURVE",
"848 589 CURVE SMOOTH",
"769 515 OFFCURVE",
"678 212 OFFCURVE",
"625 86 CURVE",
"573 216 OFFCURVE",
"518 400 OFFCURVE",
"509 501 CURVE",
"520 509 OFFCURVE",
"554 516 OFFCURVE",
"568 515 CURVE SMOOTH",
"575 514 OFFCURVE",
"598 546 OFFCURVE",
"589 545 CURVE",
"541 545 OFFCURVE",
"485 545 OFFCURVE",
"468 545 CURVE SMOOTH",
"396 545 OFFCURVE",
"230 547 OFFCURVE",
"230 467 CURVE SMOOTH",
"230 460 OFFCURVE",
"231 452 OFFCURVE",
"234 443 CURVE SMOOTH",
"240 425 OFFCURVE",
"271 389 OFFCURVE",
"288 380 CURVE",
"294 378 OFFCURVE",
"302 383 OFFCURVE",
"302 387 CURVE SMOOTH",
"302 388 OFFCURVE",
"301 388 OFFCURVE",
"300 389 CURVE",
"281 398 OFFCURVE",
"268 422 OFFCURVE",
"268 446 CURVE SMOOTH",
"268 456 OFFCURVE",
"270 466 OFFCURVE",
"276 475 CURVE SMOOTH",
"304 515 OFFCURVE",
"396 521 OFFCURVE",
"467 521 CURVE SMOOTH",
"522 521 LINE",
"474 512 OFFCURVE",
"437 470 OFFCURVE",
"417 420 CURVE SMOOTH",
"367 300 OFFCURVE",
"327 177 OFFCURVE",
"237 78 CURVE SMOOTH",
"199 38 OFFCURVE",
"150 14 OFFCURVE",
"104 14 CURVE SMOOTH",
"56 14 OFFCURVE",
"16 60 OFFCURVE",
"16 123 CURVE SMOOTH",
"16 127 OFFCURVE",
"13 131 OFFCURVE",
"11 131 CURVE SMOOTH",
"8 131 OFFCURVE",
"6 128 OFFCURVE",
"6 117 CURVE SMOOTH",
"6 98 OFFCURVE",
"8 78 OFFCURVE",
"14 61 CURVE SMOOTH",
"33 13 OFFCURVE",
"75 -10 OFFCURVE",
"116 -10 CURVE SMOOTH",
"161 -10 OFFCURVE",
"231 17 OFFCURVE",
"262 55 CURVE SMOOTH",
"347 155 OFFCURVE",
"403 316 OFFCURVE",
"438 408 CURVE SMOOTH",
"442 420 OFFCURVE",
"453 453 OFFCURVE",
"463 460 CURVE",
"506 321 OFFCURVE",
"564 156 OFFCURVE",
"590 16 CURVE",
"585 1 OFFCURVE",
"579 -13 OFFCURVE",
"570 -25 CURVE SMOOTH",
"569 -27 OFFCURVE",
"573 -30 OFFCURVE",
"577 -30 CURVE"
);
}
);
width = 721;
}
);
note = N;
unicode = 004E;
},
{
glyphname = O;
lastChange = "2021-04-30 03:09:52 +0000";
layers = (
{
anchors = (
{
name = bottom;
position = "{191, -5}";
},
{
name = center;
position = "{297, 289}";
},
{
name = ogonek;
position = "{199, -8}";
},
{
name = top;
position = "{472, 560}";
},
{
name = topleft;
position = "{20, 577}";
},
{
name = topright;
position = "{569, 495}";
}
);
hints = (
{
horizontal = 1;
place = "{-12, 15}";
type = Stem;
},
{
horizontal = 1;
place = "{539, 15}";
type = Stem;
},
{
place = "{7, 53}";
type = Stem;
},
{
place = "{591, 57}";
type = Stem;
}
);
layerId = "A626400C-4409-4FF6-B7A4-72C4E5A5721C";
paths = (
{
closed = 1;
nodes = (
"232 -12 LINE",
"460 -12 OFFCURVE",
"648 185 OFFCURVE",
"648 396 CURVE SMOOTH",
"648 504 OFFCURVE",
"578 554 OFFCURVE",
"418 554 CURVE SMOOTH",
"145 554 OFFCURVE",
"7 283 OFFCURVE",
"7 146 CURVE SMOOTH",
"7 15 OFFCURVE",
"125 -12 OFFCURVE",
"232 -12 CURVE"
);
},
{
closed = 1;
nodes = (
"224 3 LINE",
"105 3 OFFCURVE",
"60 53 OFFCURVE",
"60 137 CURVE SMOOTH",
"60 292 OFFCURVE",
"242 539 OFFCURVE",
"420 539 CURVE SMOOTH",
"544 539 OFFCURVE",
"591 488 OFFCURVE",
"591 405 CURVE SMOOTH",
"591 219 OFFCURVE",
"429 3 OFFCURVE",
"224 3 CURVE"
);
}
);
width = 594;
}
);
note = O;
unicode = 004F;
},
{
glyphname = P;
lastChange = "2021-04-30 03:09:52 +0000";
layers = (
{
hints = (
{
horizontal = 1;
place = "{-8, 33}";
type = Stem;
},
{
horizontal = 1;
place = "{211, 28}";
type = Stem;
},
{
horizontal = 1;
place = "{510, 15}";
type = Stem;
}
);
layerId = "A626400C-4409-4FF6-B7A4-72C4E5A5721C";
paths = (
{
closed = 1;
nodes = (
"14 -19 LINE",
"16 -19 OFFCURVE",
"18 -19 OFFCURVE",
"20 -18 CURVE SMOOTH",
"47 -9 OFFCURVE",
"68 9 OFFCURVE",
"82 15 CURVE SMOOTH",
"90 19 OFFCURVE",
"96 20 OFFCURVE",
"102 20 CURVE SMOOTH",
"116 20 OFFCURVE",
"126 12 OFFCURVE",
"137 12 CURVE SMOOTH",
"139 12 OFFCURVE",
"140 13 OFFCURVE",
"140 15 CURVE SMOOTH",
"140 16 OFFCURVE",
"140 17 OFFCURVE",
"139 18 CURVE",
"126 49 OFFCURVE",
"231 233 OFFCURVE",
"249 267 CURVE SMOOTH",
"287 341 OFFCURVE",
"330 439 OFFCURVE",
"381 505 CURVE SMOOTH",
"396 524 OFFCURVE",
"430 529 OFFCURVE",
"456 529 CURVE SMOOTH",
"463 529 OFFCURVE",
"470 529 OFFCURVE",
"475 528 CURVE SMOOTH",
"518 522 OFFCURVE",
"541 483 OFFCURVE",
"541 438 CURVE SMOOTH",
"541 422 OFFCURVE",
"539 405 OFFCURVE",
"533 389 CURVE SMOOTH",
"495 278 OFFCURVE",
"393 257 OFFCURVE",
"317 257 CURVE SMOOTH",
"305 257 OFFCURVE",
"294 257 OFFCURVE",
"284 258 CURVE SMOOTH",
"277 259 OFFCURVE",
"263 245 OFFCURVE",
"263 240 CURVE SMOOTH",
"263 239 OFFCURVE",
"264 238 OFFCURVE",
"265 238 CURVE SMOOTH",
"274 237 OFFCURVE",
"287 236 OFFCURVE",
"301 236 CURVE SMOOTH",
"344 236 OFFCURVE",
"403 242 OFFCURVE",
"447 259 CURVE SMOOTH",
"516 286 OFFCURVE",
"595 355 OFFCURVE",
"595 433 CURVE SMOOTH",
"595 455 OFFCURVE",
"589 477 OFFCURVE",
"575 499 CURVE SMOOTH",
"549 540 OFFCURVE",
"483 546 OFFCURVE",
"429 546 CURVE SMOOTH",
"413 546 OFFCURVE",
"398 545 OFFCURVE",
"386 545 CURVE SMOOTH",
"336 545 OFFCURVE",
"271 544 OFFCURVE",
"229 544 CURVE SMOOTH",
"174 544 OFFCURVE",
"67 542 OFFCURVE",
"67 473 CURVE SMOOTH",
"67 466 OFFCURVE",
"68 459 OFFCURVE",
"70 451 CURVE SMOOTH",
"75 434 OFFCURVE",
"96 401 OFFCURVE",
"109 394 CURVE SMOOTH",
"112 392 OFFCURVE",
"118 396 OFFCURVE",
"118 399 CURVE SMOOTH",
"118 400 OFFCURVE",
"118 401 OFFCURVE",
"117 401 CURVE",
"106 408 OFFCURVE",
"101 420 OFFCURVE",
"101 434 CURVE SMOOTH",
"101 446 OFFCURVE",
"105 458 OFFCURVE",
"111 470 CURVE SMOOTH",
"135 515 OFFCURVE",
"263 532 OFFCURVE",
"345 532 CURVE SMOOTH",
"354 532 OFFCURVE",
"362 531 OFFCURVE",
"370 531 CURVE",
"347 523 OFFCURVE",
"320 508 OFFCURVE",
"311 491 CURVE SMOOTH",
"299 468 OFFCURVE",
"274 412 OFFCURVE",
"243 357 CURVE SMOOTH",
"211 298 OFFCURVE",
"179 239 OFFCURVE",
"148 180 CURVE SMOOTH",
"122 132 OFFCURVE",
"95 85 OFFCURVE",
"67 38 CURVE SMOOTH",
"53 13 OFFCURVE",
"32 -5 OFFCURVE",
"3 -10 CURVE",
"-2 -13 OFFCURVE",
"4 -19 OFFCURVE",
"14 -19 CURVE"
);
}
);
width = 541;
}
);
note = P;
unicode = 0050;
},
{
glyphname = Q;
lastChange = "2021-04-30 03:09:52 +0000";
layers = (
{
hints = (
{
horizontal = 1;
place = "{510, 15}";
type = Stem;
}
);
layerId = "A626400C-4409-4FF6-B7A4-72C4E5A5721C";
paths = (
{
closed = 1;
nodes = (
"494 -269 LINE",
"562 -269 OFFCURVE",
"641 -213 OFFCURVE",
"669 -180 CURVE SMOOTH",
"673 -175 OFFCURVE",
"670 -169 OFFCURVE",
"666 -169 CURVE SMOOTH",
"664 -169 OFFCURVE",
"663 -170 OFFCURVE",
"661 -172 CURVE SMOOTH",
"646 -188 OFFCURVE",
"587 -237 OFFCURVE",
"530 -237 CURVE SMOOTH",
"504 -237 OFFCURVE",
"478 -227 OFFCURVE",
"458 -199 CURVE SMOOTH",
"418 -144 OFFCURVE",
"347 -40 OFFCURVE",
"328 0 CURVE",
"511 45 OFFCURVE",
"648 216 OFFCURVE",
"648 396 CURVE SMOOTH",
"648 504 OFFCURVE",
"578 554 OFFCURVE",
"418 554 CURVE SMOOTH",
"145 554 OFFCURVE",
"7 283 OFFCURVE",
"7 146 CURVE SMOOTH",
"7 15 OFFCURVE",
"125 -12 OFFCURVE",
"232 -12 CURVE SMOOTH",
"250 -12 OFFCURVE",
"268 -11 OFFCURVE",
"285 -9 CURVE",
"301 -38 OFFCURVE",
"371 -157 OFFCURVE",
"413 -225 CURVE SMOOTH",
"433 -257 OFFCURVE",
"462 -269 OFFCURVE",
"494 -269 CURVE"
);
},
{
closed = 1;
nodes = (
"224 3 LINE",
"105 3 OFFCURVE",
"60 53 OFFCURVE",
"60 137 CURVE SMOOTH",
"60 292 OFFCURVE",
"242 539 OFFCURVE",
"420 539 CURVE SMOOTH",
"544 539 OFFCURVE",
"591 488 OFFCURVE",
"591 405 CURVE SMOOTH",
"591 219 OFFCURVE",
"429 3 OFFCURVE",
"224 3 CURVE"
);
}
);
width = 599;
}
);
note = Q;
unicode = 0051;
},
{
glyphname = R;
lastChange = "2021-04-30 03:09:52 +0000";
layers = (
{
anchors = (
{
name = bottom;
position = "{249, 0}";
},
{
name = top;
position = "{436, 552}";
}
);
hints = (
{
horizontal = 1;
place = "{531, 15}";
type = Stem;
}
);
layerId = "A626400C-4409-4FF6-B7A4-72C4E5A5721C";
paths = (
{
closed = 1;
nodes = (
"472 -23 LINE",
"528 -23 OFFCURVE",
"583 31 OFFCURVE",
"644 115 CURVE SMOOTH",
"648 120 OFFCURVE",
"650 127 OFFCURVE",
"650 131 CURVE SMOOTH",
"650 135 OFFCURVE",
"649 137 OFFCURVE",
"647 137 CURVE SMOOTH",
"646 137 OFFCURVE",
"644 135 OFFCURVE",
"642 132 CURVE SMOOTH",
"613 94 OFFCURVE",
"555 24 OFFCURVE",
"492 24 CURVE SMOOTH",
"465 24 OFFCURVE",
"437 36 OFFCURVE",
"410 69 CURVE SMOOTH",
"359 132 OFFCURVE",
"323 200 OFFCURVE",
"306 238 CURVE",
"370 241 OFFCURVE",
"461 258 OFFCURVE",
"513 295 CURVE SMOOTH",
"534 310 OFFCURVE",
"550 326 OFFCURVE",
"563 343 CURVE SMOOTH",
"581 366 OFFCURVE",
"592 401 OFFCURVE",
"592 435 CURVE SMOOTH",
"592 458 OFFCURVE",
"586 481 OFFCURVE",
"575 499 CURVE SMOOTH",
"549 540 OFFCURVE",
"483 546 OFFCURVE",
"429 546 CURVE SMOOTH",
"413 546 OFFCURVE",
"398 545 OFFCURVE",
"386 545 CURVE SMOOTH",
"336 545 OFFCURVE",
"271 544 OFFCURVE",
"229 544 CURVE SMOOTH",
"174 544 OFFCURVE",
"67 542 OFFCURVE",
"67 473 CURVE SMOOTH",
"67 466 OFFCURVE",
"68 459 OFFCURVE",
"70 451 CURVE SMOOTH",
"75 434 OFFCURVE",
"96 401 OFFCURVE",
"109 394 CURVE SMOOTH",
"112 392 OFFCURVE",
"118 396 OFFCURVE",
"118 399 CURVE SMOOTH",
"118 400 OFFCURVE",
"118 401 OFFCURVE",
"117 401 CURVE",
"106 408 OFFCURVE",
"101 420 OFFCURVE",
"101 434 CURVE SMOOTH",
"101 446 OFFCURVE",
"105 458 OFFCURVE",
"111 470 CURVE SMOOTH",
"135 515 OFFCURVE",
"263 532 OFFCURVE",
"345 532 CURVE SMOOTH",
"354 532 OFFCURVE",
"362 531 OFFCURVE",
"370 531 CURVE",
"347 523 OFFCURVE",
"320 508 OFFCURVE",
"311 491 CURVE SMOOTH",
"299 468 OFFCURVE",
"274 412 OFFCURVE",
"243 357 CURVE SMOOTH",
"211 298 OFFCURVE",
"179 239 OFFCURVE",
"148 180 CURVE SMOOTH",
"122 132 OFFCURVE",
"95 85 OFFCURVE",
"67 38 CURVE SMOOTH",
"53 13 OFFCURVE",
"32 -5 OFFCURVE",
"3 -10 CURVE",
"-2 -13 OFFCURVE",
"4 -19 OFFCURVE",
"14 -19 CURVE SMOOTH",
"16 -19 OFFCURVE",
"18 -19 OFFCURVE",
"20 -18 CURVE SMOOTH",
"47 -9 OFFCURVE",
"68 9 OFFCURVE",
"82 15 CURVE SMOOTH",
"90 19 OFFCURVE",
"96 20 OFFCURVE",
"102 20 CURVE SMOOTH",
"116 20 OFFCURVE",
"126 12 OFFCURVE",
"137 12 CURVE SMOOTH",
"139 12 OFFCURVE",
"140 13 OFFCURVE",
"140 15 CURVE SMOOTH",
"140 16 OFFCURVE",
"140 17 OFFCURVE",
"139 18 CURVE",
"126 49 OFFCURVE",
"231 233 OFFCURVE",
"249 267 CURVE SMOOTH",
"287 341 OFFCURVE",
"330 439 OFFCURVE",
"381 505 CURVE SMOOTH",
"396 524 OFFCURVE",
"430 529 OFFCURVE",
"456 529 CURVE SMOOTH",
"463 529 OFFCURVE",
"470 529 OFFCURVE",
"475 528 CURVE SMOOTH",
"518 522 OFFCURVE",
"541 483 OFFCURVE",
"541 438 CURVE SMOOTH",
"541 422 OFFCURVE",
"539 405 OFFCURVE",
"533 389 CURVE SMOOTH",
"489 260 OFFCURVE",
"414 265 OFFCURVE",
"290 265 CURVE SMOOTH",
"279 265 OFFCURVE",
"260 239 OFFCURVE",
"260 239 CURVE",
"274 213 OFFCURVE",
"305 129 OFFCURVE",
"370 42 CURVE SMOOTH",
"405 -4 OFFCURVE",
"439 -23 OFFCURVE",
"472 -23 CURVE"
);
}
);
width = 602;
}
);
note = R;
unicode = 0052;
},
{
glyphname = S;
lastChange = "2021-04-30 03:09:52 +0000";
layers = (
{
anchors = (
{
name = bottom;
position = "{226, -25}";
},
{
name = top;
position = "{423, 562}";
}
);
hints = (
{
horizontal = 1;
place = "{-34, 28}";
type = Stem;
},
{
horizontal = 1;
place = "{541, 21}";
type = Stem;
},
{
place = "{255, 30}";
type = Stem;
},
{
place = "{377, 62}";
type = Stem;
},
{
place = "{488, 41}";
type = Stem;
}
);
layerId = "A626400C-4409-4FF6-B7A4-72C4E5A5721C";
paths = (
{
closed = 1;
nodes = (
"221 -34 LINE",
"321 -34 OFFCURVE",
"439 39 OFFCURVE",
"439 142 CURVE SMOOTH",
"439 159 OFFCURVE",
"436 177 OFFCURVE",
"429 195 CURVE SMOOTH",
"399 273 OFFCURVE",
"322 329 OFFCURVE",
"292 401 CURVE SMOOTH",
"287 413 OFFCURVE",
"284 426 OFFCURVE",
"284 439 CURVE SMOOTH",
"284 490 OFFCURVE",
"324 541 OFFCURVE",
"397 541 CURVE SMOOTH",
"433 541 OFFCURVE",
"458 529 OFFCURVE",
"474 514 CURVE SMOOTH",
"491 500 OFFCURVE",
"488 481 OFFCURVE",
"488 466 CURVE SMOOTH",
"488 443 OFFCURVE",
"475 409 OFFCURVE",
"470 399 CURVE",
"473 395 OFFCURVE",
"486 400 OFFCURVE",
"489 402 CURVE",
"492 412 OFFCURVE",
"510 447 OFFCURVE",
"522 465 CURVE SMOOTH",
"527 472 OFFCURVE",
"530 485 OFFCURVE",
"530 496 CURVE SMOOTH",
"530 505 OFFCURVE",
"528 513 OFFCURVE",
"524 519 CURVE",
"496 550 OFFCURVE",
"460 562 OFFCURVE",
"423 562 CURVE SMOOTH",
"368 562 OFFCURVE",
"311 534 OFFCURVE",
"279 491 CURVE SMOOTH",
"263 467 OFFCURVE",
"255 442 OFFCURVE",
"255 416 CURVE SMOOTH",
"255 391 OFFCURVE",
"262 366 OFFCURVE",
"274 343 CURVE SMOOTH",
"303 289 OFFCURVE",
"344 234 OFFCURVE",
"365 177 CURVE SMOOTH",
"373 156 OFFCURVE",
"377 134 OFFCURVE",
"377 115 CURVE SMOOTH",
"377 47 OFFCURVE",
"331 -6 OFFCURVE",
"253 -6 CURVE SMOOTH",
"196 -6 OFFCURVE",
"129 23 OFFCURVE",
"96 70 CURVE SMOOTH",
"83 89 OFFCURVE",
"73 116 OFFCURVE",
"73 142 CURVE SMOOTH",
"73 161 OFFCURVE",
"78 178 OFFCURVE",
"92 191 CURVE",
"97 194 OFFCURVE",
"90 202 OFFCURVE",
"87 202 CURVE",
"87 202 OFFCURVE",
"86 202 OFFCURVE",
"86 202 CURVE",
"59 182 OFFCURVE",
"38 139 OFFCURVE",
"38 98 CURVE SMOOTH",
"38 90 OFFCURVE",
"38 82 OFFCURVE",
"40 75 CURVE SMOOTH",
"59 -5 OFFCURVE",
"150 -34 OFFCURVE",
"221 -34 CURVE"
);
}
);
width = 451;
}
);
note = S;
unicode = 0053;
},
{
glyphname = T;
lastChange = "2021-04-30 03:09:52 +0000";
layers = (
{
anchors = (
{
name = bottom;
position = "{135, -20}";
},
{
name = center;
position = "{216, 289}";
},
{
name = top;
position = "{572, 553}";
}
);
hints = (
{
horizontal = 1;
place = "{531, 15}";
type = Stem;
}
);
layerId = "A626400C-4409-4FF6-B7A4-72C4E5A5721C";
paths = (
{
closed = 1;
nodes = (
"148 -39 LINE",
"194 -39 OFFCURVE",
"240 -15 OFFCURVE",
"274 21 CURVE SMOOTH",
"318 69 OFFCURVE",
"346 131 OFFCURVE",
"374 192 CURVE SMOOTH",
"402 252 OFFCURVE",
"417 297 OFFCURVE",
"446 357 CURVE SMOOTH",
"470 408 OFFCURVE",
"504 483 OFFCURVE",
"564 493 CURVE",
"605 488 OFFCURVE",
"652 482 OFFCURVE",
"683 482 CURVE SMOOTH",
"694 482 OFFCURVE",
"703 483 OFFCURVE",
"709 484 CURVE SMOOTH",
"732 489 OFFCURVE",
"741 508 OFFCURVE",
"748 522 CURVE",
"752 527 OFFCURVE",
"754 532 OFFCURVE",
"756 540 CURVE",
"758 544 OFFCURVE",
"751 548 OFFCURVE",
"748 543 CURVE",
"735 527 OFFCURVE",
"688 522 OFFCURVE",
"639 522 CURVE SMOOTH",
"593 522 OFFCURVE",
"545 526 OFFCURVE",
"524 528 CURVE SMOOTH",
"365 541 LINE SMOOTH",
"317 545 OFFCURVE",
"269 547 OFFCURVE",
"227 550 CURVE SMOOTH",
"215 551 OFFCURVE",
"202 551 OFFCURVE",
"187 551 CURVE SMOOTH",
"112 551 OFFCURVE",
"12 537 OFFCURVE",
"12 472 CURVE SMOOTH",
"12 463 OFFCURVE",
"14 453 OFFCURVE",
"18 442 CURVE SMOOTH",
"25 424 OFFCURVE",
"56 386 OFFCURVE",
"74 377 CURVE SMOOTH",
"80 374 OFFCURVE",
"88 378 OFFCURVE",
"88 382 CURVE SMOOTH",
"88 383 OFFCURVE",
"87 384 OFFCURVE",
"86 385 CURVE",
"67 395 OFFCURVE",
"54 416 OFFCURVE",
"54 437 CURVE SMOOTH",
"54 447 OFFCURVE",
"56 456 OFFCURVE",
"62 465 CURVE SMOOTH",
"92 508 OFFCURVE",
"185 518 OFFCURVE",
"264 518 CURVE SMOOTH",
"303 518 OFFCURVE",
"339 516 OFFCURVE",
"361 514 CURVE SMOOTH",
"502 500 LINE SMOOTH",
"510 499 OFFCURVE",
"518 498 OFFCURVE",
"528 497 CURVE",
"494 487 OFFCURVE",
"451 465 OFFCURVE",
"438 435 CURVE SMOOTH",
"393 330 OFFCURVE",
"335 153 OFFCURVE",
"260 70 CURVE SMOOTH",
"222 29 OFFCURVE",
"177 -1 OFFCURVE",
"131 -1 CURVE SMOOTH",
"84 -1 OFFCURVE",
"49 31 OFFCURVE",
"49 94 CURVE SMOOTH",
"49 102 OFFCURVE",
"50 111 OFFCURVE",
"50 119 CURVE SMOOTH",
"50 120 OFFCURVE",
"49 121 OFFCURVE",
"48 121 CURVE SMOOTH",
"39 121 OFFCURVE",
"38 108 OFFCURVE",
"38 97 CURVE SMOOTH",
"38 94 OFFCURVE",
"38 91 OFFCURVE",
"38 88 CURVE SMOOTH",
"38 70 OFFCURVE",
"40 49 OFFCURVE",
"47 32 CURVE SMOOTH",
"65 -16 OFFCURVE",
"107 -39 OFFCURVE",
"148 -39 CURVE"
);
}
);
width = 432;
}
);
note = T;
unicode = 0054;
},
{
glyphname = U;
lastChange = "2021-04-30 03:09:52 +0000";
layers = (
{
anchors = (
{
name = bottom;
position = "{237, -15}";
},
{
name = ogonek;
position = "{458, -26}";
},
{
name = top;
position = "{503, 543}";
},
{
name = topright;
position = "{613, 503}";
}
);
hints = (
{
horizontal = 1;
place = "{-12, 18}";
type = Stem;
},
{
horizontal = 1;
place = "{457, 18}";
type = Stem;
},
{
horizontal = 1;
place = "{524, 15}";
type = Stem;
}
);
layerId = "A626400C-4409-4FF6-B7A4-72C4E5A5721C";
paths = (
{
closed = 1;
nodes = (
"146 -26 LINE",
"183 -26 OFFCURVE",
"218 -10 OFFCURVE",
"250 12 CURVE SMOOTH",
"284 37 OFFCURVE",
"317 70 OFFCURVE",
"349 101 CURVE SMOOTH",
"380 131 OFFCURVE",
"411 161 OFFCURVE",
"439 194 CURVE",
"421 148 OFFCURVE",
"397 87 OFFCURVE",
"397 41 CURVE SMOOTH",
"397 3 OFFCURVE",
"413 -26 OFFCURVE",
"462 -26 CURVE SMOOTH",
"510 -26 OFFCURVE",
"576 30 OFFCURVE",
"601 55 CURVE SMOOTH",
"624 79 OFFCURVE",
"644 103 OFFCURVE",
"653 115 CURVE SMOOTH",
"659 122 OFFCURVE",
"665 131 OFFCURVE",
"666 141 CURVE SMOOTH",
"666 143 OFFCURVE",
"665 147 OFFCURVE",
"664 149 CURVE",
"640 119 OFFCURVE",
"622 97 OFFCURVE",
"593 70 CURVE SMOOTH",
"563 40 OFFCURVE",
"528 12 OFFCURVE",
"503 8 CURVE SMOOTH",
"496 7 OFFCURVE",
"490 6 OFFCURVE",
"484 6 CURVE SMOOTH",
"450 6 OFFCURVE",
"438 28 OFFCURVE",
"438 60 CURVE SMOOTH",
"438 81 OFFCURVE",
"444 107 OFFCURVE",
"452 133 CURVE SMOOTH",
"484 232 OFFCURVE",
"580 383 OFFCURVE",
"636 468 CURVE SMOOTH",
"660 505 OFFCURVE",
"676 526 OFFCURVE",
"706 550 CURVE SMOOTH",
"709 552 OFFCURVE",
"704 555 OFFCURVE",
"699 555 CURVE SMOOTH",
"697 555 OFFCURVE",
"695 555 OFFCURVE",
"694 554 CURVE SMOOTH",
"675 536 OFFCURVE",
"658 529 OFFCURVE",
"637 529 CURVE SMOOTH",
"628 529 OFFCURVE",
"619 531 OFFCURVE",
"614 531 CURVE SMOOTH",
"601 531 OFFCURVE",
"595 504 OFFCURVE",
"586 488 CURVE",
"550 409 OFFCURVE",
"497 314 OFFCURVE",
"444 238 CURVE SMOOTH",
"393 166 OFFCURVE",
"306 65 OFFCURVE",
"227 25 CURVE SMOOTH",
"214 18 OFFCURVE",
"199 14 OFFCURVE",
"186 14 CURVE SMOOTH",
"165 14 OFFCURVE",
"150 24 OFFCURVE",
"152 48 CURVE SMOOTH",
"164 153 OFFCURVE",
"290 409 OFFCURVE",
"360 500 CURVE SMOOTH",
"378 523 OFFCURVE",
"407 528 OFFCURVE",
"431 528 CURVE",
"444 543 LINE",
"355 543 OFFCURVE",
"214 542 OFFCURVE",
"214 542 CURVE",
"193 542 OFFCURVE",
"157 546 OFFCURVE",
"121 546 CURVE SMOOTH",
"83 546 OFFCURVE",
"45 542 OFFCURVE",
"25 525 CURVE SMOOTH",
"11 513 OFFCURVE",
"7 496 OFFCURVE",
"7 482 CURVE SMOOTH",
"7 478 OFFCURVE",
"8 474 OFFCURVE",
"8 471 CURVE SMOOTH",
"9 456 OFFCURVE",
"35 417 OFFCURVE",
"47 396 CURVE",
"58 404 LINE",
"55 408 OFFCURVE",
"46 431 OFFCURVE",
"45 442 CURVE SMOOTH",
"40 515 OFFCURVE",
"162 519 OFFCURVE",
"202 519 CURVE SMOOTH",
"290 519 LINE",
"290 427 OFFCURVE",
"200 265 OFFCURVE",
"158 183 CURVE SMOOTH",
"137 143 OFFCURVE",
"117 102 OFFCURVE",
"100 59 CURVE SMOOTH",
"94 43 OFFCURVE",
"89 27 OFFCURVE",
"89 13 CURVE SMOOTH",
"89 -10 OFFCURVE",
"103 -26 OFFCURVE",
"146 -26 CURVE"
);
}
);
width = 611;
}
);
note = U;
unicode = 0055;
},
{
glyphname = V;
lastChange = "2021-04-30 03:09:52 +0000";
layers = (
{
hints = (
{
horizontal = 1;
place = "{531, 15}";
type = Stem;
},
{
place = "{242, 41}";
type = Stem;
}
);
layerId = "A626400C-4409-4FF6-B7A4-72C4E5A5721C";
paths = (
{
closed = 1;
nodes = (
"277 -49 LINE",
"283 -49 OFFCURVE",
"316 -36 OFFCURVE",
"321 -31 CURVE SMOOTH",
"324 -27 OFFCURVE",
"325 -18 OFFCURVE",
"328 -13 CURVE SMOOTH",
"366 53 OFFCURVE",
"413 114 OFFCURVE",
"461 174 CURVE SMOOTH",
"553 291 OFFCURVE",
"653 401 OFFCURVE",
"765 490 CURVE SMOOTH",
"823 537 OFFCURVE",
"866 564 OFFCURVE",
"905 564 CURVE SMOOTH",
"909 564 OFFCURVE",
"913 564 OFFCURVE",
"917 563 CURVE SMOOTH",
"940 560 OFFCURVE",
"946 540 OFFCURVE",
"946 519 CURVE SMOOTH",
"946 503 OFFCURVE",
"942 486 OFFCURVE",
"939 476 CURVE SMOOTH",
"938 471 OFFCURVE",
"953 473 OFFCURVE",
"955 477 CURVE SMOOTH",
"963 497 OFFCURVE",
"984 531 OFFCURVE",
"984 557 CURVE SMOOTH",
"984 578 OFFCURVE",
"971 593 OFFCURVE",
"932 593 CURVE SMOOTH",
"870 593 OFFCURVE",
"787 540 OFFCURVE",
"750 508 CURVE SMOOTH",
"562 352 OFFCURVE",
"423 155 OFFCURVE",
"341 39 CURVE",
"363 118 OFFCURVE",
"379 214 OFFCURVE",
"382 277 CURVE SMOOTH",
"383 294 OFFCURVE",
"383 317 OFFCURVE",
"383 343 CURVE SMOOTH",
"383 404 OFFCURVE",
"379 479 OFFCURVE",
"359 517 CURVE",
"382 517 OFFCURVE",
"406 517 OFFCURVE",
"429 517 CURVE",
"450 543 LINE",
"361 543 OFFCURVE",
"220 542 OFFCURVE",
"220 542 CURVE",
"199 542 OFFCURVE",
"163 546 OFFCURVE",
"127 546 CURVE SMOOTH",
"89 546 OFFCURVE",
"51 542 OFFCURVE",
"31 525 CURVE SMOOTH",
"12 509 OFFCURVE",
"13 484 OFFCURVE",
"14 471 CURVE SMOOTH",
"15 456 OFFCURVE",
"41 417 OFFCURVE",
"53 396 CURVE",
"64 404 LINE",
"61 408 OFFCURVE",
"52 431 OFFCURVE",
"51 442 CURVE SMOOTH",
"46 515 OFFCURVE",
"168 519 OFFCURVE",
"208 519 CURVE SMOOTH",
"251 519 OFFCURVE",
"295 518 OFFCURVE",
"339 518 CURVE",
"344 499 OFFCURVE",
"345 475 OFFCURVE",
"345 449 CURVE SMOOTH",
"345 381 OFFCURVE",
"334 300 OFFCURVE",
"329 257 CURVE SMOOTH",
"320 184 OFFCURVE",
"303 111 OFFCURVE",
"284 38 CURVE SMOOTH",
"279 20 OFFCURVE",
"273 1 OFFCURVE",
"267 -18 CURVE",
"265 -22 OFFCURVE",
"260 -32 OFFCURVE",
"260 -36 CURVE SMOOTH",
"259 -47 OFFCURVE",
"266 -49 OFFCURVE",
"277 -49 CURVE"
);
}
);
width = 538;
}
);
note = V;
unicode = 0056;
},
{
glyphname = W;
lastChange = "2021-04-30 03:09:52 +0000";
layers = (
{
anchors = (
{
name = bottom;
position = "{446, 0}";
},
{
name = top;
position = "{776, 577}";
}
);
hints = (
{
horizontal = 1;
place = "{288, 19}";
type = Stem;
},
{
place = "{476, 44}";
type = Stem;
},
{
place = "{681, 42}";
type = Stem;
}
);
layerId = "A626400C-4409-4FF6-B7A4-72C4E5A5721C";
paths = (
{
closed = 1;
nodes = (
"277 -49 LINE",
"283 -49 OFFCURVE",
"326 -36 OFFCURVE",
"331 -31 CURVE SMOOTH",
"334 -27 OFFCURVE",
"335 -18 OFFCURVE",
"338 -13 CURVE SMOOTH",
"376 53 OFFCURVE",
"453 177 OFFCURVE",
"500 237 CURVE SMOOTH",
"570 325 OFFCURVE",
"620 392 OFFCURVE",
"647 408 CURVE",
"580 308 OFFCURVE",
"596 156 OFFCURVE",
"564 38 CURVE SMOOTH",
"559 20 OFFCURVE",
"553 1 OFFCURVE",
"547 -18 CURVE",
"545 -22 OFFCURVE",
"540 -32 OFFCURVE",
"540 -36 CURVE SMOOTH",
"539 -47 OFFCURVE",
"546 -49 OFFCURVE",
"557 -49 CURVE SMOOTH",
"563 -49 OFFCURVE",
"596 -36 OFFCURVE",
"601 -31 CURVE SMOOTH",
"604 -27 OFFCURVE",
"605 -18 OFFCURVE",
"608 -13 CURVE SMOOTH",
"646 53 OFFCURVE",
"693 114 OFFCURVE",
"741 174 CURVE SMOOTH",
"833 291 OFFCURVE",
"936 401 OFFCURVE",
"1048 490 CURVE SMOOTH",
"1105 537 OFFCURVE",
"1147 564 OFFCURVE",
"1185 564 CURVE SMOOTH",
"1189 564 OFFCURVE",
"1193 564 OFFCURVE",
"1197 563 CURVE SMOOTH",
"1220 560 OFFCURVE",
"1226 540 OFFCURVE",
"1226 519 CURVE SMOOTH",
"1226 503 OFFCURVE",
"1222 486 OFFCURVE",
"1219 476 CURVE SMOOTH",
"1218 471 OFFCURVE",
"1233 473 OFFCURVE",
"1235 477 CURVE SMOOTH",
"1243 497 OFFCURVE",
"1264 531 OFFCURVE",
"1264 557 CURVE SMOOTH",
"1264 578 OFFCURVE",
"1251 593 OFFCURVE",
"1212 593 CURVE SMOOTH",
"1150 593 OFFCURVE",
"1069 540 OFFCURVE",
"1032 508 CURVE SMOOTH",
"845 352 OFFCURVE",
"703 155 OFFCURVE",
"621 39 CURVE",
"651 146 OFFCURVE",
"622 362 OFFCURVE",
"725 465 CURVE SMOOTH",
"748 488 OFFCURVE",
"795 516 OFFCURVE",
"833 516 CURVE SMOOTH",
"839 516 OFFCURVE",
"844 515 OFFCURVE",
"849 514 CURVE",
"855 525 LINE",
"845 531 OFFCURVE",
"826 535 OFFCURVE",
"806 535 CURVE SMOOTH",
"732 535 OFFCURVE",
"673 471 OFFCURVE",
"624 419 CURVE SMOOTH",
"499 287 OFFCURVE",
"406 130 OFFCURVE",
"341 39 CURVE",
"363 118 OFFCURVE",
"379 214 OFFCURVE",
"382 277 CURVE SMOOTH",
"382 289 OFFCURVE",
"383 305 OFFCURVE",
"383 323 CURVE SMOOTH",
"383 386 OFFCURVE",
"374 475 OFFCURVE",
"310 518 CURVE",
"350 518 OFFCURVE",
"389 517 OFFCURVE",
"429 517 CURVE",
"450 543 LINE",
"361 543 OFFCURVE",
"220 542 OFFCURVE",
"220 542 CURVE",
"199 542 OFFCURVE",
"163 546 OFFCURVE",
"127 546 CURVE SMOOTH",
"89 546 OFFCURVE",
"51 542 OFFCURVE",
"31 525 CURVE SMOOTH",
"12 509 OFFCURVE",
"13 484 OFFCURVE",
"14 471 CURVE SMOOTH",
"15 456 OFFCURVE",
"41 417 OFFCURVE",
"53 396 CURVE",
"64 404 LINE",
"61 408 OFFCURVE",
"52 431 OFFCURVE",
"51 442 CURVE SMOOTH",
"46 515 OFFCURVE",
"168 519 OFFCURVE",
"208 519 CURVE SMOOTH",
"233 519 OFFCURVE",
"259 519 OFFCURVE",
"284 519 CURVE",
"323 473 OFFCURVE",
"333 393 OFFCURVE",
"333 329 CURVE SMOOTH",
"333 301 OFFCURVE",
"331 275 OFFCURVE",
"329 257 CURVE SMOOTH",
"320 184 OFFCURVE",
"303 111 OFFCURVE",
"284 38 CURVE SMOOTH",
"279 20 OFFCURVE",
"273 1 OFFCURVE",
"267 -18 CURVE",
"265 -22 OFFCURVE",
"260 -32 OFFCURVE",
"260 -36 CURVE SMOOTH",
"259 -47 OFFCURVE",
"266 -49 OFFCURVE",
"277 -49 CURVE"
);
}
);
width = 892;
}
);
note = W;
unicode = 0057;
},
{
glyphname = X;
lastChange = "2021-04-30 03:09:52 +0000";
layers = (
{
hints = (
{
horizontal = 1;
place = "{-5, 32}";
type = Stem;
},
{
horizontal = 1;
place = "{287, -20}";
target = down;
type = TopGhost;
},
{
horizontal = 1;
place = "{519, 26}";
type = Stem;
},
{
place = "{-111, 19}";
type = Stem;
},
{
place = "{14, 37}";
type = Stem;
},
{
place = "{273, 29}";
type = Stem;
},
{
place = "{728, 36}";
type = Stem;
},
{
horizontal = 1;
place = "{535, 30}";
type = Stem;
},
{
horizontal = 1;
place = "{517, 24}";
type = Stem;
},
{
horizontal = 1;
place = "{266, -20}";
target = down;
type = TopGhost;
}
);
layerId = "A626400C-4409-4FF6-B7A4-72C4E5A5721C";
paths = (
{
closed = 1;
nodes = (
"-59 -59 LINE",
"-53 -59 OFFCURVE",
"-47 -58 OFFCURVE",
"-40 -57 CURVE SMOOTH",
"70 -34 OFFCURVE",
"182 101 OFFCURVE",
"298 225 CURVE",
"314 151 OFFCURVE",
"338 68 OFFCURVE",
"369 25 CURVE SMOOTH",
"384 4 OFFCURVE",
"403 -5 OFFCURVE",
"423 -5 CURVE SMOOTH",
"475 -5 OFFCURVE",
"538 56 OFFCURVE",
"584 113 CURVE SMOOTH",
"591 121 OFFCURVE",
"594 132 OFFCURVE",
"594 138 CURVE SMOOTH",
"594 141 OFFCURVE",
"594 143 OFFCURVE",
"592 143 CURVE SMOOTH",
"591 143 OFFCURVE",
"588 141 OFFCURVE",
"585 137 CURVE SMOOTH",
"552 95 OFFCURVE",
"500 27 OFFCURVE",
"457 27 CURVE SMOOTH",
"444 27 OFFCURVE",
"432 33 OFFCURVE",
"422 47 CURVE SMOOTH",
"387 96 OFFCURVE",
"343 233 OFFCURVE",
"334 266 CURVE",
"336 268 OFFCURVE",
"336 270 OFFCURVE",
"337 272 CURVE",
"402 335 OFFCURVE",
"548 479 OFFCURVE",
"631 520 CURVE SMOOTH",
"651 531 OFFCURVE",
"669 536 OFFCURVE",
"686 536 CURVE SMOOTH",
"719 536 OFFCURVE",
"728 514 OFFCURVE",
"728 489 CURVE SMOOTH",
"728 474 OFFCURVE",
"724 458 OFFCURVE",
"722 448 CURVE SMOOTH",
"720 442 OFFCURVE",
"734 445 OFFCURVE",
"736 449 CURVE SMOOTH",
"745 469 OFFCURVE",
"764 501 OFFCURVE",
"764 526 CURVE SMOOTH",
"764 545 OFFCURVE",
"754 560 OFFCURVE",
"721 565 CURVE SMOOTH",
"716 566 OFFCURVE",
"710 566 OFFCURVE",
"705 566 CURVE SMOOTH",
"677 566 OFFCURVE",
"650 556 OFFCURVE",
"623 542 CURVE SMOOTH",
"530 491 OFFCURVE",
"400 358 OFFCURVE",
"330 287 CURVE",
"319 333 OFFCURVE",
"301 418 OFFCURVE",
"301 490 CURVE SMOOTH",
"301 500 OFFCURVE",
"301 509 OFFCURVE",
"302 518 CURVE",
"344 518 OFFCURVE",
"387 517 OFFCURVE",
"429 517 CURVE",
"450 543 LINE",
"361 543 OFFCURVE",
"220 542 OFFCURVE",
"220 542 CURVE",
"199 542 OFFCURVE",
"163 546 OFFCURVE",
"127 546 CURVE SMOOTH",
"89 546 OFFCURVE",
"51 542 OFFCURVE",
"31 525 CURVE SMOOTH",
"12 509 OFFCURVE",
"13 484 OFFCURVE",
"14 471 CURVE SMOOTH",
"15 456 OFFCURVE",
"41 417 OFFCURVE",
"53 396 CURVE",
"64 404 LINE",
"61 408 OFFCURVE",
"52 431 OFFCURVE",
"51 442 CURVE SMOOTH",
"46 515 OFFCURVE",
"168 519 OFFCURVE",
"208 519 CURVE SMOOTH",
"235 519 OFFCURVE",
"262 519 OFFCURVE",
"289 518 CURVE",
"277 501 OFFCURVE",
"273 468 OFFCURVE",
"273 430 CURVE SMOOTH",
"273 393 OFFCURVE",
"277 351 OFFCURVE",
"282 312 CURVE SMOOTH",
"285 293 OFFCURVE",
"288 270 OFFCURVE",
"293 246 CURVE",
"181 125 OFFCURVE",
"60 6 OFFCURVE",
"-33 -13 CURVE SMOOTH",
"-40 -14 OFFCURVE",
"-47 -15 OFFCURVE",
"-53 -15 CURVE SMOOTH",
"-77 -15 OFFCURVE",
"-92 -4 OFFCURVE",
"-92 21 CURVE SMOOTH",
"-92 33 OFFCURVE",
"-88 49 OFFCURVE",
"-80 68 CURVE",
"-79 72 OFFCURVE",
"-79 76 OFFCURVE",
"-82 76 CURVE SMOOTH",
"-84 76 OFFCURVE",
"-88 72 OFFCURVE",
"-93 60 CURVE SMOOTH",
"-103 37 OFFCURVE",
"-111 12 OFFCURVE",
"-111 -5 CURVE SMOOTH",
"-111 -42 OFFCURVE",
"-90 -59 OFFCURVE",
"-59 -59 CURVE"
);
}
);
width = 542;
}
);
note = X;
unicode = 0058;
},
{
glyphname = Y;
lastChange = "2021-04-30 03:09:52 +0000";
layers = (
{
anchors = (
{
name = bottom;
position = "{226, 0}";
},
{
name = top;
position = "{492, 553}";
},
{
name = topleft;
position = "{20, 577}";
}
);
hints = (
{
horizontal = 1;
place = "{-39, 38}";
type = Stem;
},
{
horizontal = 1;
place = "{519, 26}";
type = Stem;
},
{
place = "{8, 10}";
type = Stem;
},
{
place = "{65, 38}";
type = Stem;
},
{
place = "{320, 43}";
type = Stem;
},
{
place = "{700, 23}";
type = Stem;
},
{
horizontal = 1;
place = "{541, 31}";
type = Stem;
},
{
horizontal = 1;
place = "{517, 25}";
type = Stem;
}
);
layerId = "A626400C-4409-4FF6-B7A4-72C4E5A5721C";
paths = (
{
closed = 1;
nodes = (
"117 -39 LINE",
"208 -39 OFFCURVE",
"265 32 OFFCURVE",
"308 107 CURVE SMOOTH",
"384 239 OFFCURVE",
"435 331 OFFCURVE",
"539 452 CURVE SMOOTH",
"577 496 OFFCURVE",
"626 541 OFFCURVE",
"664 541 CURVE SMOOTH",
"690 541 OFFCURVE",
"702 517 OFFCURVE",
"702 493 CURVE SMOOTH",
"702 487 OFFCURVE",
"702 480 OFFCURVE",
"700 474 CURVE SMOOTH",
"699 469 OFFCURVE",
"706 469 OFFCURVE",
"708 474 CURVE SMOOTH",
"712 483 OFFCURVE",
"723 502 OFFCURVE",
"723 523 CURVE SMOOTH",
"723 530 OFFCURVE",
"721 538 OFFCURVE",
"718 545 CURVE SMOOTH",
"709 565 OFFCURVE",
"695 572 OFFCURVE",
"677 572 CURVE SMOOTH",
"618 572 OFFCURVE",
"560 503 OFFCURVE",
"527 466 CURVE SMOOTH",
"456 385 OFFCURVE",
"403 289 OFFCURVE",
"341 202 CURVE",
"352 241 OFFCURVE",
"363 300 OFFCURVE",
"363 357 CURVE SMOOTH",
"363 423 OFFCURVE",
"348 487 OFFCURVE",
"301 519 CURVE",
"338 518 OFFCURVE",
"353 517 OFFCURVE",
"410 517 CURVE",
"431 543 LINE",
"342 543 OFFCURVE",
"271 542 OFFCURVE",
"271 542 CURVE",
"250 542 OFFCURVE",
"214 546 OFFCURVE",
"178 546 CURVE SMOOTH",
"140 546 OFFCURVE",
"102 542 OFFCURVE",
"82 525 CURVE SMOOTH",
"64 509 OFFCURVE",
"64 484 OFFCURVE",
"65 471 CURVE SMOOTH",
"67 456 OFFCURVE",
"93 417 OFFCURVE",
"105 396 CURVE",
"115 404 LINE",
"113 408 OFFCURVE",
"104 431 OFFCURVE",
"103 442 CURVE SMOOTH",
"97 515 OFFCURVE",
"220 519 OFFCURVE",
"259 519 CURVE SMOOTH",
"283 519 LINE",
"311 487 OFFCURVE",
"320 433 OFFCURVE",
"320 377 CURVE SMOOTH",
"320 312 OFFCURVE",
"307 243 OFFCURVE",
"296 200 CURVE",
"292 189 OFFCURVE",
"289 177 OFFCURVE",
"285 166 CURVE SMOOTH",
"284 163 OFFCURVE",
"281 157 OFFCURVE",
"281 155 CURVE SMOOTH",
"280 148 OFFCURVE",
"285 147 OFFCURVE",
"291 147 CURVE SMOOTH",
"294 147 OFFCURVE",
"304 150 OFFCURVE",
"311 154 CURVE",
"261 82 OFFCURVE",
"189 -1 OFFCURVE",
"101 -1 CURVE SMOOTH",
"53 -1 OFFCURVE",
"18 32 OFFCURVE",
"18 94 CURVE SMOOTH",
"18 99 OFFCURVE",
"15 103 OFFCURVE",
"13 103 CURVE SMOOTH",
"10 103 OFFCURVE",
"8 99 OFFCURVE",
"8 89 CURVE SMOOTH",
"8 70 OFFCURVE",
"9 49 OFFCURVE",
"16 32 CURVE SMOOTH",
"35 -16 OFFCURVE",
"76 -39 OFFCURVE",
"117 -39 CURVE"
);
}
);
width = 452;
}
);
note = Y;
unicode = 0059;
},
{
glyphname = Z;
lastChange = "2021-04-30 03:09:52 +0000";
layers = (
{
anchors = (
{
name = bottom;
position = "{180, 8}";
},
{
name = center;
position = "{227, 289}";
},
{
name = top;
position = "{389, 545}";
}
);
hints = (
{
horizontal = 1;
place = "{-254, 37}";
type = Stem;
},
{
horizontal = 1;
place = "{99, 27}";
type = Stem;
},
{
horizontal = 1;
place = "{519, 26}";
type = Stem;
},
{
place = "{151, 37}";
type = Stem;
},
{
place = "{727, 25}";
type = Stem;
}
);
layerId = "A626400C-4409-4FF6-B7A4-72C4E5A5721C";
paths = (
{
closed = 1;
nodes = (
"640 -254 LINE",
"700 -253 OFFCURVE",
"752 -202 OFFCURVE",
"752 -146 CURVE SMOOTH",
"752 -127 OFFCURVE",
"746 -107 OFFCURVE",
"732 -89 CURVE SMOOTH",
"721 -75 OFFCURVE",
"707 -64 OFFCURVE",
"693 -55 CURVE SMOOTH",
"691 -54 OFFCURVE",
"678 -62 OFFCURVE",
"680 -65 CURVE",
"687 -72 OFFCURVE",
"698 -84 OFFCURVE",
"707 -99 CURVE SMOOTH",
"720 -120 OFFCURVE",
"727 -142 OFFCURVE",
"727 -161 CURVE SMOOTH",
"727 -193 OFFCURVE",
"708 -217 OFFCURVE",
"664 -217 CURVE SMOOTH",
"609 -217 OFFCURVE",
"518 -132 OFFCURVE",
"438 -37 CURVE SMOOTH",
"359 59 OFFCURVE",
"297 126 OFFCURVE",
"213 126 CURVE SMOOTH",
"181 126 OFFCURVE",
"146 117 OFFCURVE",
"106 96 CURVE",
"255 257 OFFCURVE",
"421 404 OFFCURVE",
"589 525 CURVE SMOOTH",
"592 527 OFFCURVE",
"595 538 OFFCURVE",
"595 542 CURVE SMOOTH",
"595 544 OFFCURVE",
"595 545 OFFCURVE",
"594 545 CURVE SMOOTH",
"361 545 LINE SMOOTH",
"342 545 OFFCURVE",
"310 547 OFFCURVE",
"277 547 CURVE SMOOTH",
"234 547 OFFCURVE",
"189 543 OFFCURVE",
"168 525 CURVE SMOOTH",
"154 513 OFFCURVE",
"150 496 OFFCURVE",
"150 482 CURVE SMOOTH",
"150 478 OFFCURVE",
"151 474 OFFCURVE",
"151 471 CURVE SMOOTH",
"152 456 OFFCURVE",
"178 417 OFFCURVE",
"190 396 CURVE",
"200 404 LINE",
"198 408 OFFCURVE",
"189 431 OFFCURVE",
"188 442 CURVE SMOOTH",
"182 515 OFFCURVE",
"305 519 OFFCURVE",
"344 519 CURVE SMOOTH",
"407 519 OFFCURVE",
"470 518 OFFCURVE",
"533 517 CURVE",
"389 401 OFFCURVE",
"68 141 OFFCURVE",
"-21 -2 CURVE SMOOTH",
"-26 -10 OFFCURVE",
"-28 -18 OFFCURVE",
"-28 -25 CURVE SMOOTH",
"-28 -42 OFFCURVE",
"-13 -54 OFFCURVE",
"1 -54 CURVE SMOOTH",
"8 -54 OFFCURVE",
"16 -51 OFFCURVE",
"21 -44 CURVE SMOOTH",
"30 -32 OFFCURVE",
"33 -17 OFFCURVE",
"37 -1 CURVE SMOOTH",
"55 59 OFFCURVE",
"121 99 OFFCURVE",
"184 99 CURVE SMOOTH",
"258 99 OFFCURVE",
"302 35 OFFCURVE",
"364 -36 CURVE SMOOTH",
"428 -109 OFFCURVE",
"533 -254 OFFCURVE",
"640 -254 CURVE"
);
}
);
width = 453;
}
);
note = Z;
unicode = 005A;
},
{
glyphname = bracketleft;
lastChange = "2021-04-30 03:09:52 +0000";
layers = (
{
hints = (
{
horizontal = 1;
place = "{-104, 35}";
type = Stem;
},
{
horizontal = 1;
place = "{564, 31}";
type = Stem;
},
{
place = "{9, 552}";
type = Stem;
}
);
layerId = "A626400C-4409-4FF6-B7A4-72C4E5A5721C";
paths = (
{
closed = 1;
nodes = (
"9 -104 LINE",
"37 -104 OFFCURVE",
"71 -104 OFFCURVE",
"105 -104 CURVE SMOOTH",
"158 -104 OFFCURVE",
"212 -104 OFFCURVE",
"249 -100 CURVE",
"303 -69 LINE",
"270 -73 OFFCURVE",
"223 -74 OFFCURVE",
"179 -74 CURVE SMOOTH",
"134 -74 OFFCURVE",
"91 -73 OFFCURVE",
"63 -72 CURVE",
"89 -21 OFFCURVE",
"281 380 OFFCURVE",
"367 534 CURVE SMOOTH",
"376 551 OFFCURVE",
"399 563 OFFCURVE",
"415 564 CURVE SMOOTH",
"442 566 OFFCURVE",
"474 565 OFFCURVE",
"514 556 CURVE",
"561 592 LINE",
"512 592 OFFCURVE",
"472 595 OFFCURVE",
"435 595 CURVE SMOOTH",
"413 595 OFFCURVE",
"391 594 OFFCURVE",
"369 590 CURVE",
"312 553 LINE",
"213 352 OFFCURVE",
"103 99 OFFCURVE",
"9 -104 CURVE"
);
}
);
width = 362;
}
);
note = bracketleft;
unicode = 005B;
},
{
glyphname = backslash;
lastChange = "2021-04-30 03:09:52 +0000";
layers = (
{
hints = (
{
horizontal = 1;
place = "{611, -20}";
target = down;
type = TopGhost;
}
);
layerId = "A626400C-4409-4FF6-B7A4-72C4E5A5721C";
paths = (
{
closed = 1;
nodes = (
"494 -33 LINE",
"502 -33 OFFCURVE",
"510 -31 OFFCURVE",
"510 -27 CURVE SMOOTH",
"510 -26 OFFCURVE",
"509 -26 OFFCURVE",
"509 -25 CURVE",
"421 105 OFFCURVE",
"173 478 OFFCURVE",
"63 610 CURVE SMOOTH",
"59 615 OFFCURVE",
"-2 599 OFFCURVE",
"1 596 CURVE SMOOTH",
"131 444 OFFCURVE",
"385 86 OFFCURVE",
"476 -28 CURVE SMOOTH",
"479 -31 OFFCURVE",
"487 -33 OFFCURVE",
"494 -33 CURVE"
);
}
);
width = 498;
}
);
note = backslash;
unicode = 005C;
},
{
glyphname = bracketright;
lastChange = "2021-04-30 03:09:52 +0000";
layers = (
{
hints = (
{
horizontal = 1;
place = "{-107, 31}";
type = Stem;
},
{
horizontal = 1;
place = "{560, 32}";
type = Stem;
},
{
place = "{-55, 552}";
type = Stem;
}
);
layerId = "A626400C-4409-4FF6-B7A4-72C4E5A5721C";
paths = (
{
closed = 1;
nodes = (
"71 -107 LINE",
"93 -107 OFFCURVE",
"115 -106 OFFCURVE",
"137 -102 CURVE",
"194 -65 LINE",
"293 135 OFFCURVE",
"403 389 OFFCURVE",
"497 592 CURVE",
"469 592 OFFCURVE",
"435 592 OFFCURVE",
"401 592 CURVE SMOOTH",
"348 592 OFFCURVE",
"294 592 OFFCURVE",
"257 588 CURVE",
"204 557 LINE",
"237 560 OFFCURVE",
"283 561 OFFCURVE",
"328 561 CURVE SMOOTH",
"372 561 OFFCURVE",
"416 560 OFFCURVE",
"443 560 CURVE",
"418 509 OFFCURVE",
"226 108 OFFCURVE",
"140 -46 CURVE SMOOTH",
"130 -63 OFFCURVE",
"107 -75 OFFCURVE",
"92 -76 CURVE SMOOTH",
"64 -78 OFFCURVE",
"33 -77 OFFCURVE",
"-7 -68 CURVE",
"-55 -104 LINE",
"-6 -104 OFFCURVE",
"34 -107 OFFCURVE",
"71 -107 CURVE"
);
}
);
width = 397;
}
);
note = bracketright;
unicode = 005D;
},
{
glyphname = asciicircum;
lastChange = "2021-04-30 03:09:52 +0000";
layers = (
{
hints = (
{
horizontal = 1;
place = "{249, 98}";
type = Stem;
},
{
place = "{85, 229}";
type = Stem;
}
);
layerId = "A626400C-4409-4FF6-B7A4-72C4E5A5721C";
paths = (
{
closed = 1;
nodes = (
"309 249 LINE",
"314 255 LINE",
"310 262 LINE",
"276 288 OFFCURVE",
"242 314 OFFCURVE",
"214 345 CURVE",
"209 347 LINE",
"194 345 OFFCURVE",
"86 270 OFFCURVE",
"85 260 CURVE",
"84 257 OFFCURVE",
"87 252 OFFCURVE",
"90 252 CURVE SMOOTH",
"98 252 OFFCURVE",
"181 308 OFFCURVE",
"194 317 CURVE",
"210 300 OFFCURVE",
"285 250 OFFCURVE",
"309 249 CURVE"
);
}
);
width = 313;
}
);
note = asciicircum;
unicode = 005E;
},
{
glyphname = grave;
lastChange = "2021-04-30 03:09:52 +0000";
layers = (
{
hints = (
{
horizontal = 1;
place = "{294, 20}";
type = Stem;
}
);
layerId = "A626400C-4409-4FF6-B7A4-72C4E5A5721C";
paths = (
{
closed = 1;
nodes = (
"184 335 LINE",
"185 335 OFFCURVE",
"183 342 OFFCURVE",
"183 342 CURVE",
"158 361 OFFCURVE",
"129 385 OFFCURVE",
"106 405 CURVE SMOOTH",
"98 412 OFFCURVE",
"61 444 OFFCURVE",
"52 444 CURVE SMOOTH",
"50 444 OFFCURVE",
"49 440 OFFCURVE",
"49 435 CURVE SMOOTH",
"49 427 OFFCURVE",
"51 415 OFFCURVE",
"53 413 CURVE",
"60 401 OFFCURVE",
"168 338 OFFCURVE",
"184 335 CURVE"
);
}
);
width = 223;
}
);
note = grave;
unicode = 0060;
},
{
glyphname = a;
lastChange = "2021-04-30 03:09:52 +0000";
layers = (
{
anchors = (
{
name = bottom;
position = "{86, 0}";
},
{
name = ogonek;
position = "{196, 10}";
},
{
name = top;
position = "{239, 273}";
}
);
hints = (
{
horizontal = 1;
place = "{257, 15}";
type = Stem;
}
);
layerId = "A626400C-4409-4FF6-B7A4-72C4E5A5721C";
paths = (
{
closed = 1;
nodes = (
"170 -3 LINE",
"234 -3 OFFCURVE",
"295 62 OFFCURVE",
"335 115 CURVE SMOOTH",
"341 123 OFFCURVE",
"355 140 OFFCURVE",
"347 148 CURVE",
"320 115 OFFCURVE",
"251 26 OFFCURVE",
"212 26 CURVE SMOOTH",
"204 26 OFFCURVE",
"198 32 OFFCURVE",
"198 40 CURVE SMOOTH",
"198 72 OFFCURVE",
"268 198 OFFCURVE",
"288 228 CURVE SMOOTH",
"295 239 OFFCURVE",
"309 261 OFFCURVE",
"323 261 CURVE SMOOTH",
"327 261 OFFCURVE",
"332 264 OFFCURVE",
"332 269 CURVE SMOOTH",
"332 272 OFFCURVE",
"330 273 OFFCURVE",
"327 273 CURVE SMOOTH",
"212 273 LINE SMOOTH",
"185 273 OFFCURVE",
"159 264 OFFCURVE",
"137 247 CURVE SMOOTH",
"76 200 OFFCURVE",
"13 105 OFFCURVE",
"4 27 CURVE",
"3 25 OFFCURVE",
"3 22 OFFCURVE",
"3 20 CURVE SMOOTH",
"3 8 OFFCURVE",
"8 -2 OFFCURVE",
"21 -2 CURVE SMOOTH",
"56 -2 OFFCURVE",
"86 20 OFFCURVE",
"112 42 CURVE SMOOTH",
"137 64 OFFCURVE",
"162 88 OFFCURVE",
"185 112 CURVE",
"171 90 OFFCURVE",
"146 43 OFFCURVE",
"146 16 CURVE SMOOTH",
"146 1 OFFCURVE",
"156 -3 OFFCURVE",
"170 -3 CURVE"
);
},
{
closed = 1;
nodes = (
"62 32 LINE",
"55 32 OFFCURVE",
"54 38 OFFCURVE",
"54 44 CURVE SMOOTH",
"54 86 OFFCURVE",
"122 197 OFFCURVE",
"153 226 CURVE SMOOTH",
"168 240 OFFCURVE",
"196 260 OFFCURVE",
"217 260 CURVE SMOOTH",
"230 260 OFFCURVE",
"240 256 OFFCURVE",
"240 241 CURVE SMOOTH",
"240 199 OFFCURVE",
"102 32 OFFCURVE",
"62 32 CURVE"
);
}
);
width = 294;
}
);
note = a;
unicode = 0061;
},
{
glyphname = b;
lastChange = "2021-04-30 03:09:52 +0000";
layers = (
{
hints = (
{
horizontal = 1;
place = "{-9, 17}";
type = Stem;
},
{
horizontal = 1;
place = "{238, 34}";
type = Stem;
},
{
horizontal = 1;
place = "{575, 37}";
type = Stem;
},
{
place = "{27, 43}";
type = Stem;
},
{
place = "{255, 49}";
type = Stem;
},
{
place = "{502, 9}";
type = Stem;
}
);
layerId = "A626400C-4409-4FF6-B7A4-72C4E5A5721C";
paths = (
{
closed = 1;
nodes = (
"76 -9 LINE",
"188 -9 OFFCURVE",
"290 139 OFFCURVE",
"304 239 CURVE SMOOTH",
"304 242 OFFCURVE",
"304 245 OFFCURVE",
"304 248 CURVE SMOOTH",
"304 260 OFFCURVE",
"301 272 OFFCURVE",
"287 272 CURVE SMOOTH",
"229 272 OFFCURVE",
"136 168 OFFCURVE",
"134 168 CURVE SMOOTH",
"132 168 OFFCURVE",
"133 172 OFFCURVE",
"133 172 CURVE",
"195 308 OFFCURVE",
"275 575 OFFCURVE",
"460 575 CURVE SMOOTH",
"478 575 OFFCURVE",
"502 569 OFFCURVE",
"502 548 CURVE SMOOTH",
"502 546 OFFCURVE",
"504 546 OFFCURVE",
"505 546 CURVE SMOOTH",
"507 546 OFFCURVE",
"511 547 OFFCURVE",
"511 550 CURVE SMOOTH",
"511 579 LINE SMOOTH",
"510 601 OFFCURVE",
"490 612 OFFCURVE",
"470 612 CURVE SMOOTH",
"413 612 OFFCURVE",
"354 563 OFFCURVE",
"315 525 CURVE SMOOTH",
"228 439 OFFCURVE",
"160 325 OFFCURVE",
"104 208 CURVE",
"81 179 OFFCURVE",
"55 152 OFFCURVE",
"37 128 CURVE SMOOTH",
"34 124 OFFCURVE",
"32 117 OFFCURVE",
"32 113 CURVE SMOOTH",
"32 110 OFFCURVE",
"33 108 OFFCURVE",
"34 108 CURVE SMOOTH",
"35 108 OFFCURVE",
"37 109 OFFCURVE",
"39 112 CURVE SMOOTH",
"45 120 OFFCURVE",
"63 138 OFFCURVE",
"80 158 CURVE",
"64 121 OFFCURVE",
"49 85 OFFCURVE",
"36 50 CURVE SMOOTH",
"32 41 OFFCURVE",
"27 27 OFFCURVE",
"27 18 CURVE SMOOTH",
"27 -6 OFFCURVE",
"59 -9 OFFCURVE",
"76 -9 CURVE"
);
},
{
closed = 1;
nodes = (
"92 8 LINE",
"79 8 OFFCURVE",
"70 13 OFFCURVE",
"70 28 CURVE SMOOTH",
"70 60 OFFCURVE",
"120 124 OFFCURVE",
"142 149 CURVE SMOOTH",
"158 168 OFFCURVE",
"223 238 OFFCURVE",
"246 238 CURVE SMOOTH",
"253 238 OFFCURVE",
"255 231 OFFCURVE",
"255 225 CURVE SMOOTH",
"255 183 OFFCURVE",
"187 72 OFFCURVE",
"155 43 CURVE SMOOTH",
"141 29 OFFCURVE",
"113 8 OFFCURVE",
"92 8 CURVE"
);
}
);
width = 269;
}
);
note = b;
unicode = 0062;
},
{
glyphname = c;
lastChange = "2021-04-30 03:09:52 +0000";
layers = (
{
anchors = (
{
name = bottom;
position = "{59, 0}";
},
{
name = top;
position = "{239, 278}";
}
);
hints = (
{
horizontal = 1;
place = "{-1, 15}";
type = Stem;
},
{
horizontal = 1;
place = "{255, 15}";
type = Stem;
}
);
layerId = "A626400C-4409-4FF6-B7A4-72C4E5A5721C";
paths = (
{
closed = 1;
nodes = (
"76 -8 LINE",
"151 -8 OFFCURVE",
"240 62 OFFCURVE",
"282 119 CURVE SMOOTH",
"285 124 OFFCURVE",
"292 134 OFFCURVE",
"292 141 CURVE SMOOTH",
"292 143 OFFCURVE",
"292 145 OFFCURVE",
"290 147 CURVE",
"264 111 OFFCURVE",
"195 46 OFFCURVE",
"136 27 CURVE SMOOTH",
"119 21 OFFCURVE",
"103 17 OFFCURVE",
"90 17 CURVE SMOOTH",
"72 17 OFFCURVE",
"59 25 OFFCURVE",
"59 48 CURVE SMOOTH",
"59 57 OFFCURVE",
"61 69 OFFCURVE",
"66 84 CURVE SMOOTH",
"81 132 OFFCURVE",
"117 191 OFFCURVE",
"152 227 CURVE SMOOTH",
"163 239 OFFCURVE",
"196 261 OFFCURVE",
"220 261 CURVE SMOOTH",
"243 261 OFFCURVE",
"254 230 OFFCURVE",
"254 205 CURVE SMOOTH",
"254 198 OFFCURVE",
"252 193 OFFCURVE",
"252 187 CURVE SMOOTH",
"252 181 OFFCURVE",
"263 186 OFFCURVE",
"267 194 CURVE SMOOTH",
"274 208 OFFCURVE",
"280 226 OFFCURVE",
"280 242 CURVE SMOOTH",
"280 262 OFFCURVE",
"270 278 OFFCURVE",
"239 278 CURVE SMOOTH",
"213 278 OFFCURVE",
"170 258 OFFCURVE",
"149 245 CURVE SMOOTH",
"115 225 OFFCURVE",
"86 197 OFFCURVE",
"64 166 CURVE SMOOTH",
"41 134 OFFCURVE",
"9 81 OFFCURVE",
"9 42 CURVE SMOOTH",
"9 13 OFFCURVE",
"26 -8 OFFCURVE",
"76 -8 CURVE"
);
}
);
width = 238;
}
);
note = c;
unicode = 0063;
},
{
glyphname = d;
lastChange = "2021-04-30 03:09:52 +0000";
layers = (
{
anchors = (
{
name = bottom;
position = "{89, 0}";
},
{
name = center;
position = "{147, 137}";
},
{
name = top;
position = "{552, 613}";
},
{
name = topright;
position = "{649, 595}";
}
);
hints = (
{
horizontal = 1;
place = "{-3, 29}";
type = Stem;
},
{
horizontal = 1;
place = "{260, 13}";
type = Stem;
},
{
horizontal = 1;
place = "{581, 31}";
type = Stem;
},
{
place = "{3, 51}";
type = Stem;
},
{
place = "{146, 52}";
type = Stem;
},
{
place = "{240, 110}";
type = Stem;
},
{
horizontal = 1;
place = "{-2, 34}";
type = Stem;
}
);
layerId = "A626400C-4409-4FF6-B7A4-72C4E5A5721C";
paths = (
{
closed = 1;
nodes = (
"170 -3 LINE",
"234 -3 OFFCURVE",
"298 66 OFFCURVE",
"335 115 CURVE SMOOTH",
"340 122 OFFCURVE",
"350 132 OFFCURVE",
"350 141 CURVE SMOOTH",
"350 144 OFFCURVE",
"349 146 OFFCURVE",
"347 148 CURVE",
"327 120 OFFCURVE",
"243 26 OFFCURVE",
"210 26 CURVE SMOOTH",
"202 26 OFFCURVE",
"198 32 OFFCURVE",
"198 40 CURVE SMOOTH",
"198 66 OFFCURVE",
"259 185 OFFCURVE",
"273 216 CURVE SMOOTH",
"301 278 OFFCURVE",
"364 405 OFFCURVE",
"392 455 CURVE SMOOTH",
"430 522 OFFCURVE",
"462 563 OFFCURVE",
"499 576 CURVE SMOOTH",
"510 580 OFFCURVE",
"521 581 OFFCURVE",
"531 581 CURVE SMOOTH",
"560 581 OFFCURVE",
"582 568 OFFCURVE",
"586 544 CURVE",
"587 543 OFFCURVE",
"588 542 OFFCURVE",
"589 542 CURVE SMOOTH",
"590 542 OFFCURVE",
"594 544 OFFCURVE",
"594 546 CURVE SMOOTH",
"596 582 LINE SMOOTH",
"597 602 OFFCURVE",
"579 612 OFFCURVE",
"562 612 CURVE SMOOTH",
"481 612 OFFCURVE",
"416 551 OFFCURVE",
"361 458 CURVE SMOOTH",
"331 408 OFFCURVE",
"292 327 OFFCURVE",
"260 273 CURVE",
"248 273 OFFCURVE",
"237 273 OFFCURVE",
"227 273 CURVE SMOOTH",
"194 273 OFFCURVE",
"168 270 OFFCURVE",
"137 247 CURVE SMOOTH",
"76 201 OFFCURVE",
"13 104 OFFCURVE",
"4 27 CURVE",
"3 25 OFFCURVE",
"3 22 OFFCURVE",
"3 20 CURVE SMOOTH",
"3 8 OFFCURVE",
"8 -2 OFFCURVE",
"21 -2 CURVE SMOOTH",
"56 -2 OFFCURVE",
"86 21 OFFCURVE",
"112 42 CURVE SMOOTH",
"137 64 OFFCURVE",
"162 88 OFFCURVE",
"185 112 CURVE",
"171 90 OFFCURVE",
"146 43 OFFCURVE",
"146 16 CURVE SMOOTH",
"146 1 OFFCURVE",
"156 -3 OFFCURVE",
"170 -3 CURVE"
);
},
{
closed = 1;
nodes = (
"62 32 LINE",
"55 32 OFFCURVE",
"54 38 OFFCURVE",
"54 44 CURVE SMOOTH",
"54 86 OFFCURVE",
"122 197 OFFCURVE",
"153 226 CURVE SMOOTH",
"168 240 OFFCURVE",
"196 260 OFFCURVE",
"217 260 CURVE SMOOTH",
"230 260 OFFCURVE",
"240 256 OFFCURVE",
"240 241 CURVE SMOOTH",
"240 199 OFFCURVE",
"102 32 OFFCURVE",
"62 32 CURVE"
);
}
);
width = 294;
}
);
note = d;
unicode = 0064;
},
{
glyphname = e;
lastChange = "2021-04-30 03:09:52 +0000";
layers = (
{
anchors = (
{
name = bottom;
position = "{71, 0}";
},
{
name = ogonek;
position = "{154, 10}";
},
{
name = top;
position = "{224, 273}";
}
);
hints = (
{
horizontal = 1;
place = "{-1, 15}";
type = Stem;
},
{
horizontal = 1;
place = "{263, 15}";
type = Stem;
}
);
layerId = "A626400C-4409-4FF6-B7A4-72C4E5A5721C";
paths = (
{
closed = 1;
nodes = (
"91 -8 LINE",
"175 -8 OFFCURVE",
"254 65 OFFCURVE",
"295 121 CURVE SMOOTH",
"299 127 OFFCURVE",
"302 132 OFFCURVE",
"302 137 CURVE SMOOTH",
"302 139 OFFCURVE",
"301 142 OFFCURVE",
"299 144 CURVE",
"272 109 OFFCURVE",
"208 41 OFFCURVE",
"149 22 CURVE SMOOTH",
"131 16 OFFCURVE",
"117 14 OFFCURVE",
"106 14 CURVE SMOOTH",
"79 14 OFFCURVE",
"69 30 OFFCURVE",
"69 53 CURVE SMOOTH",
"69 72 OFFCURVE",
"75 95 OFFCURVE",
"84 119 CURVE",
"108 119 OFFCURVE",
"137 125 OFFCURVE",
"157 131 CURVE SMOOTH",
"207 147 OFFCURVE",
"273 173 OFFCURVE",
"273 235 CURVE SMOOTH",
"273 257 OFFCURVE",
"262 277 OFFCURVE",
"227 277 CURVE SMOOTH",
"166 277 OFFCURVE",
"94 213 OFFCURVE",
"63 165 CURVE SMOOTH",
"44 134 OFFCURVE",
"18 85 OFFCURVE",
"18 47 CURVE SMOOTH",
"18 16 OFFCURVE",
"36 -8 OFFCURVE",
"91 -8 CURVE"
);
},
{
closed = 1;
nodes = (
"92 139 LINE",
"112 183 OFFCURVE",
"153 259 OFFCURVE",
"211 260 CURVE SMOOTH",
"225 260 OFFCURVE",
"232 248 OFFCURVE",
"232 232 CURVE SMOOTH",
"232 204 OFFCURVE",
"209 162 OFFCURVE",
"154 146 CURVE SMOOTH",
"132 139 OFFCURVE",
"109 138 OFFCURVE",
"92 139 CURVE"
);
}
);
width = 249;
}
);
note = e;
unicode = 0065;
},
{
glyphname = f;
lastChange = "2021-04-30 03:09:52 +0000";
layers = (
{
hints = (
{
horizontal = 1;
place = "{-226, 23}";
type = Stem;
},
{
horizontal = 1;
place = "{247, 26}";
type = Stem;
},
{
horizontal = 1;
place = "{582, 29}";
type = Stem;
},
{
place = "{469, 7}";
type = Stem;
}
);
layerId = "A626400C-4409-4FF6-B7A4-72C4E5A5721C";
paths = (
{
closed = 1;
nodes = (
"-198 -226 LINE",
"-58 -226 OFFCURVE",
"40 -66 OFFCURVE",
"91 46 CURVE SMOOTH",
"121 109 OFFCURVE",
"146 174 OFFCURVE",
"175 247 CURVE",
"212 246 OFFCURVE",
"239 244 OFFCURVE",
"272 262 CURVE SMOOTH",
"277 264 OFFCURVE",
"287 269 OFFCURVE",
"287 275 CURVE",
"278 273 OFFCURVE",
"267 273 OFFCURVE",
"258 273 CURVE SMOOTH",
"186 273 LINE",
"213 335 OFFCURVE",
"247 419 OFFCURVE",
"274 469 CURVE SMOOTH",
"321 555 OFFCURVE",
"357 582 OFFCURVE",
"407 582 CURVE SMOOTH",
"438 582 OFFCURVE",
"464 569 OFFCURVE",
"469 543 CURVE SMOOTH",
"470 540 OFFCURVE",
"476 542 OFFCURVE",
"476 545 CURVE SMOOTH",
"479 581 LINE SMOOTH",
"480 601 OFFCURVE",
"461 611 OFFCURVE",
"445 611 CURVE SMOOTH",
"404 611 OFFCURVE",
"366 599 OFFCURVE",
"332 575 CURVE SMOOTH",
"248 519 OFFCURVE",
"181 368 OFFCURVE",
"140 273 CURVE",
"128 273 LINE SMOOTH",
"115 273 OFFCURVE",
"84 259 OFFCURVE",
"81 245 CURVE",
"83 244 LINE",
"90 245 OFFCURVE",
"98 247 OFFCURVE",
"105 247 CURVE SMOOTH",
"128 247 LINE",
"89 151 OFFCURVE",
"60 50 OFFCURVE",
"13 -39 CURVE SMOOTH",
"-18 -97 OFFCURVE",
"-55 -158 OFFCURVE",
"-117 -190 CURVE SMOOTH",
"-135 -199 OFFCURVE",
"-155 -204 OFFCURVE",
"-175 -204 CURVE SMOOTH",
"-227 -204 OFFCURVE",
"-275 -173 OFFCURVE",
"-275 -126 CURVE SMOOTH",
"-275 -116 OFFCURVE",
"-273 -105 OFFCURVE",
"-268 -94 CURVE SMOOTH",
"-266 -88 OFFCURVE",
"-269 -84 OFFCURVE",
"-272 -84 CURVE SMOOTH",
"-275 -84 OFFCURVE",
"-277 -86 OFFCURVE",
"-279 -90 CURVE SMOOTH",
"-290 -118 OFFCURVE",
"-301 -143 OFFCURVE",
"-301 -163 CURVE SMOOTH",
"-301 -168 OFFCURVE",
"-300 -172 OFFCURVE",
"-299 -176 CURVE SMOOTH",
"-287 -210 OFFCURVE",
"-250 -226 OFFCURVE",
"-198 -226 CURVE"
);
}
);
width = 182;
}
);
note = f;
unicode = 0066;
},
{
glyphname = g;
lastChange = "2021-04-30 03:09:52 +0000";
layers = (
{
anchors = (
{
name = bottom;
position = "{-138, -335}";
},
{
name = top;
position = "{247, 273}";
}
);
hints = (
{
horizontal = 1;
place = "{257, 15}";
type = Stem;
}
);
layerId = "A626400C-4409-4FF6-B7A4-72C4E5A5721C";
paths = (
{
closed = 1;
nodes = (
"-145 -350 LINE",
"-120 -350 OFFCURVE",
"-93 -345 OFFCURVE",
"-70 -335 CURVE SMOOTH",
"44 -286 OFFCURVE",
"107 -171 OFFCURVE",
"155 -57 CURVE SMOOTH",
"198 43 OFFCURVE",
"262 192 OFFCURVE",
"289 235 CURVE SMOOTH",
"295 246 OFFCURVE",
"310 261 OFFCURVE",
"325 261 CURVE SMOOTH",
"329 261 OFFCURVE",
"334 264 OFFCURVE",
"334 269 CURVE SMOOTH",
"334 272 OFFCURVE",
"331 273 OFFCURVE",
"329 273 CURVE SMOOTH",
"214 273 LINE SMOOTH",
"186 273 OFFCURVE",
"161 264 OFFCURVE",
"139 247 CURVE SMOOTH",
"78 201 OFFCURVE",
"15 104 OFFCURVE",
"5 27 CURVE SMOOTH",
"5 25 OFFCURVE",
"5 22 OFFCURVE",
"5 20 CURVE SMOOTH",
"5 8 OFFCURVE",
"9 -2 OFFCURVE",
"23 -2 CURVE SMOOTH",
"58 -2 OFFCURVE",
"88 21 OFFCURVE",
"113 42 CURVE SMOOTH",
"154 77 OFFCURVE",
"187 109 OFFCURVE",
"215 155 CURVE",
"151 -5 OFFCURVE",
"77 -224 OFFCURVE",
"-94 -297 CURVE SMOOTH",
"-116 -306 OFFCURVE",
"-142 -312 OFFCURVE",
"-166 -312 CURVE SMOOTH",
"-225 -312 OFFCURVE",
"-269 -280 OFFCURVE",
"-269 -218 CURVE SMOOTH",
"-269 -209 OFFCURVE",
"-267 -201 OFFCURVE",
"-267 -193 CURVE SMOOTH",
"-267 -191 OFFCURVE",
"-268 -191 OFFCURVE",
"-269 -191 CURVE SMOOTH",
"-281 -191 OFFCURVE",
"-282 -203 OFFCURVE",
"-282 -213 CURVE SMOOTH",
"-282 -217 OFFCURVE",
"-282 -220 OFFCURVE",
"-282 -223 CURVE SMOOTH",
"-282 -242 OFFCURVE",
"-280 -262 OFFCURVE",
"-271 -279 CURVE SMOOTH",
"-248 -327 OFFCURVE",
"-196 -350 OFFCURVE",
"-145 -350 CURVE"
);
},
{
closed = 1;
nodes = (
"64 32 LINE",
"57 32 OFFCURVE",
"55 38 OFFCURVE",
"55 44 CURVE SMOOTH",
"55 86 OFFCURVE",
"124 197 OFFCURVE",
"155 226 CURVE SMOOTH",
"170 240 OFFCURVE",
"197 260 OFFCURVE",
"218 260 CURVE SMOOTH",
"231 260 OFFCURVE",
"241 256 OFFCURVE",
"241 241 CURVE SMOOTH",
"241 199 OFFCURVE",
"103 32 OFFCURVE",
"64 32 CURVE"
);
}
);
width = 265;
}
);
note = g;
unicode = 0067;
},
{
glyphname = h;
lastChange = "2021-04-30 03:09:52 +0000";
layers = (
{
anchors = (
{
name = bottom;
position = "{90, 0}";
},
{
name = center;
position = "{147, 307}";
},
{
name = top;
position = "{456, 613}";
}
);
hints = (
{
horizontal = 1;
place = "{-6, 31}";
type = Stem;
},
{
horizontal = 1;
place = "{236, 44}";
type = Stem;
},
{
horizontal = 1;
place = "{580, 35}";
type = Stem;
},
{
place = "{144, 50}";
type = Stem;
},
{
place = "{235, 62}";
type = Stem;
},
{
horizontal = 1;
place = "{-2, 21}";
target = up;
type = BottomGhost;
}
);
layerId = "A626400C-4409-4FF6-B7A4-72C4E5A5721C";
paths = (
{
closed = 1;
nodes = (
"182 -6 LINE",
"226 -6 OFFCURVE",
"261 26 OFFCURVE",
"287 56 CURVE SMOOTH",
"302 73 OFFCURVE",
"317 91 OFFCURVE",
"332 111 CURVE",
"338 117 OFFCURVE",
"340 130 OFFCURVE",
"340 135 CURVE SMOOTH",
"340 138 OFFCURVE",
"340 139 OFFCURVE",
"339 138 CURVE SMOOTH",
"315 108 OFFCURVE",
"278 65 OFFCURVE",
"242 38 CURVE SMOOTH",
"235 33 OFFCURVE",
"219 24 OFFCURVE",
"208 24 CURVE SMOOTH",
"200 24 OFFCURVE",
"194 28 OFFCURVE",
"194 40 CURVE SMOOTH",
"194 72 OFFCURVE",
"264 198 OFFCURVE",
"283 228 CURVE SMOOTH",
"293 244 OFFCURVE",
"297 256 OFFCURVE",
"297 264 CURVE SMOOTH",
"297 275 OFFCURVE",
"290 280 OFFCURVE",
"278 280 CURVE SMOOTH",
"265 280 OFFCURVE",
"249 275 OFFCURVE",
"233 266 CURVE SMOOTH",
"192 242 OFFCURVE",
"134 182 OFFCURVE",
"74 102 CURVE",
"90 144 OFFCURVE",
"108 196 OFFCURVE",
"127 245 CURVE SMOOTH",
"165 346 OFFCURVE",
"218 451 OFFCURVE",
"290 514 CURVE SMOOTH",
"336 554 OFFCURVE",
"390 580 OFFCURVE",
"456 580 CURVE SMOOTH",
"492 580 OFFCURVE",
"519 567 OFFCURVE",
"514 532 CURVE",
"513 531 OFFCURVE",
"515 531 OFFCURVE",
"516 531 CURVE SMOOTH",
"519 531 OFFCURVE",
"523 532 OFFCURVE",
"524 535 CURVE SMOOTH",
"526 544 OFFCURVE",
"527 554 OFFCURVE",
"527 563 CURVE SMOOTH",
"527 566 OFFCURVE",
"527 569 OFFCURVE",
"527 572 CURVE SMOOTH",
"524 604 OFFCURVE",
"499 615 OFFCURVE",
"468 615 CURVE SMOOTH",
"398 615 OFFCURVE",
"339 585 OFFCURVE",
"290 542 CURVE SMOOTH",
"207 469 OFFCURVE",
"143 352 OFFCURVE",
"98 252 CURVE SMOOTH",
"57 164 OFFCURVE",
"25 77 OFFCURVE",
"-5 8 CURVE SMOOTH",
"-8 1 OFFCURVE",
"-2 -2 OFFCURVE",
"7 -2 CURVE SMOOTH",
"20 -2 OFFCURVE",
"40 4 OFFCURVE",
"42 12 CURVE",
"67 82 OFFCURVE",
"132 158 OFFCURVE",
"185 207 CURVE SMOOTH",
"196 216 OFFCURVE",
"235 248 OFFCURVE",
"235 231 CURVE SMOOTH",
"235 228 OFFCURVE",
"233 222 OFFCURVE",
"229 214 CURVE SMOOTH",
"210 174 OFFCURVE",
"165 88 OFFCURVE",
"148 42 CURVE SMOOTH",
"145 34 OFFCURVE",
"144 27 OFFCURVE",
"144 22 CURVE SMOOTH",
"144 0 OFFCURVE",
"162 -6 OFFCURVE",
"182 -6 CURVE"
);
}
);
width = 294;
}
);
note = h;
unicode = 0068;
},
{
glyphname = i;
lastChange = "2021-04-30 03:09:52 +0000";
layers = (
{
hints = (
{
horizontal = 1;
place = "{-1, 15}";
type = Stem;
}
);
layerId = "A626400C-4409-4FF6-B7A4-72C4E5A5721C";
paths = (
{
closed = 1;
nodes = (
"68 -3 LINE",
"138 -3 OFFCURVE",
"192 62 OFFCURVE",
"234 115 CURVE SMOOTH",
"239 122 OFFCURVE",
"245 130 OFFCURVE",
"247 140 CURVE SMOOTH",
"247 142 OFFCURVE",
"246 146 OFFCURVE",
"245 147 CURVE",
"242 144 OFFCURVE",
"230 130 OFFCURVE",
"223 122 CURVE SMOOTH",
"191 84 OFFCURVE",
"137 26 OFFCURVE",
"111 26 CURVE SMOOTH",
"102 26 OFFCURVE",
"97 32 OFFCURVE",
"97 40 CURVE SMOOTH",
"97 55 OFFCURVE",
"112 92 OFFCURVE",
"131 128 CURVE SMOOTH",
"158 179 OFFCURVE",
"201 265 OFFCURVE",
"214 280 CURVE SMOOTH",
"218 285 OFFCURVE",
"217 291 OFFCURVE",
"214 291 CURVE SMOOTH",
"212 291 OFFCURVE",
"210 290 OFFCURVE",
"208 288 CURVE SMOOTH",
"197 279 OFFCURVE",
"160 273 OFFCURVE",
"146 271 CURVE",
"135 255 OFFCURVE",
"75 175 OFFCURVE",
"37 128 CURVE SMOOTH",
"34 124 OFFCURVE",
"32 117 OFFCURVE",
"32 113 CURVE SMOOTH",
"32 110 OFFCURVE",
"33 108 OFFCURVE",
"34 108 CURVE SMOOTH",
"35 108 OFFCURVE",
"37 109 OFFCURVE",
"39 112 CURVE SMOOTH",
"57 136 OFFCURVE",
"106 195 OFFCURVE",
"135 226 CURVE",
"127 210 OFFCURVE",
"97 145 OFFCURVE",
"84 118 CURVE SMOOTH",
"73 94 OFFCURVE",
"45 43 OFFCURVE",
"45 16 CURVE SMOOTH",
"45 1 OFFCURVE",
"54 -3 OFFCURVE",
"68 -3 CURVE"
);
},
{
closed = 1;
nodes = (
"242 382 LINE",
"249 382 OFFCURVE",
"256 384 OFFCURVE",
"262 388 CURVE SMOOTH",
"272 394 OFFCURVE",
"278 404 OFFCURVE",
"278 414 CURVE SMOOTH",
"278 419 OFFCURVE",
"277 423 OFFCURVE",
"274 427 CURVE SMOOTH",
"270 433 OFFCURVE",
"262 436 OFFCURVE",
"253 436 CURVE SMOOTH",
"247 436 OFFCURVE",
"240 434 OFFCURVE",
"233 430 CURVE SMOOTH",
"224 424 OFFCURVE",
"218 414 OFFCURVE",
"218 404 CURVE SMOOTH",
"218 399 OFFCURVE",
"219 395 OFFCURVE",
"222 391 CURVE SMOOTH",
"226 385 OFFCURVE",
"234 382 OFFCURVE",
"242 382 CURVE"
);
}
);
width = 192;
}
);
note = i;
unicode = 0069;
},
{
glyphname = j;
lastChange = "2021-04-30 03:09:52 +0000";
layers = (
{
hints = (
{
horizontal = 1;
place = "{-350, 38}";
type = Stem;
},
{
horizontal = 1;
place = "{261, 14}";
type = Stem;
},
{
horizontal = 1;
place = "{382, 54}";
type = Stem;
},
{
place = "{-419, 12}";
type = Stem;
},
{
place = "{171, 60}";
type = Stem;
}
);
layerId = "A626400C-4409-4FF6-B7A4-72C4E5A5721C";
paths = (
{
closed = 1;
nodes = (
"-283 -350 LINE",
"-257 -350 OFFCURVE",
"-231 -345 OFFCURVE",
"-208 -335 CURVE SMOOTH",
"-94 -286 OFFCURVE",
"-30 -171 OFFCURVE",
"18 -57 CURVE SMOOTH",
"60 43 OFFCURVE",
"128 206 OFFCURVE",
"153 242 CURVE SMOOTH",
"160 252 OFFCURVE",
"172 261 OFFCURVE",
"187 261 CURVE SMOOTH",
"191 261 OFFCURVE",
"196 264 OFFCURVE",
"196 269 CURVE SMOOTH",
"196 273 OFFCURVE",
"191 275 OFFCURVE",
"184 275 CURVE SMOOTH",
"164 275 OFFCURVE",
"122 259 OFFCURVE",
"101 238 CURVE SMOOTH",
"95 231 OFFCURVE",
"70 128 OFFCURVE",
"23 17 CURVE SMOOTH",
"-33 -112 OFFCURVE",
"-106 -243 OFFCURVE",
"-231 -297 CURVE SMOOTH",
"-254 -306 OFFCURVE",
"-280 -312 OFFCURVE",
"-304 -312 CURVE SMOOTH",
"-363 -312 OFFCURVE",
"-407 -280 OFFCURVE",
"-407 -218 CURVE SMOOTH",
"-407 -209 OFFCURVE",
"-404 -201 OFFCURVE",
"-404 -193 CURVE SMOOTH",
"-404 -191 OFFCURVE",
"-406 -191 OFFCURVE",
"-407 -191 CURVE SMOOTH",
"-418 -191 OFFCURVE",
"-419 -202 OFFCURVE",
"-419 -212 CURVE SMOOTH",
"-419 -216 OFFCURVE",
"-419 -220 OFFCURVE",
"-419 -223 CURVE SMOOTH",
"-419 -242 OFFCURVE",
"-417 -262 OFFCURVE",
"-409 -279 CURVE SMOOTH",
"-386 -327 OFFCURVE",
"-334 -350 OFFCURVE",
"-283 -350 CURVE"
);
},
{
closed = 1;
nodes = (
"195 382 LINE",
"202 382 OFFCURVE",
"209 384 OFFCURVE",
"215 388 CURVE SMOOTH",
"225 394 OFFCURVE",
"231 404 OFFCURVE",
"231 414 CURVE SMOOTH",
"231 419 OFFCURVE",
"230 423 OFFCURVE",
"227 427 CURVE SMOOTH",
"223 433 OFFCURVE",
"215 436 OFFCURVE",
"207 436 CURVE SMOOTH",
"200 436 OFFCURVE",
"193 434 OFFCURVE",
"187 430 CURVE SMOOTH",
"177 424 OFFCURVE",
"171 414 OFFCURVE",
"171 404 CURVE SMOOTH",
"171 399 OFFCURVE",
"172 395 OFFCURVE",
"175 391 CURVE SMOOTH",
"179 385 OFFCURVE",
"187 382 OFFCURVE",
"195 382 CURVE"
);
}
);
width = 135;
}
);
note = j;
unicode = 006A;
},
{
glyphname = k;
lastChange = "2021-04-30 03:09:52 +0000";
layers = (
{
anchors = (
{
name = bottom;
position = "{103, 0}";
},
{
name = top;
position = "{405, 613}";
}
);
hints = (
{
horizontal = 1;
place = "{-5, 30}";
type = Stem;
},
{
horizontal = 1;
place = "{234, 46}";
type = Stem;
},
{
horizontal = 1;
place = "{575, 37}";
type = Stem;
},
{
place = "{284, 30}";
type = Stem;
},
{
place = "{474, 9}";
type = Stem;
},
{
horizontal = 1;
place = "{-2, 21}";
target = up;
type = BottomGhost;
}
);
layerId = "A626400C-4409-4FF6-B7A4-72C4E5A5721C";
paths = (
{
closed = 1;
nodes = (
"213 -5 LINE",
"234 -5 OFFCURVE",
"257 5 OFFCURVE",
"272 17 CURVE SMOOTH",
"306 44 OFFCURVE",
"337 79 OFFCURVE",
"364 113 CURVE SMOOTH",
"369 119 OFFCURVE",
"377 129 OFFCURVE",
"378 137 CURVE",
"379 140 OFFCURVE",
"378 144 OFFCURVE",
"376 147 CURVE",
"352 116 OFFCURVE",
"281 26 OFFCURVE",
"244 25 CURVE SMOOTH",
"236 25 OFFCURVE",
"222 27 OFFCURVE",
"215 38 CURVE SMOOTH",
"200 61 OFFCURVE",
"183 134 OFFCURVE",
"174 184 CURVE",
"203 214 OFFCURVE",
"233 234 OFFCURVE",
"258 234 CURVE SMOOTH",
"271 234 OFFCURVE",
"284 231 OFFCURVE",
"284 215 CURVE SMOOTH",
"284 212 OFFCURVE",
"289 210 OFFCURVE",
"291 212 CURVE SMOOTH",
"295 216 OFFCURVE",
"294 218 OFFCURVE",
"301 228 CURVE SMOOTH",
"311 243 OFFCURVE",
"315 255 OFFCURVE",
"315 263 CURVE SMOOTH",
"315 275 OFFCURVE",
"306 280 OFFCURVE",
"293 280 CURVE SMOOTH",
"280 280 OFFCURVE",
"263 275 OFFCURVE",
"248 266 CURVE SMOOTH",
"226 253 OFFCURVE",
"200 231 OFFCURVE",
"171 201 CURVE",
"168 218 LINE",
"158 206 OFFCURVE",
"151 201 OFFCURVE",
"142 188 CURVE SMOOTH",
"135 179 OFFCURVE",
"131 173 OFFCURVE",
"131 164 CURVE SMOOTH",
"131 161 OFFCURVE",
"132 159 OFFCURVE",
"132 156 CURVE",
"118 140 OFFCURVE",
"103 121 OFFCURVE",
"89 102 CURVE",
"126 201 OFFCURVE",
"185 352 OFFCURVE",
"245 445 CURVE SMOOTH",
"276 493 OFFCURVE",
"308 539 OFFCURVE",
"362 561 CURVE SMOOTH",
"385 570 OFFCURVE",
"409 575 OFFCURVE",
"433 575 CURVE SMOOTH",
"450 575 OFFCURVE",
"474 569 OFFCURVE",
"474 548 CURVE SMOOTH",
"474 546 OFFCURVE",
"476 546 OFFCURVE",
"477 546 CURVE SMOOTH",
"479 546 OFFCURVE",
"483 547 OFFCURVE",
"483 550 CURVE SMOOTH",
"483 579 LINE SMOOTH",
"483 601 OFFCURVE",
"462 612 OFFCURVE",
"442 612 CURVE SMOOTH",
"350 612 OFFCURVE",
"255 506 OFFCURVE",
"199 405 CURVE SMOOTH",
"119 264 OFFCURVE",
"70 146 OFFCURVE",
"9 8 CURVE SMOOTH",
"6 1 OFFCURVE",
"12 -2 OFFCURVE",
"21 -2 CURVE SMOOTH",
"35 -2 OFFCURVE",
"54 4 OFFCURVE",
"57 12 CURVE SMOOTH",
"66 39 OFFCURVE",
"97 92 OFFCURVE",
"135 140 CURVE",
"142 108 OFFCURVE",
"158 35 OFFCURVE",
"175 12 CURVE SMOOTH",
"184 0 OFFCURVE",
"198 -5 OFFCURVE",
"213 -5 CURVE"
);
}
);
width = 324;
}
);
note = k;
unicode = 006B;
},
{
glyphname = l;
lastChange = "2021-04-30 03:09:52 +0000";
layers = (
{
anchors = (
{
name = bottom;
position = "{74, 0}";
},
{
name = center;
position = "{107, 307}";
},
{
name = top;
position = "{393, 613}";
},
{
name = topright;
position = "{472, 613}";
}
);
hints = (
{
horizontal = 1;
place = "{-1, 15}";
type = Stem;
}
);
layerId = "A626400C-4409-4FF6-B7A4-72C4E5A5721C";
paths = (
{
closed = 1;
nodes = (
"100 -2 LINE",
"139 -2 OFFCURVE",
"179 30 OFFCURVE",
"204 55 CURVE SMOOTH",
"227 79 OFFCURVE",
"244 101 OFFCURVE",
"254 113 CURVE SMOOTH",
"261 122 OFFCURVE",
"276 139 OFFCURVE",
"267 148 CURVE",
"264 144 OFFCURVE",
"255 133 OFFCURVE",
"246 122 CURVE SMOOTH",
"214 84 OFFCURVE",
"166 32 OFFCURVE",
"133 26 CURVE SMOOTH",
"128 25 OFFCURVE",
"124 25 OFFCURVE",
"120 25 CURVE SMOOTH",
"94 25 OFFCURVE",
"85 42 OFFCURVE",
"85 65 CURVE SMOOTH",
"85 104 OFFCURVE",
"110 161 OFFCURVE",
"125 188 CURVE",
"155 215 OFFCURVE",
"250 297 OFFCURVE",
"331 410 CURVE SMOOTH",
"360 449 OFFCURVE",
"418 535 OFFCURVE",
"418 582 CURVE SMOOTH",
"418 586 OFFCURVE",
"418 590 OFFCURVE",
"417 593 CURVE SMOOTH",
"414 604 OFFCURVE",
"407 613 OFFCURVE",
"393 613 CURVE SMOOTH",
"358 613 OFFCURVE",
"331 578 OFFCURVE",
"297 565 CURVE",
"243 494 OFFCURVE",
"156 306 OFFCURVE",
"104 208 CURVE",
"81 179 OFFCURVE",
"55 152 OFFCURVE",
"37 128 CURVE SMOOTH",
"34 124 OFFCURVE",
"32 117 OFFCURVE",
"32 113 CURVE SMOOTH",
"32 110 OFFCURVE",
"33 108 OFFCURVE",
"34 108 CURVE SMOOTH",
"35 108 OFFCURVE",
"37 109 OFFCURVE",
"39 112 CURVE SMOOTH",
"46 120 OFFCURVE",
"64 139 OFFCURVE",
"81 158 CURVE",
"70 134 OFFCURVE",
"48 85 OFFCURVE",
"48 48 CURVE SMOOTH",
"48 20 OFFCURVE",
"60 -2 OFFCURVE",
"100 -2 CURVE"
);
},
{
closed = 1;
nodes = (
"142 228 LINE",
"196 327 OFFCURVE",
"292 517 OFFCURVE",
"347 576 CURVE SMOOTH",
"360 590 OFFCURVE",
"369 595 OFFCURVE",
"376 595 CURVE SMOOTH",
"382 595 OFFCURVE",
"385 589 OFFCURVE",
"385 579 CURVE SMOOTH",
"385 534 OFFCURVE",
"327 441 OFFCURVE",
"314 420 CURVE SMOOTH",
"253 328 OFFCURVE",
"183 262 OFFCURVE",
"142 228 CURVE"
);
}
);
width = 214;
}
);
note = l;
unicode = 006C;
},
{
glyphname = m;
lastChange = "2021-04-30 03:09:52 +0000";
layers = (
{
hints = (
{
horizontal = 1;
place = "{273, 15}";
type = Stem;
}
);
layerId = "A626400C-4409-4FF6-B7A4-72C4E5A5721C";
paths = (
{
closed = 1;
nodes = (
"40 -15 LINE",
"47 -15 OFFCURVE",
"66 -3 OFFCURVE",
"84 -2 CURVE",
"92 18 OFFCURVE",
"105 51 OFFCURVE",
"116 75 CURVE SMOOTH",
"134 115 OFFCURVE",
"163 149 OFFCURVE",
"195 182 CURVE SMOOTH",
"205 193 OFFCURVE",
"278 256 OFFCURVE",
"278 238 CURVE SMOOTH",
"278 235 OFFCURVE",
"277 232 OFFCURVE",
"275 228 CURVE SMOOTH",
"267 210 OFFCURVE",
"245 164 OFFCURVE",
"221 118 CURVE SMOOTH",
"210 94 OFFCURVE",
"188 52 OFFCURVE",
"188 25 CURVE SMOOTH",
"188 16 OFFCURVE",
"194 8 OFFCURVE",
"204 8 CURVE SMOOTH",
"209 8 OFFCURVE",
"216 11 OFFCURVE",
"223 17 CURVE",
"238 71 OFFCURVE",
"301 147 OFFCURVE",
"335 182 CURVE SMOOTH",
"345 193 OFFCURVE",
"418 256 OFFCURVE",
"418 238 CURVE SMOOTH",
"418 235 OFFCURVE",
"417 232 OFFCURVE",
"415 228 CURVE SMOOTH",
"407 210 OFFCURVE",
"385 164 OFFCURVE",
"361 118 CURVE SMOOTH",
"350 94 OFFCURVE",
"322 43 OFFCURVE",
"322 16 CURVE SMOOTH",
"322 1 OFFCURVE",
"338 -5 OFFCURVE",
"352 -4 CURVE SMOOTH",
"418 1 OFFCURVE",
"473 64 OFFCURVE",
"511 115 CURVE SMOOTH",
"516 122 OFFCURVE",
"524 131 OFFCURVE",
"524 140 CURVE SMOOTH",
"524 142 OFFCURVE",
"524 145 OFFCURVE",
"522 147 CURVE",
"521 145 OFFCURVE",
"510 131 OFFCURVE",
"501 121 CURVE SMOOTH",
"468 81 OFFCURVE",
"414 26 OFFCURVE",
"388 26 CURVE SMOOTH",
"380 26 OFFCURVE",
"374 32 OFFCURVE",
"374 40 CURVE SMOOTH",
"374 72 OFFCURVE",
"444 198 OFFCURVE",
"464 228 CURVE SMOOTH",
"472 240 OFFCURVE",
"477 251 OFFCURVE",
"477 260 CURVE SMOOTH",
"477 270 OFFCURVE",
"470 276 OFFCURVE",
"455 276 CURVE SMOOTH",
"452 276 OFFCURVE",
"447 276 OFFCURVE",
"442 275 CURVE SMOOTH",
"408 270 OFFCURVE",
"348 219 OFFCURVE",
"325 195 CURVE SMOOTH",
"310 180 OFFCURVE",
"295 165 OFFCURVE",
"278 148 CURVE",
"293 176 OFFCURVE",
"315 216 OFFCURVE",
"323 232 CURVE SMOOTH",
"329 243 OFFCURVE",
"334 254 OFFCURVE",
"334 262 CURVE SMOOTH",
"334 270 OFFCURVE",
"329 276 OFFCURVE",
"315 276 CURVE SMOOTH",
"311 276 OFFCURVE",
"307 276 OFFCURVE",
"302 275 CURVE SMOOTH",
"268 270 OFFCURVE",
"208 219 OFFCURVE",
"185 195 CURVE SMOOTH",
"177 186 OFFCURVE",
"153 160 OFFCURVE",
"132 135 CURVE",
"159 185 OFFCURVE",
"201 265 OFFCURVE",
"214 280 CURVE SMOOTH",
"218 285 OFFCURVE",
"217 291 OFFCURVE",
"214 291 CURVE SMOOTH",
"212 291 OFFCURVE",
"210 290 OFFCURVE",
"208 288 CURVE SMOOTH",
"197 279 OFFCURVE",
"160 273 OFFCURVE",
"146 271 CURVE",
"135 255 OFFCURVE",
"75 175 OFFCURVE",
"37 128 CURVE SMOOTH",
"34 124 OFFCURVE",
"32 117 OFFCURVE",
"32 113 CURVE SMOOTH",
"32 110 OFFCURVE",
"33 108 OFFCURVE",
"34 108 CURVE SMOOTH",
"35 108 OFFCURVE",
"37 109 OFFCURVE",
"39 112 CURVE SMOOTH",
"57 136 OFFCURVE",
"106 195 OFFCURVE",
"135 226 CURVE",
"127 210 OFFCURVE",
"86 103 OFFCURVE",
"59 38 CURVE SMOOTH",
"52 21 OFFCURVE",
"46 6 OFFCURVE",
"40 -6 CURVE SMOOTH",
"37 -12 OFFCURVE",
"37 -15 OFFCURVE",
"40 -15 CURVE"
);
}
);
width = 470;
}
);
note = m;
unicode = 006D;
},
{
glyphname = n;
lastChange = "2021-04-30 03:09:52 +0000";
layers = (
{
anchors = (
{
name = bottom;
position = "{135, 0}";
},
{
name = top;
position = "{259, 273}";
}
);
hints = (
{
horizontal = 1;
place = "{273, 15}";
type = Stem;
}
);
layerId = "A626400C-4409-4FF6-B7A4-72C4E5A5721C";
paths = (
{
closed = 1;
nodes = (
"40 -15 LINE",
"47 -15 OFFCURVE",
"66 -3 OFFCURVE",
"84 -2 CURVE",
"109 65 OFFCURVE",
"145 130 OFFCURVE",
"195 182 CURVE SMOOTH",
"205 193 OFFCURVE",
"278 256 OFFCURVE",
"278 238 CURVE SMOOTH",
"278 235 OFFCURVE",
"277 232 OFFCURVE",
"275 228 CURVE SMOOTH",
"267 210 OFFCURVE",
"245 164 OFFCURVE",
"221 118 CURVE SMOOTH",
"212 101 OFFCURVE",
"190 56 OFFCURVE",
"190 25 CURVE SMOOTH",
"190 6 OFFCURVE",
"198 -8 OFFCURVE",
"222 -8 CURVE SMOOTH",
"243 -8 OFFCURVE",
"267 5 OFFCURVE",
"280 15 CURVE SMOOTH",
"307 36 OFFCURVE",
"351 88 OFFCURVE",
"371 115 CURVE SMOOTH",
"376 122 OFFCURVE",
"384 131 OFFCURVE",
"384 140 CURVE SMOOTH",
"384 142 OFFCURVE",
"384 145 OFFCURVE",
"382 147 CURVE",
"333 87 OFFCURVE",
"285 30 OFFCURVE",
"252 30 CURVE SMOOTH",
"244 30 OFFCURVE",
"238 36 OFFCURVE",
"238 44 CURVE SMOOTH",
"238 76 OFFCURVE",
"304 198 OFFCURVE",
"324 228 CURVE SMOOTH",
"332 240 OFFCURVE",
"337 251 OFFCURVE",
"337 260 CURVE SMOOTH",
"337 270 OFFCURVE",
"330 276 OFFCURVE",
"315 276 CURVE SMOOTH",
"312 276 OFFCURVE",
"307 276 OFFCURVE",
"302 275 CURVE SMOOTH",
"268 270 OFFCURVE",
"208 219 OFFCURVE",
"185 195 CURVE SMOOTH",
"167 176 OFFCURVE",
"148 156 OFFCURVE",
"132 135 CURVE",
"159 185 OFFCURVE",
"201 265 OFFCURVE",
"214 280 CURVE SMOOTH",
"218 285 OFFCURVE",
"217 291 OFFCURVE",
"214 291 CURVE SMOOTH",
"212 291 OFFCURVE",
"210 290 OFFCURVE",
"208 288 CURVE SMOOTH",
"197 279 OFFCURVE",
"160 273 OFFCURVE",
"146 271 CURVE",
"135 255 OFFCURVE",
"75 175 OFFCURVE",
"37 128 CURVE SMOOTH",
"34 124 OFFCURVE",
"32 117 OFFCURVE",
"32 113 CURVE SMOOTH",
"32 110 OFFCURVE",
"33 108 OFFCURVE",
"34 108 CURVE SMOOTH",
"35 108 OFFCURVE",
"37 109 OFFCURVE",
"39 112 CURVE SMOOTH",
"57 136 OFFCURVE",
"106 195 OFFCURVE",
"135 226 CURVE",
"127 210 OFFCURVE",
"86 103 OFFCURVE",
"59 38 CURVE SMOOTH",
"52 21 OFFCURVE",
"46 6 OFFCURVE",
"40 -6 CURVE SMOOTH",
"37 -12 OFFCURVE",
"37 -15 OFFCURVE",
"40 -15 CURVE"
);
}
);
width = 330;
}
);
note = n;
unicode = 006E;
},
{
glyphname = o;
lastChange = "2021-04-30 03:09:52 +0000";
layers = (
{
anchors = (
{
name = bottom;
position = "{22, 0}";
},
{
name = center;
position = "{133, 137}";
},
{
name = ogonek;
position = "{56, 4}";
},
{
name = top;
position = "{234, 273}";
},
{
name = topright;
position = "{232, 251}";
}
);
hints = (
{
horizontal = 1;
place = "{-3, 15}";
type = Stem;
},
{
horizontal = 1;
place = "{264, 15}";
type = Stem;
}
);
layerId = "A626400C-4409-4FF6-B7A4-72C4E5A5721C";
paths = (
{
closed = 1;
nodes = (
"50 -2 LINE",
"95 -2 OFFCURVE",
"138 15 OFFCURVE",
"176 50 CURVE",
"181 49 OFFCURVE",
"187 49 OFFCURVE",
"192 49 CURVE SMOOTH",
"242 49 OFFCURVE",
"283 82 OFFCURVE",
"310 120 CURVE SMOOTH",
"312 123 OFFCURVE",
"314 129 OFFCURVE",
"314 133 CURVE SMOOTH",
"314 137 OFFCURVE",
"313 139 OFFCURVE",
"311 139 CURVE",
"311 139 OFFCURVE",
"310 138 OFFCURVE",
"309 137 CURVE SMOOTH",
"278 96 OFFCURVE",
"236 63 OFFCURVE",
"187 63 CURVE",
"202 77 OFFCURVE",
"213 91 OFFCURVE",
"225 107 CURVE SMOOTH",
"250 143 OFFCURVE",
"279 193 OFFCURVE",
"279 239 CURVE SMOOTH",
"279 268 OFFCURVE",
"260 278 OFFCURVE",
"239 278 CURVE SMOOTH",
"213 278 OFFCURVE",
"170 258 OFFCURVE",
"149 245 CURVE SMOOTH",
"115 225 OFFCURVE",
"86 197 OFFCURVE",
"64 166 CURVE SMOOTH",
"38 130 OFFCURVE",
"9 79 OFFCURVE",
"9 33 CURVE SMOOTH",
"9 4 OFFCURVE",
"28 -2 OFFCURVE",
"50 -2 CURVE"
);
},
{
closed = 1;
nodes = (
"76 15 LINE",
"67 15 OFFCURVE",
"61 19 OFFCURVE",
"58 29 CURVE SMOOTH",
"57 34 OFFCURVE",
"56 39 OFFCURVE",
"56 44 CURVE SMOOTH",
"56 79 OFFCURVE",
"81 124 OFFCURVE",
"99 155 CURVE SMOOTH",
"115 183 OFFCURVE",
"134 208 OFFCURVE",
"156 231 CURVE SMOOTH",
"168 243 OFFCURVE",
"197 262 OFFCURVE",
"215 262 CURVE SMOOTH",
"226 262 OFFCURVE",
"231 256 OFFCURVE",
"231 239 CURVE SMOOTH",
"231 200 OFFCURVE",
"208 152 OFFCURVE",
"189 120 CURVE SMOOTH",
"173 93 OFFCURVE",
"154 67 OFFCURVE",
"132 44 CURVE SMOOTH",
"120 32 OFFCURVE",
"94 15 OFFCURVE",
"76 15 CURVE"
);
}
);
width = 265;
}
);
note = o;
unicode = 006F;
},
{
glyphname = p;
lastChange = "2021-04-30 03:09:52 +0000";
layers = (
{
hints = (
{
horizontal = 1;
place = "{264, 15}";
type = Stem;
}
);
layerId = "A626400C-4409-4FF6-B7A4-72C4E5A5721C";
paths = (
{
closed = 1;
nodes = (
"-283 -350 LINE",
"-257 -350 OFFCURVE",
"-231 -345 OFFCURVE",
"-208 -335 CURVE SMOOTH",
"-81 -281 OFFCURVE",
"-7 -133 OFFCURVE",
"36 -6 CURVE",
"39 -9 OFFCURVE",
"53 -9 OFFCURVE",
"60 -9 CURVE SMOOTH",
"172 -9 OFFCURVE",
"274 139 OFFCURVE",
"287 239 CURVE SMOOTH",
"289 252 OFFCURVE",
"288 272 OFFCURVE",
"271 272 CURVE SMOOTH",
"213 272 OFFCURVE",
"121 169 OFFCURVE",
"103 152 CURVE",
"128 243 OFFCURVE",
"175 388 OFFCURVE",
"267 388 CURVE SMOOTH",
"277 388 OFFCURVE",
"292 383 OFFCURVE",
"292 367 CURVE SMOOTH",
"292 366 OFFCURVE",
"293 366 OFFCURVE",
"293 366 CURVE",
"294 366 OFFCURVE",
"297 367 OFFCURVE",
"297 369 CURVE SMOOTH",
"299 397 LINE SMOOTH",
"300 411 OFFCURVE",
"286 418 OFFCURVE",
"274 418 CURVE SMOOTH",
"227 418 OFFCURVE",
"179 377 OFFCURVE",
"138 294 CURVE SMOOTH",
"94 204 OFFCURVE",
"62 112 OFFCURVE",
"23 17 CURVE SMOOTH",
"-31 -113 OFFCURVE",
"-106 -243 OFFCURVE",
"-231 -297 CURVE SMOOTH",
"-254 -306 OFFCURVE",
"-280 -312 OFFCURVE",
"-304 -312 CURVE SMOOTH",
"-363 -312 OFFCURVE",
"-407 -280 OFFCURVE",
"-407 -218 CURVE SMOOTH",
"-407 -209 OFFCURVE",
"-404 -201 OFFCURVE",
"-404 -193 CURVE SMOOTH",
"-404 -191 OFFCURVE",
"-406 -191 OFFCURVE",
"-407 -191 CURVE SMOOTH",
"-418 -191 OFFCURVE",
"-419 -202 OFFCURVE",
"-419 -212 CURVE SMOOTH",
"-419 -216 OFFCURVE",
"-419 -220 OFFCURVE",
"-419 -223 CURVE SMOOTH",
"-419 -242 OFFCURVE",
"-417 -262 OFFCURVE",
"-409 -279 CURVE SMOOTH",
"-386 -327 OFFCURVE",
"-334 -350 OFFCURVE",
"-283 -350 CURVE"
);
},
{
closed = 1;
nodes = (
"75 8 LINE",
"62 8 OFFCURVE",
"54 13 OFFCURVE",
"54 28 CURVE SMOOTH",
"54 60 OFFCURVE",
"103 124 OFFCURVE",
"124 149 CURVE SMOOTH",
"140 168 OFFCURVE",
"207 238 OFFCURVE",
"230 238 CURVE SMOOTH",
"237 238 OFFCURVE",
"239 231 OFFCURVE",
"239 225 CURVE SMOOTH",
"239 183 OFFCURVE",
"170 72 OFFCURVE",
"139 43 CURVE SMOOTH",
"125 29 OFFCURVE",
"95 8 OFFCURVE",
"75 8 CURVE"
);
}
);
width = 255;
}
);
note = p;
unicode = 0070;
},
{
glyphname = q;
lastChange = "2021-04-30 03:09:52 +0000";
layers = (
{
hints = (
{
horizontal = 1;
place = "{257, 15}";
type = Stem;
},
{
place = "{91, 39}";
type = Stem;
}
);
layerId = "A626400C-4409-4FF6-B7A4-72C4E5A5721C";
paths = (
{
closed = 1;
nodes = (
"-1 -342 LINE",
"14 -342 OFFCURVE",
"49 -320 OFFCURVE",
"52 -311 CURVE SMOOTH",
"94 -179 OFFCURVE",
"231 -3 OFFCURVE",
"323 118 CURVE SMOOTH",
"329 126 OFFCURVE",
"333 134 OFFCURVE",
"333 141 CURVE SMOOTH",
"333 143 OFFCURVE",
"332 145 OFFCURVE",
"331 147 CURVE",
"261 59 OFFCURVE",
"144 -89 OFFCURVE",
"84 -188 CURVE",
"126 -70 OFFCURVE",
"223 125 OFFCURVE",
"289 228 CURVE SMOOTH",
"296 239 OFFCURVE",
"310 261 OFFCURVE",
"325 261 CURVE SMOOTH",
"329 261 OFFCURVE",
"334 264 OFFCURVE",
"334 269 CURVE SMOOTH",
"334 272 OFFCURVE",
"331 273 OFFCURVE",
"329 273 CURVE SMOOTH",
"214 273 LINE SMOOTH",
"186 273 OFFCURVE",
"160 264 OFFCURVE",
"139 247 CURVE SMOOTH",
"78 200 OFFCURVE",
"15 105 OFFCURVE",
"5 27 CURVE SMOOTH",
"5 25 OFFCURVE",
"5 22 OFFCURVE",
"5 20 CURVE SMOOTH",
"5 8 OFFCURVE",
"9 -2 OFFCURVE",
"23 -2 CURVE SMOOTH",
"58 -2 OFFCURVE",
"88 20 OFFCURVE",
"113 42 CURVE SMOOTH",
"138 64 OFFCURVE",
"164 88 OFFCURVE",
"187 112 CURVE",
"173 90 OFFCURVE",
"-5 -309 OFFCURVE",
"-8 -335 CURVE SMOOTH",
"-8 -340 OFFCURVE",
"-6 -342 OFFCURVE",
"-1 -342 CURVE"
);
},
{
closed = 1;
nodes = (
"64 32 LINE",
"57 32 OFFCURVE",
"55 38 OFFCURVE",
"55 44 CURVE SMOOTH",
"55 86 OFFCURVE",
"124 197 OFFCURVE",
"155 226 CURVE SMOOTH",
"170 240 OFFCURVE",
"197 260 OFFCURVE",
"218 260 CURVE SMOOTH",
"231 260 OFFCURVE",
"241 256 OFFCURVE",
"241 241 CURVE SMOOTH",
"241 199 OFFCURVE",
"103 32 OFFCURVE",
"64 32 CURVE"
);
}
);
width = 279;
}
);
note = q;
unicode = 0071;
},
{
glyphname = r;
lastChange = "2021-04-30 03:09:52 +0000";
layers = (
{
anchors = (
{
name = bottom;
position = "{59, 0}";
},
{
name = top;
position = "{214, 273}";
}
);
hints = (
{
horizontal = 1;
place = "{0, 15}";
type = Stem;
},
{
horizontal = 1;
place = "{267, 15}";
type = Stem;
}
);
layerId = "A626400C-4409-4FF6-B7A4-72C4E5A5721C";
paths = (
{
closed = 1;
nodes = (
"40 -14 LINE",
"47 -14 OFFCURVE",
"66 -3 OFFCURVE",
"84 -2 CURVE",
"88 10 OFFCURVE",
"97 32 OFFCURVE",
"105 54 CURVE SMOOTH",
"120 92 OFFCURVE",
"140 132 OFFCURVE",
"179 178 CURVE SMOOTH",
"209 212 OFFCURVE",
"243 244 OFFCURVE",
"264 244 CURVE SMOOTH",
"287 244 OFFCURVE",
"294 221 OFFCURVE",
"294 199 CURVE SMOOTH",
"294 191 OFFCURVE",
"293 184 OFFCURVE",
"292 178 CURVE SMOOTH",
"291 173 OFFCURVE",
"302 178 OFFCURVE",
"304 182 CURVE SMOOTH",
"309 193 OFFCURVE",
"325 215 OFFCURVE",
"325 238 CURVE SMOOTH",
"325 243 OFFCURVE",
"324 249 OFFCURVE",
"322 254 CURVE SMOOTH",
"315 273 OFFCURVE",
"303 279 OFFCURVE",
"286 279 CURVE SMOOTH",
"238 279 OFFCURVE",
"171 199 OFFCURVE",
"144 158 CURVE",
"170 206 OFFCURVE",
"202 267 OFFCURVE",
"214 280 CURVE SMOOTH",
"218 285 OFFCURVE",
"217 291 OFFCURVE",
"214 291 CURVE SMOOTH",
"212 291 OFFCURVE",
"210 290 OFFCURVE",
"208 288 CURVE SMOOTH",
"197 279 OFFCURVE",
"160 273 OFFCURVE",
"146 271 CURVE",
"135 255 OFFCURVE",
"75 175 OFFCURVE",
"37 128 CURVE SMOOTH",
"34 124 OFFCURVE",
"32 117 OFFCURVE",
"32 113 CURVE SMOOTH",
"32 110 OFFCURVE",
"33 108 OFFCURVE",
"34 108 CURVE SMOOTH",
"35 108 OFFCURVE",
"37 109 OFFCURVE",
"39 112 CURVE SMOOTH",
"57 136 OFFCURVE",
"106 195 OFFCURVE",
"135 226 CURVE",
"127 210 OFFCURVE",
"86 103 OFFCURVE",
"59 38 CURVE SMOOTH",
"52 21 OFFCURVE",
"46 6 OFFCURVE",
"40 -6 CURVE SMOOTH",
"37 -12 OFFCURVE",
"37 -14 OFFCURVE",
"40 -14 CURVE"
);
}
);
width = 272;
}
);
note = r;
unicode = 0072;
},
{
glyphname = s;
lastChange = "2021-04-30 03:09:52 +0000";
layers = (
{
anchors = (
{
name = bottom;
position = "{84, -9}";
},
{
name = top;
position = "{189, 273}";
}
);
hints = (
{
horizontal = 1;
place = "{282, 16}";
type = Stem;
}
);
layerId = "A626400C-4409-4FF6-B7A4-72C4E5A5721C";
paths = (
{
closed = 1;
nodes = (
"94 -16 LINE",
"153 -16 OFFCURVE",
"206 30 OFFCURVE",
"206 83 CURVE SMOOTH",
"206 100 OFFCURVE",
"200 118 OFFCURVE",
"187 136 CURVE SMOOTH",
"172 156 OFFCURVE",
"137 186 OFFCURVE",
"132 207 CURVE SMOOTH",
"131 210 OFFCURVE",
"131 214 OFFCURVE",
"131 217 CURVE SMOOTH",
"131 244 OFFCURVE",
"155 262 OFFCURVE",
"177 262 CURVE SMOOTH",
"192 262 OFFCURVE",
"206 254 OFFCURVE",
"213 235 CURVE SMOOTH",
"217 226 OFFCURVE",
"219 215 OFFCURVE",
"219 205 CURVE SMOOTH",
"219 199 OFFCURVE",
"217 192 OFFCURVE",
"217 187 CURVE SMOOTH",
"217 181 OFFCURVE",
"227 186 OFFCURVE",
"231 194 CURVE SMOOTH",
"238 208 OFFCURVE",
"245 226 OFFCURVE",
"245 242 CURVE SMOOTH",
"244 277 OFFCURVE",
"216 281 OFFCURVE",
"188 281 CURVE SMOOTH",
"164 281 OFFCURVE",
"141 269 OFFCURVE",
"126 252 CURVE SMOOTH",
"112 236 OFFCURVE",
"104 219 OFFCURVE",
"82 186 CURVE SMOOTH",
"74 175 OFFCURVE",
"59 154 OFFCURVE",
"48 142 CURVE SMOOTH",
"43 136 OFFCURVE",
"40 128 OFFCURVE",
"40 123 CURVE SMOOTH",
"40 121 OFFCURVE",
"41 119 OFFCURVE",
"42 119 CURVE SMOOTH",
"44 119 OFFCURVE",
"46 121 OFFCURVE",
"49 125 CURVE SMOOTH",
"62 141 OFFCURVE",
"81 163 OFFCURVE",
"99 189 CURVE",
"99 185 OFFCURVE",
"100 181 OFFCURVE",
"101 177 CURVE SMOOTH",
"105 156 OFFCURVE",
"120 137 OFFCURVE",
"135 121 CURVE SMOOTH",
"158 96 OFFCURVE",
"168 73 OFFCURVE",
"168 53 CURVE SMOOTH",
"168 39 OFFCURVE",
"163 27 OFFCURVE",
"155 17 CURVE SMOOTH",
"145 5 OFFCURVE",
"123 0 OFFCURVE",
"102 0 CURVE SMOOTH",
"88 0 OFFCURVE",
"74 2 OFFCURVE",
"65 7 CURVE SMOOTH",
"54 14 OFFCURVE",
"42 23 OFFCURVE",
"34 34 CURVE SMOOTH",
"25 47 OFFCURVE",
"21 64 OFFCURVE",
"23 80 CURVE SMOOTH",
"24 86 OFFCURVE",
"27 93 OFFCURVE",
"29 97 CURVE",
"31 99 OFFCURVE",
"27 104 OFFCURVE",
"22 101 CURVE SMOOTH",
"9 91 OFFCURVE",
"-1 65 OFFCURVE",
"-1 46 CURVE SMOOTH",
"-1 43 OFFCURVE",
"-1 40 OFFCURVE",
"0 37 CURVE SMOOTH",
"9 -3 OFFCURVE",
"58 -16 OFFCURVE",
"94 -16 CURVE"
);
}
);
width = 232;
}
);
note = s;
unicode = 0073;
},
{
glyphname = t;
lastChange = "2021-04-30 03:09:52 +0000";
layers = (
{
anchors = (
{
name = bottom;
position = "{74, 0}";
},
{
name = center;
position = "{99, 137}";
},
{
name = top;
position = "{258, 426}";
},
{
name = topright;
position = "{332, 450}";
}
);
hints = (
{
horizontal = 1;
place = "{-1, 15}";
type = Stem;
},
{
horizontal = 1;
place = "{232, 22}";
type = Stem;
}
);
layerId = "A626400C-4409-4FF6-B7A4-72C4E5A5721C";
paths = (
{
closed = 1;
nodes = (
"74 -3 LINE",
"138 -3 OFFCURVE",
"201 65 OFFCURVE",
"240 115 CURVE SMOOTH",
"245 121 OFFCURVE",
"251 132 OFFCURVE",
"251 140 CURVE SMOOTH",
"251 142 OFFCURVE",
"250 144 OFFCURVE",
"249 146 CURVE",
"247 143 OFFCURVE",
"239 133 OFFCURVE",
"230 122 CURVE SMOOTH",
"197 84 OFFCURVE",
"142 26 OFFCURVE",
"116 26 CURVE SMOOTH",
"109 26 OFFCURVE",
"101 33 OFFCURVE",
"101 44 CURVE SMOOTH",
"101 45 OFFCURVE",
"101 47 OFFCURVE",
"101 48 CURVE SMOOTH",
"106 102 OFFCURVE",
"159 219 OFFCURVE",
"174 239 CURVE SMOOTH",
"188 259 OFFCURVE",
"232 252 OFFCURVE",
"266 262 CURVE SMOOTH",
"277 265 OFFCURVE",
"281 268 OFFCURVE",
"281 270 CURVE SMOOTH",
"281 272 OFFCURVE",
"277 273 OFFCURVE",
"270 273 CURVE SMOOTH",
"189 273 LINE",
"227 351 OFFCURVE",
"276 426 OFFCURVE",
"291 442 CURVE SMOOTH",
"295 447 OFFCURVE",
"294 450 OFFCURVE",
"291 450 CURVE SMOOTH",
"290 450 OFFCURVE",
"287 449 OFFCURVE",
"283 445 CURVE SMOOTH",
"268 430 OFFCURVE",
"236 413 OFFCURVE",
"225 412 CURVE",
"200 356 OFFCURVE",
"174 309 OFFCURVE",
"147 273 CURVE",
"137 273 OFFCURVE",
"110 274 OFFCURVE",
"109 274 CURVE SMOOTH",
"98 274 OFFCURVE",
"66 242 OFFCURVE",
"77 242 CURVE SMOOTH",
"78 242 OFFCURVE",
"115 247 OFFCURVE",
"131 247 CURVE",
"105 213 OFFCURVE",
"61 158 OFFCURVE",
"37 128 CURVE SMOOTH",
"34 124 OFFCURVE",
"32 117 OFFCURVE",
"32 113 CURVE SMOOTH",
"32 110 OFFCURVE",
"33 108 OFFCURVE",
"34 108 CURVE SMOOTH",
"35 108 OFFCURVE",
"37 109 OFFCURVE",
"39 112 CURVE SMOOTH",
"55 134 OFFCURVE",
"120 211 OFFCURVE",
"143 239 CURVE",
"143 239 OFFCURVE",
"101 141 OFFCURVE",
"89 118 CURVE SMOOTH",
"77 94 OFFCURVE",
"50 43 OFFCURVE",
"50 16 CURVE SMOOTH",
"50 1 OFFCURVE",
"60 -3 OFFCURVE",
"74 -3 CURVE"
);
}
);
width = 198;
}
);
note = t;
unicode = 0074;
},
{
glyphname = u;
lastChange = "2021-04-30 03:09:52 +0000";
layers = (
{
anchors = (
{
name = bottom;
position = "{124, 0}";
},
{
name = ogonek;
position = "{295, 10}";
},
{
name = top;
position = "{298, 273}";
},
{
name = topright;
position = "{325, 258}";
}
);
hints = (
{
horizontal = 1;
place = "{-5, 15}";
type = Stem;
},
{
horizontal = 1;
place = "{256, 15}";
type = Stem;
}
);
layerId = "A626400C-4409-4FF6-B7A4-72C4E5A5721C";
paths = (
{
closed = 1;
nodes = (
"90 -3 LINE",
"130 -3 OFFCURVE",
"169 22 OFFCURVE",
"202 54 CURVE SMOOTH",
"227 78 OFFCURVE",
"253 112 OFFCURVE",
"271 138 CURVE",
"259 115 OFFCURVE",
"234 50 OFFCURVE",
"234 24 CURVE SMOOTH",
"234 1 OFFCURVE",
"255 -3 OFFCURVE",
"269 -3 CURVE SMOOTH",
"333 -3 OFFCURVE",
"396 64 OFFCURVE",
"434 115 CURVE SMOOTH",
"440 122 OFFCURVE",
"446 130 OFFCURVE",
"448 140 CURVE SMOOTH",
"448 142 OFFCURVE",
"446 146 OFFCURVE",
"445 148 CURVE",
"442 145 OFFCURVE",
"433 132 OFFCURVE",
"424 122 CURVE SMOOTH",
"392 83 OFFCURVE",
"324 26 OFFCURVE",
"298 26 CURVE SMOOTH",
"290 26 OFFCURVE",
"286 32 OFFCURVE",
"284 40 CURVE SMOOTH",
"274 81 OFFCURVE",
"349 250 OFFCURVE",
"390 263 CURVE SMOOTH",
"399 266 OFFCURVE",
"403 271 OFFCURVE",
"403 275 CURVE SMOOTH",
"403 277 OFFCURVE",
"402 278 OFFCURVE",
"400 278 CURVE SMOOTH",
"399 278 OFFCURVE",
"399 278 OFFCURVE",
"398 278 CURVE",
"375 267 OFFCURVE",
"343 270 OFFCURVE",
"335 269 CURVE SMOOTH",
"327 268 OFFCURVE",
"325 258 OFFCURVE",
"322 253 CURVE SMOOTH",
"300 211 OFFCURVE",
"254 124 OFFCURVE",
"192 65 CURVE SMOOTH",
"169 43 OFFCURVE",
"146 26 OFFCURVE",
"132 26 CURVE SMOOTH",
"124 26 OFFCURVE",
"118 32 OFFCURVE",
"118 40 CURVE SMOOTH",
"118 72 OFFCURVE",
"188 198 OFFCURVE",
"208 228 CURVE SMOOTH",
"216 240 OFFCURVE",
"220 252 OFFCURVE",
"220 260 CURVE SMOOTH",
"220 270 OFFCURVE",
"214 276 OFFCURVE",
"199 276 CURVE SMOOTH",
"157 276 OFFCURVE",
"134 245 OFFCURVE",
"109 218 CURVE SMOOTH",
"82 188 OFFCURVE",
"56 154 OFFCURVE",
"37 128 CURVE SMOOTH",
"34 124 OFFCURVE",
"32 117 OFFCURVE",
"32 113 CURVE SMOOTH",
"32 110 OFFCURVE",
"33 108 OFFCURVE",
"34 108 CURVE SMOOTH",
"35 108 OFFCURVE",
"37 109 OFFCURVE",
"39 112 CURVE SMOOTH",
"56 135 OFFCURVE",
"92 179 OFFCURVE",
"122 207 CURVE SMOOTH",
"135 218 OFFCURVE",
"155 234 OFFCURVE",
"155 223 CURVE SMOOTH",
"155 220 OFFCURVE",
"153 214 OFFCURVE",
"147 203 CURVE SMOOTH",
"136 181 OFFCURVE",
"121 149 OFFCURVE",
"105 118 CURVE SMOOTH",
"93 94 OFFCURVE",
"66 43 OFFCURVE",
"66 16 CURVE SMOOTH",
"66 1 OFFCURVE",
"76 -3 OFFCURVE",
"90 -3 CURVE"
);
}
);
width = 393;
}
);
note = u;
unicode = 0075;
},
{
glyphname = v;
lastChange = "2021-04-30 03:09:52 +0000";
layers = (
{
hints = (
{
horizontal = 1;
place = "{280, 15}";
type = Stem;
}
);
layerId = "A626400C-4409-4FF6-B7A4-72C4E5A5721C";
paths = (
{
closed = 1;
nodes = (
"116 -6 LINE",
"131 -6 OFFCURVE",
"149 1 OFFCURVE",
"165 11 CURVE SMOOTH",
"212 40 OFFCURVE",
"306 168 OFFCURVE",
"322 212 CURVE SMOOTH",
"326 222 OFFCURVE",
"327 231 OFFCURVE",
"327 238 CURVE SMOOTH",
"327 266 OFFCURVE",
"305 272 OFFCURVE",
"288 278 CURVE SMOOTH",
"282 281 OFFCURVE",
"276 278 OFFCURVE",
"276 275 CURVE SMOOTH",
"276 273 OFFCURVE",
"278 271 OFFCURVE",
"282 270 CURVE SMOOTH",
"284 269 OFFCURVE",
"290 263 OFFCURVE",
"290 247 CURVE SMOOTH",
"290 237 OFFCURVE",
"288 222 OFFCURVE",
"280 201 CURVE SMOOTH",
"264 155 OFFCURVE",
"219 86 OFFCURVE",
"192 57 CURVE SMOOTH",
"177 41 OFFCURVE",
"154 23 OFFCURVE",
"139 23 CURVE SMOOTH",
"128 23 OFFCURVE",
"121 30 OFFCURVE",
"121 52 CURVE SMOOTH",
"121 110 OFFCURVE",
"162 236 OFFCURVE",
"185 270 CURVE SMOOTH",
"189 275 OFFCURVE",
"189 281 OFFCURVE",
"185 281 CURVE SMOOTH",
"184 281 OFFCURVE",
"182 280 OFFCURVE",
"179 278 CURVE SMOOTH",
"169 269 OFFCURVE",
"144 263 OFFCURVE",
"130 261 CURVE",
"104 221 OFFCURVE",
"65 166 OFFCURVE",
"37 128 CURVE SMOOTH",
"34 124 OFFCURVE",
"32 117 OFFCURVE",
"32 113 CURVE SMOOTH",
"32 110 OFFCURVE",
"33 108 OFFCURVE",
"34 108 CURVE SMOOTH",
"35 108 OFFCURVE",
"37 109 OFFCURVE",
"39 112 CURVE SMOOTH",
"57 136 OFFCURVE",
"89 174 OFFCURVE",
"112 208 CURVE",
"94 159 OFFCURVE",
"82 82 OFFCURVE",
"82 39 CURVE SMOOTH",
"82 6 OFFCURVE",
"97 -6 OFFCURVE",
"116 -6 CURVE"
);
}
);
width = 294;
}
);
note = v;
unicode = 0076;
},
{
glyphname = w;
lastChange = "2021-04-30 03:09:52 +0000";
layers = (
{
hints = (
{
horizontal = 1;
place = "{-5, 15}";
type = Stem;
},
{
horizontal = 1;
place = "{275, 15}";
type = Stem;
}
);
layerId = "A626400C-4409-4FF6-B7A4-72C4E5A5721C";
paths = (
{
closed = 1;
nodes = (
"116 -6 LINE",
"131 -6 OFFCURVE",
"149 1 OFFCURVE",
"165 11 CURVE SMOOTH",
"190 26 OFFCURVE",
"229 74 OFFCURVE",
"262 122 CURVE SMOOTH",
"273 139 OFFCURVE",
"280 156 OFFCURVE",
"290 171 CURVE",
"278 126 OFFCURVE",
"270 73 OFFCURVE",
"270 39 CURVE SMOOTH",
"270 5 OFFCURVE",
"288 -6 OFFCURVE",
"309 -6 CURVE SMOOTH",
"326 -6 OFFCURVE",
"345 1 OFFCURVE",
"363 11 CURVE SMOOTH",
"434 52 OFFCURVE",
"504 142 OFFCURVE",
"532 216 CURVE SMOOTH",
"537 229 OFFCURVE",
"539 240 OFFCURVE",
"539 250 CURVE SMOOTH",
"539 276 OFFCURVE",
"521 290 OFFCURVE",
"500 295 CURVE SMOOTH",
"492 296 OFFCURVE",
"484 292 OFFCURVE",
"484 289 CURVE SMOOTH",
"484 287 OFFCURVE",
"486 285 OFFCURVE",
"489 284 CURVE SMOOTH",
"496 282 OFFCURVE",
"503 271 OFFCURVE",
"503 252 CURVE SMOOTH",
"503 239 OFFCURVE",
"501 224 OFFCURVE",
"493 204 CURVE SMOOTH",
"471 145 OFFCURVE",
"442 103 OFFCURVE",
"397 57 CURVE SMOOTH",
"381 41 OFFCURVE",
"353 23 OFFCURVE",
"333 23 CURVE SMOOTH",
"320 23 OFFCURVE",
"311 31 OFFCURVE",
"311 53 CURVE SMOOTH",
"311 111 OFFCURVE",
"348 236 OFFCURVE",
"371 270 CURVE SMOOTH",
"375 275 OFFCURVE",
"374 281 OFFCURVE",
"370 281 CURVE SMOOTH",
"369 281 OFFCURVE",
"367 280 OFFCURVE",
"365 278 CURVE SMOOTH",
"354 269 OFFCURVE",
"329 263 OFFCURVE",
"315 261 CURVE",
"297 231 OFFCURVE",
"272 174 OFFCURVE",
"245 132 CURVE SMOOTH",
"228 105 OFFCURVE",
"176 22 OFFCURVE",
"139 22 CURVE SMOOTH",
"129 22 OFFCURVE",
"121 29 OFFCURVE",
"121 50 CURVE SMOOTH",
"121 107 OFFCURVE",
"161 235 OFFCURVE",
"185 270 CURVE SMOOTH",
"189 275 OFFCURVE",
"189 281 OFFCURVE",
"185 281 CURVE SMOOTH",
"184 281 OFFCURVE",
"182 280 OFFCURVE",
"179 278 CURVE SMOOTH",
"169 269 OFFCURVE",
"144 263 OFFCURVE",
"130 261 CURVE",
"104 221 OFFCURVE",
"65 166 OFFCURVE",
"37 128 CURVE SMOOTH",
"34 124 OFFCURVE",
"32 117 OFFCURVE",
"32 113 CURVE SMOOTH",
"32 110 OFFCURVE",
"33 108 OFFCURVE",
"34 108 CURVE SMOOTH",
"35 108 OFFCURVE",
"37 109 OFFCURVE",
"39 112 CURVE SMOOTH",
"57 136 OFFCURVE",
"89 174 OFFCURVE",
"112 208 CURVE",
"94 159 OFFCURVE",
"82 82 OFFCURVE",
"82 39 CURVE SMOOTH",
"82 6 OFFCURVE",
"97 -6 OFFCURVE",
"116 -6 CURVE"
);
}
);
width = 500;
}
);
note = w;
unicode = 0077;
},
{
glyphname = x;
lastChange = "2021-04-30 03:09:52 +0000";
layers = (
{
hints = (
{
horizontal = 1;
place = "{250, 15}";
type = Stem;
}
);
layerId = "A626400C-4409-4FF6-B7A4-72C4E5A5721C";
paths = (
{
closed = 1;
nodes = (
"194 -6 LINE",
"239 -6 OFFCURVE",
"272 63 OFFCURVE",
"282 109 CURVE SMOOTH",
"283 116 OFFCURVE",
"280 120 OFFCURVE",
"277 120 CURVE SMOOTH",
"275 120 OFFCURVE",
"273 118 OFFCURVE",
"272 114 CURVE SMOOTH",
"265 86 OFFCURVE",
"238 27 OFFCURVE",
"210 27 CURVE SMOOTH",
"200 27 OFFCURVE",
"190 34 OFFCURVE",
"181 53 CURVE SMOOTH",
"167 79 OFFCURVE",
"158 114 OFFCURVE",
"156 126 CURVE",
"195 159 OFFCURVE",
"259 212 OFFCURVE",
"306 233 CURVE SMOOTH",
"316 238 OFFCURVE",
"338 248 OFFCURVE",
"357 249 CURVE SMOOTH",
"359 249 OFFCURVE",
"361 254 OFFCURVE",
"361 258 CURVE SMOOTH",
"361 261 OFFCURVE",
"360 264 OFFCURVE",
"358 264 CURVE SMOOTH",
"340 264 OFFCURVE",
"314 268 OFFCURVE",
"298 257 CURVE SMOOTH",
"289 250 OFFCURVE",
"167 154 OFFCURVE",
"152 141 CURVE",
"148 160 OFFCURVE",
"145 180 OFFCURVE",
"145 200 CURVE SMOOTH",
"145 208 OFFCURVE",
"146 216 OFFCURVE",
"147 224 CURVE SMOOTH",
"148 233 OFFCURVE",
"150 253 OFFCURVE",
"167 253 CURVE SMOOTH",
"172 253 OFFCURVE",
"175 255 OFFCURVE",
"175 257 CURVE SMOOTH",
"175 260 OFFCURVE",
"170 264 OFFCURVE",
"161 264 CURVE SMOOTH",
"139 264 OFFCURVE",
"100 245 OFFCURVE",
"97 222 CURVE SMOOTH",
"96 214 OFFCURVE",
"112 123 OFFCURVE",
"115 109 CURVE",
"69 71 OFFCURVE",
"41 49 OFFCURVE",
"-6 12 CURVE SMOOTH",
"-10 9 OFFCURVE",
"-12 6 OFFCURVE",
"-12 3 CURVE SMOOTH",
"-12 -2 OFFCURVE",
"-1 -5 OFFCURVE",
"9 -5 CURVE SMOOTH",
"16 -5 OFFCURVE",
"22 -4 OFFCURVE",
"24 -2 CURVE SMOOTH",
"58 32 OFFCURVE",
"81 62 OFFCURVE",
"118 94 CURVE",
"124 68 OFFCURVE",
"147 11 OFFCURVE",
"174 -1 CURVE SMOOTH",
"180 -4 OFFCURVE",
"187 -6 OFFCURVE",
"194 -6 CURVE"
);
}
);
width = 299;
}
);
note = x;
unicode = 0078;
},
{
glyphname = y;
lastChange = "2021-04-30 03:09:52 +0000";
layers = (
{
anchors = (
{
name = bottom;
position = "{283, 0}";
},
{
name = top;
position = "{301, 273}";
}
);
hints = (
{
horizontal = 1;
place = "{250, 15}";
type = Stem;
}
);
layerId = "A626400C-4409-4FF6-B7A4-72C4E5A5721C";
paths = (
{
closed = 1;
nodes = (
"-69 -350 LINE",
"-43 -350 OFFCURVE",
"-17 -345 OFFCURVE",
"6 -335 CURVE SMOOTH",
"120 -286 OFFCURVE",
"183 -171 OFFCURVE",
"232 -57 CURVE SMOOTH",
"274 43 OFFCURVE",
"342 206 OFFCURVE",
"367 242 CURVE SMOOTH",
"374 252 OFFCURVE",
"386 261 OFFCURVE",
"401 261 CURVE SMOOTH",
"405 261 OFFCURVE",
"410 264 OFFCURVE",
"410 269 CURVE SMOOTH",
"410 273 OFFCURVE",
"406 275 OFFCURVE",
"399 275 CURVE SMOOTH",
"394 275 OFFCURVE",
"387 274 OFFCURVE",
"378 272 CURVE SMOOTH",
"358 268 OFFCURVE",
"334 252 OFFCURVE",
"328 249 CURVE SMOOTH",
"317 244 OFFCURVE",
"294 202 OFFCURVE",
"288 192 CURVE SMOOTH",
"264 150 OFFCURVE",
"231 102 OFFCURVE",
"192 65 CURVE SMOOTH",
"169 43 OFFCURVE",
"146 26 OFFCURVE",
"132 26 CURVE SMOOTH",
"124 26 OFFCURVE",
"118 32 OFFCURVE",
"118 40 CURVE SMOOTH",
"118 72 OFFCURVE",
"188 198 OFFCURVE",
"208 228 CURVE SMOOTH",
"216 240 OFFCURVE",
"220 252 OFFCURVE",
"220 260 CURVE SMOOTH",
"220 270 OFFCURVE",
"214 276 OFFCURVE",
"199 276 CURVE SMOOTH",
"157 276 OFFCURVE",
"134 245 OFFCURVE",
"109 218 CURVE SMOOTH",
"82 188 OFFCURVE",
"56 154 OFFCURVE",
"37 128 CURVE SMOOTH",
"34 124 OFFCURVE",
"32 117 OFFCURVE",
"32 113 CURVE SMOOTH",
"32 110 OFFCURVE",
"33 108 OFFCURVE",
"34 108 CURVE SMOOTH",
"35 108 OFFCURVE",
"37 109 OFFCURVE",
"39 112 CURVE SMOOTH",
"56 135 OFFCURVE",
"92 179 OFFCURVE",
"122 207 CURVE SMOOTH",
"135 218 OFFCURVE",
"155 234 OFFCURVE",
"155 223 CURVE SMOOTH",
"155 220 OFFCURVE",
"153 214 OFFCURVE",
"147 203 CURVE SMOOTH",
"136 181 OFFCURVE",
"121 149 OFFCURVE",
"105 118 CURVE SMOOTH",
"93 94 OFFCURVE",
"66 43 OFFCURVE",
"66 16 CURVE SMOOTH",
"66 1 OFFCURVE",
"76 -3 OFFCURVE",
"90 -3 CURVE SMOOTH",
"130 -3 OFFCURVE",
"169 22 OFFCURVE",
"202 54 CURVE SMOOTH",
"225 76 OFFCURVE",
"267 127 OFFCURVE",
"288 156 CURVE",
"275 117 OFFCURVE",
"258 68 OFFCURVE",
"237 17 CURVE SMOOTH",
"181 -112 OFFCURVE",
"108 -243 OFFCURVE",
"-17 -297 CURVE SMOOTH",
"-40 -306 OFFCURVE",
"-66 -312 OFFCURVE",
"-90 -312 CURVE SMOOTH",
"-149 -312 OFFCURVE",
"-193 -280 OFFCURVE",
"-193 -218 CURVE SMOOTH",
"-193 -209 OFFCURVE",
"-191 -201 OFFCURVE",
"-191 -193 CURVE SMOOTH",
"-191 -191 OFFCURVE",
"-192 -191 OFFCURVE",
"-193 -191 CURVE SMOOTH",
"-204 -191 OFFCURVE",
"-205 -202 OFFCURVE",
"-205 -212 CURVE SMOOTH",
"-205 -216 OFFCURVE",
"-205 -220 OFFCURVE",
"-205 -223 CURVE SMOOTH",
"-205 -242 OFFCURVE",
"-203 -262 OFFCURVE",
"-195 -279 CURVE SMOOTH",
"-172 -327 OFFCURVE",
"-120 -350 OFFCURVE",
"-69 -350 CURVE"
);
}
);
width = 344;
}
);
note = y;
unicode = 0079;
},
{
glyphname = z;
lastChange = "2021-04-30 03:09:52 +0000";
layers = (
{
anchors = (
{
name = bottom;
position = "{117, 0}";
},
{
name = center;
position = "{117, 137}";
},
{
name = top;
position = "{199, 267}";
}
);
hints = (
{
horizontal = 1;
place = "{249, 15}";
type = Stem;
}
);
layerId = "A626400C-4409-4FF6-B7A4-72C4E5A5721C";
paths = (
{
closed = 1;
nodes = (
"305 -127 LINE",
"329 -127 OFFCURVE",
"352 -113 OFFCURVE",
"364 -95 CURVE SMOOTH",
"371 -85 OFFCURVE",
"374 -75 OFFCURVE",
"374 -65 CURVE SMOOTH",
"374 -44 OFFCURVE",
"362 -25 OFFCURVE",
"345 -16 CURVE SMOOTH",
"340 -14 OFFCURVE",
"333 -17 OFFCURVE",
"333 -21 CURVE SMOOTH",
"333 -22 OFFCURVE",
"333 -22 OFFCURVE",
"334 -23 CURVE SMOOTH",
"343 -29 OFFCURVE",
"359 -46 OFFCURVE",
"359 -61 CURVE SMOOTH",
"359 -67 OFFCURVE",
"357 -72 OFFCURVE",
"351 -77 CURVE SMOOTH",
"344 -83 OFFCURVE",
"334 -85 OFFCURVE",
"325 -86 CURVE",
"297 -86 OFFCURVE",
"254 -52 OFFCURVE",
"214 -12 CURVE SMOOTH",
"174 27 OFFCURVE",
"143 59 OFFCURVE",
"101 59 CURVE SMOOTH",
"86 59 OFFCURVE",
"69 55 OFFCURVE",
"49 45 CURVE",
"71 64 OFFCURVE",
"109 99 OFFCURVE",
"134 118 CURVE SMOOTH",
"187 161 OFFCURVE",
"246 201 OFFCURVE",
"292 234 CURVE",
"291 243 OFFCURVE",
"283 266 OFFCURVE",
"271 266 CURVE SMOOTH",
"235 266 OFFCURVE",
"191 263 OFFCURVE",
"151 263 CURVE SMOOTH",
"135 263 OFFCURVE",
"120 264 OFFCURVE",
"106 265 CURVE",
"99 253 OFFCURVE",
"94 240 OFFCURVE",
"82 227 CURVE SMOOTH",
"79 224 OFFCURVE",
"77 221 OFFCURVE",
"77 219 CURVE SMOOTH",
"77 217 OFFCURVE",
"79 216 OFFCURVE",
"81 216 CURVE SMOOTH",
"84 216 OFFCURVE",
"90 219 OFFCURVE",
"95 225 CURVE SMOOTH",
"108 243 OFFCURVE",
"214 246 OFFCURVE",
"248 246 CURVE",
"192 200 OFFCURVE",
"149 159 OFFCURVE",
"94 112 CURVE SMOOTH",
"71 92 OFFCURVE",
"2 21 OFFCURVE",
"-12 -2 CURVE SMOOTH",
"-14 -6 OFFCURVE",
"-16 -10 OFFCURVE",
"-16 -13 CURVE SMOOTH",
"-16 -22 OFFCURVE",
"-9 -28 OFFCURVE",
"-2 -28 CURVE SMOOTH",
"2 -28 OFFCURVE",
"6 -26 OFFCURVE",
"8 -23 CURVE SMOOTH",
"12 -17 OFFCURVE",
"14 -10 OFFCURVE",
"16 -2 CURVE SMOOTH",
"24 27 OFFCURVE",
"56 47 OFFCURVE",
"86 47 CURVE SMOOTH",
"123 47 OFFCURVE",
"145 16 OFFCURVE",
"175 -19 CURVE SMOOTH",
"254 -109 OFFCURVE",
"274 -127 OFFCURVE",
"305 -127 CURVE"
);
}
);
width = 234;
}
);
note = z;
unicode = 007A;
},
{
glyphname = braceleft;
lastChange = "2021-04-30 03:09:52 +0000";
layers = (
{
hints = (
{
horizontal = 1;
place = "{560, -20}";
target = down;
type = TopGhost;
}
);
layerId = "A626400C-4409-4FF6-B7A4-72C4E5A5721C";
paths = (
{
closed = 1;
nodes = (
"225 -101 LINE",
"230 -101 OFFCURVE",
"239 -93 OFFCURVE",
"243 -84 CURVE",
"236 -85 OFFCURVE",
"226 -86 OFFCURVE",
"217 -86 CURVE SMOOTH",
"210 -86 OFFCURVE",
"204 -85 OFFCURVE",
"200 -85 CURVE SMOOTH",
"171 -82 OFFCURVE",
"150 -79 OFFCURVE",
"154 -41 CURVE SMOOTH",
"163 31 OFFCURVE",
"218 90 OFFCURVE",
"226 162 CURVE SMOOTH",
"231 203 OFFCURVE",
"198 224 OFFCURVE",
"162 232 CURVE",
"199 241 OFFCURVE",
"238 260 OFFCURVE",
"265 282 CURVE SMOOTH",
"325 328 OFFCURVE",
"344 420 OFFCURVE",
"381 484 CURVE SMOOTH",
"407 527 OFFCURVE",
"440 542 OFFCURVE",
"491 546 CURVE SMOOTH",
"507 547 OFFCURVE",
"527 546 OFFCURVE",
"537 544 CURVE",
"537 547 OFFCURVE",
"533 553 OFFCURVE",
"530 557 CURVE SMOOTH",
"527 560 OFFCURVE",
"515 561 OFFCURVE",
"502 561 CURVE SMOOTH",
"491 561 OFFCURVE",
"480 560 OFFCURVE",
"474 560 CURVE",
"363 544 OFFCURVE",
"305 472 OFFCURVE",
"277 401 CURVE SMOOTH",
"269 381 OFFCURVE",
"262 361 OFFCURVE",
"253 342 CURVE SMOOTH",
"219 272 OFFCURVE",
"173 242 OFFCURVE",
"91 241 CURVE",
"78 228 LINE",
"129 223 OFFCURVE",
"173 213 OFFCURVE",
"167 170 CURVE SMOOTH",
"159 96 OFFCURVE",
"99 35 OFFCURVE",
"90 -40 CURVE SMOOTH",
"83 -99 OFFCURVE",
"177 -101 OFFCURVE",
"225 -101 CURVE"
);
}
);
width = 354;
}
);
note = braceleft;
unicode = 007B;
},
{
glyphname = bar;
lastChange = "2021-04-30 03:09:52 +0000";
layers = (
{
hints = (
{
horizontal = 1;
place = "{0, 577}";
type = Stem;
},
{
place = "{64, 281}";
type = Stem;
}
);
layerId = "A626400C-4409-4FF6-B7A4-72C4E5A5721C";
paths = (
{
closed = 1;
nodes = (
"64 0 LINE",
"106 0 LINE",
"124 43 OFFCURVE",
"325 550 OFFCURVE",
"345 577 CURVE",
"298 577 LINE",
"265 493 OFFCURVE",
"88 67 OFFCURVE",
"64 0 CURVE"
);
}
);
width = 364;
}
);
note = bar;
unicode = 007C;
},
{
glyphname = braceright;
lastChange = "2021-04-30 03:09:52 +0000";
layers = (
{
hints = (
{
horizontal = 1;
place = "{560, -20}";
target = down;
type = TopGhost;
}
);
layerId = "A626400C-4409-4FF6-B7A4-72C4E5A5721C";
paths = (
{
closed = 1;
nodes = (
"-3 -103 LINE",
"9 -103 OFFCURVE",
"22 -102 OFFCURVE",
"28 -101 CURVE SMOOTH",
"139 -86 OFFCURVE",
"197 -14 OFFCURVE",
"225 57 CURVE SMOOTH",
"233 77 OFFCURVE",
"241 97 OFFCURVE",
"250 116 CURVE SMOOTH",
"283 186 OFFCURVE",
"329 216 OFFCURVE",
"412 217 CURVE",
"425 230 LINE",
"373 235 OFFCURVE",
"330 245 OFFCURVE",
"335 289 CURVE SMOOTH",
"343 362 OFFCURVE",
"403 423 OFFCURVE",
"412 498 CURVE SMOOTH",
"419 557 OFFCURVE",
"325 560 OFFCURVE",
"277 560 CURVE SMOOTH",
"272 560 OFFCURVE",
"264 551 OFFCURVE",
"259 542 CURVE",
"267 543 OFFCURVE",
"277 544 OFFCURVE",
"286 544 CURVE SMOOTH",
"292 544 OFFCURVE",
"298 543 OFFCURVE",
"302 543 CURVE SMOOTH",
"332 540 OFFCURVE",
"352 537 OFFCURVE",
"348 499 CURVE SMOOTH",
"340 427 OFFCURVE",
"285 369 OFFCURVE",
"276 296 CURVE SMOOTH",
"271 255 OFFCURVE",
"304 234 OFFCURVE",
"340 226 CURVE",
"303 217 OFFCURVE",
"265 198 OFFCURVE",
"237 177 CURVE SMOOTH",
"178 130 OFFCURVE",
"158 38 OFFCURVE",
"121 -26 CURVE SMOOTH",
"96 -69 OFFCURVE",
"62 -84 OFFCURVE",
"12 -88 CURVE SMOOTH",
"-4 -89 OFFCURVE",
"-25 -88 OFFCURVE",
"-35 -86 CURVE",
"-34 -89 OFFCURVE",
"-31 -95 OFFCURVE",
"-28 -99 CURVE SMOOTH",
"-26 -102 OFFCURVE",
"-15 -103 OFFCURVE",
"-3 -103 CURVE"
);
}
);
width = 411;
}
);
note = braceright;
unicode = 007D;
},
{
glyphname = asciitilde;
lastChange = "2021-04-30 03:09:52 +0000";
layers = (
{
hints = (
{
horizontal = 1;
place = "{319, 19}";
type = Stem;
},
{
horizontal = 1;
place = "{366, -20}";
target = down;
type = TopGhost;
}
);
layerId = "A626400C-4409-4FF6-B7A4-72C4E5A5721C";
paths = (
{
closed = 1;
nodes = (
"244 319 LINE",
"258 319 OFFCURVE",
"288 342 OFFCURVE",
"297 352 CURVE",
"291 359 LINE",
"274 348 OFFCURVE",
"266 338 OFFCURVE",
"245 338 CURVE SMOOTH",
"197 338 OFFCURVE",
"166 366 OFFCURVE",
"130 366 CURVE SMOOTH",
"112 366 OFFCURVE",
"88 346 OFFCURVE",
"75 335 CURVE",
"83 325 LINE",
"95 335 OFFCURVE",
"109 346 OFFCURVE",
"126 346 CURVE SMOOTH",
"165 346 OFFCURVE",
"199 319 OFFCURVE",
"244 319 CURVE"
);
}
);
width = 277;
}
);
note = asciitilde;
unicode = 007E;
},
{
glyphname = Ccedilla;
lastChange = "2021-04-30 03:09:52 +0000";
layers = (
{
hints = (
{
horizontal = 1;
place = "{-33, 30}";
type = Stem;
},
{
horizontal = 1;
place = "{446, 27}";
type = Stem;
},
{
place = "{58, 50}";
type = Stem;
},
{
horizontal = 1;
place = "{568, 18}";
type = Stem;
}
);
layerId = "A626400C-4409-4FF6-B7A4-72C4E5A5721C";
paths = (
{
closed = 1;
nodes = (
"248 -29 LINE",
"307 -29 OFFCURVE",
"368 -16 OFFCURVE",
"412 2 CURVE SMOOTH",
"477 29 OFFCURVE",
"535 69 OFFCURVE",
"581 130 CURVE SMOOTH",
"587 138 OFFCURVE",
"589 145 OFFCURVE",
"589 149 CURVE SMOOTH",
"589 151 OFFCURVE",
"588 153 OFFCURVE",
"586 153 CURVE SMOOTH",
"584 153 OFFCURVE",
"582 151 OFFCURVE",
"579 148 CURVE SMOOTH",
"530 87 OFFCURVE",
"474 51 OFFCURVE",
"404 24 CURVE SMOOTH",
"363 8 OFFCURVE",
"310 -4 OFFCURVE",
"260 -4 CURVE SMOOTH",
"174 -4 OFFCURVE",
"97 31 OFFCURVE",
"97 137 CURVE SMOOTH",
"97 240 OFFCURVE",
"165 369 OFFCURVE",
"259 452 CURVE SMOOTH",
"293 481 OFFCURVE",
"331 504 OFFCURVE",
"370 518 CURVE SMOOTH",
"392 526 OFFCURVE",
"425 534 OFFCURVE",
"456 534 CURVE SMOOTH",
"488 534 OFFCURVE",
"518 526 OFFCURVE",
"532 502 CURVE SMOOTH",
"540 490 OFFCURVE",
"543 472 OFFCURVE",
"543 454 CURVE SMOOTH",
"543 428 OFFCURVE",
"537 401 OFFCURVE",
"526 384 CURVE SMOOTH",
"523 378 OFFCURVE",
"543 383 OFFCURVE",
"545 389 CURVE SMOOTH",
"555 418 OFFCURVE",
"581 447 OFFCURVE",
"586 468 CURVE SMOOTH",
"587 471 OFFCURVE",
"587 475 OFFCURVE",
"587 478 CURVE SMOOTH",
"587 501 OFFCURVE",
"569 519 OFFCURVE",
"543 531 CURVE SMOOTH",
"512 546 OFFCURVE",
"484 549 OFFCURVE",
"451 549 CURVE SMOOTH",
"371 549 OFFCURVE",
"285 516 OFFCURVE",
"224 470 CURVE SMOOTH",
"120 391 OFFCURVE",
"38 265 OFFCURVE",
"38 135 CURVE SMOOTH",
"38 12 OFFCURVE",
"141 -29 OFFCURVE",
"248 -29 CURVE"
);
},
{
closed = 1;
nodes = (
"73 -233 LINE",
"122 -233 OFFCURVE",
"203 -211 OFFCURVE",
"213 -157 CURVE SMOOTH",
"220 -119 OFFCURVE",
"178 -101 OFFCURVE",
"178 -70 CURVE SMOOTH",
"178 -46 OFFCURVE",
"202 -24 OFFCURVE",
"230 -17 CURVE",
"222 -17 OFFCURVE",
"214 -17 OFFCURVE",
"210 -17 CURVE SMOOTH",
"172 -17 OFFCURVE",
"143 -50 OFFCURVE",
"143 -83 CURVE SMOOTH",
"143 -113 OFFCURVE",
"180 -142 OFFCURVE",
"176 -166 CURVE SMOOTH",
"166 -225 OFFCURVE",
"90 -219 OFFCURVE",
"76 -219 CURVE SMOOTH",
"73 -219 OFFCURVE",
"67 -221 OFFCURVE",
"67 -225 CURVE SMOOTH",
"67 -229 OFFCURVE",
"69 -233 OFFCURVE",
"73 -233 CURVE"
);
}
);
width = 527;
}
);
note = Ccedilla;
unicode = 00C7;
},
{
glyphname = dagger;
lastChange = "2021-04-30 03:09:52 +0000";
layers = (
{
hints = (
{
horizontal = 1;
place = "{357, 36}";
type = Stem;
}
);
layerId = "A626400C-4409-4FF6-B7A4-72C4E5A5721C";
paths = (
{
closed = 1;
nodes = (
"80 -107 LINE",
"129 -78 LINE",
"139 -53 OFFCURVE",
"235 173 OFFCURVE",
"317 362 CURVE",
"359 361 OFFCURVE",
"419 359 OFFCURVE",
"441 357 CURVE SMOOTH",
"452 356 OFFCURVE",
"482 393 OFFCURVE",
"476 393 CURVE SMOOTH",
"451 392 OFFCURVE",
"383 390 OFFCURVE",
"329 390 CURVE",
"382 511 OFFCURVE",
"426 611 OFFCURVE",
"434 622 CURVE",
"355 576 LINE",
"345 550 OFFCURVE",
"316 478 OFFCURVE",
"280 390 CURVE",
"240 390 OFFCURVE",
"189 391 OFFCURVE",
"170 394 CURVE SMOOTH",
"159 396 OFFCURVE",
"129 358 OFFCURVE",
"135 358 CURVE SMOOTH",
"172 361 OFFCURVE",
"225 362 OFFCURVE",
"269 362 CURVE",
"193 177 OFFCURVE",
"96 -63 OFFCURVE",
"80 -107 CURVE"
);
}
);
width = 327;
}
);
note = dagger;
unicode = 2020;
},
{
glyphname = degree;
lastChange = "2021-04-30 03:09:52 +0000";
layers = (
{
hints = (
{
horizontal = 1;
place = "{275, 28}";
type = Stem;
},
{
horizontal = 1;
place = "{386, 28}";
type = Stem;
}
);
layerId = "A626400C-4409-4FF6-B7A4-72C4E5A5721C";
paths = (
{
closed = 1;
nodes = (
"156 275 LINE",
"202 275 OFFCURVE",
"246 313 OFFCURVE",
"246 355 CURVE SMOOTH",
"246 388 OFFCURVE",
"218 414 OFFCURVE",
"180 414 CURVE SMOOTH",
"134 414 OFFCURVE",
"91 377 OFFCURVE",
"91 334 CURVE SMOOTH",
"91 301 OFFCURVE",
"118 275 OFFCURVE",
"156 275 CURVE"
);
},
{
closed = 1;
nodes = (
"161 304 LINE",
"139 304 OFFCURVE",
"122 320 OFFCURVE",
"122 339 CURVE SMOOTH",
"122 363 OFFCURVE",
"149 386 OFFCURVE",
"175 386 CURVE SMOOTH",
"197 386 OFFCURVE",
"214 370 OFFCURVE",
"214 351 CURVE SMOOTH",
"214 327 OFFCURVE",
"187 304 OFFCURVE",
"161 304 CURVE"
);
}
);
width = 212;
}
);
note = degree;
unicode = 00B0;
},
{
glyphname = cent;
lastChange = "2021-04-30 03:09:52 +0000";
layers = (
{
hints = (
{
place = "{54, 54}";
type = Stem;
}
);
layerId = "A626400C-4409-4FF6-B7A4-72C4E5A5721C";
paths = (
{
closed = 1;
nodes = (
"112 -49 LINE",
"111 -53 OFFCURVE",
"151 -36 OFFCURVE",
"152 -34 CURVE",
"159 -9 OFFCURVE",
"171 27 OFFCURVE",
"185 68 CURVE",
"266 69 OFFCURVE",
"341 118 OFFCURVE",
"385 189 CURVE SMOOTH",
"387 192 OFFCURVE",
"385 203 OFFCURVE",
"380 203 CURVE SMOOTH",
"379 203 OFFCURVE",
"378 203 OFFCURVE",
"377 201 CURVE SMOOTH",
"338 143 OFFCURVE",
"265 92 OFFCURVE",
"195 95 CURVE",
"232 202 OFFCURVE",
"282 338 OFFCURVE",
"315 427 CURVE",
"337 428 OFFCURVE",
"358 424 OFFCURVE",
"368 408 CURVE SMOOTH",
"373 400 OFFCURVE",
"375 388 OFFCURVE",
"375 376 CURVE SMOOTH",
"375 362 OFFCURVE",
"372 347 OFFCURVE",
"366 337 CURVE SMOOTH",
"364 333 OFFCURVE",
"377 336 OFFCURVE",
"378 340 CURVE SMOOTH",
"384 358 OFFCURVE",
"401 376 OFFCURVE",
"404 389 CURVE SMOOTH",
"408 407 OFFCURVE",
"396 420 OFFCURVE",
"377 429 CURVE SMOOTH",
"358 438 OFFCURVE",
"341 440 OFFCURVE",
"320 440 CURVE",
"336 481 OFFCURVE",
"347 509 OFFCURVE",
"350 518 CURVE SMOOTH",
"353 525 OFFCURVE",
"330 518 OFFCURVE",
"327 511 CURVE SMOOTH",
"320 494 OFFCURVE",
"310 469 OFFCURVE",
"298 439 CURVE",
"252 434 OFFCURVE",
"200 414 OFFCURVE",
"167 389 CURVE SMOOTH",
"92 332 OFFCURVE",
"54 253 OFFCURVE",
"54 189 CURVE SMOOTH",
"54 133 OFFCURVE",
"82 87 OFFCURVE",
"138 74 CURVE SMOOTH",
"143 73 OFFCURVE",
"149 71 OFFCURVE",
"154 71 CURVE",
"136 21 OFFCURVE",
"121 -21 OFFCURVE",
"112 -49 CURVE"
);
},
{
closed = 1;
nodes = (
"165 100 LINE",
"162 101 LINE SMOOTH",
"125 112 OFFCURVE",
"108 145 OFFCURVE",
"108 186 CURVE SMOOTH",
"108 247 OFFCURVE",
"145 326 OFFCURVE",
"204 378 CURVE SMOOTH",
"225 396 OFFCURVE",
"247 409 OFFCURVE",
"271 418 CURVE SMOOTH",
"277 420 OFFCURVE",
"284 422 OFFCURVE",
"292 424 CURVE",
"255 334 OFFCURVE",
"204 205 OFFCURVE",
"165 100 CURVE"
);
}
);
width = 375;
}
);
note = cent;
unicode = 00A2;
},
{
glyphname = sterling;
lastChange = "2021-04-30 03:09:52 +0000";
layers = (
{
hints = (
{
horizontal = 1;
place = "{-34, 45}";
type = Stem;
},
{
horizontal = 1;
place = "{235, 32}";
type = Stem;
},
{
horizontal = 1;
place = "{535, 12}";
type = Stem;
},
{
place = "{576, 41}";
type = Stem;
}
);
layerId = "A626400C-4409-4FF6-B7A4-72C4E5A5721C";
paths = (
{
closed = 1;
nodes = (
"467 -34 LINE",
"518 -35 OFFCURVE",
"546 -19 OFFCURVE",
"546 11 CURVE SMOOTH",
"546 16 OFFCURVE",
"546 21 OFFCURVE",
"544 27 CURVE SMOOTH",
"539 46 OFFCURVE",
"506 94 OFFCURVE",
"488 103 CURVE",
"484 106 OFFCURVE",
"480 102 OFFCURVE",
"480 99 CURVE SMOOTH",
"480 97 OFFCURVE",
"480 96 OFFCURVE",
"482 95 CURVE SMOOTH",
"498 86 OFFCURVE",
"507 73 OFFCURVE",
"507 58 CURVE SMOOTH",
"507 48 OFFCURVE",
"502 36 OFFCURVE",
"493 24 CURVE SMOOTH",
"483 12 OFFCURVE",
"446 9 OFFCURVE",
"402 9 CURVE SMOOTH",
"366 9 OFFCURVE",
"325 11 OFFCURVE",
"288 12 CURVE SMOOTH",
"223 14 OFFCURVE",
"89 18 OFFCURVE",
"89 18 CURVE",
"109 24 OFFCURVE",
"143 47 OFFCURVE",
"186 114 CURVE SMOOTH",
"268 240 LINE",
"276 240 LINE SMOOTH",
"311 240 OFFCURVE",
"377 237 OFFCURVE",
"399 235 CURVE SMOOTH",
"409 235 OFFCURVE",
"435 267 OFFCURVE",
"430 267 CURVE SMOOTH",
"405 266 OFFCURVE",
"331 264 OFFCURVE",
"283 264 CURVE",
"414 468 LINE SMOOTH",
"446 517 OFFCURVE",
"487 535 OFFCURVE",
"523 535 CURVE SMOOTH",
"562 535 OFFCURVE",
"576 506 OFFCURVE",
"576 473 CURVE SMOOTH",
"576 446 OFFCURVE",
"567 417 OFFCURVE",
"553 398 CURVE SMOOTH",
"549 392 OFFCURVE",
"551 389 OFFCURVE",
"555 389 CURVE SMOOTH",
"558 389 OFFCURVE",
"563 391 OFFCURVE",
"565 396 CURVE SMOOTH",
"579 429 OFFCURVE",
"608 449 OFFCURVE",
"614 470 CURVE SMOOTH",
"616 476 OFFCURVE",
"617 482 OFFCURVE",
"617 487 CURVE SMOOTH",
"617 532 OFFCURVE",
"553 547 OFFCURVE",
"506 547 CURVE SMOOTH",
"386 547 OFFCURVE",
"328 447 OFFCURVE",
"280 351 CURVE SMOOTH",
"236 265 LINE",
"206 265 OFFCURVE",
"174 266 OFFCURVE",
"161 268 CURVE SMOOTH",
"151 270 OFFCURVE",
"125 236 OFFCURVE",
"130 237 CURVE SMOOTH",
"156 239 OFFCURVE",
"191 240 OFFCURVE",
"224 240 CURVE",
"161 113 LINE SMOOTH",
"139 69 OFFCURVE",
"79 8 OFFCURVE",
"20 7 CURVE SMOOTH",
"5 6 OFFCURVE",
"0 -6 OFFCURVE",
"0 -15 CURVE SMOOTH",
"0 -19 OFFCURVE",
"1 -23 OFFCURVE",
"3 -23 CURVE SMOOTH",
"4 -23 OFFCURVE",
"4 -22 OFFCURVE",
"5 -22 CURVE",
"21 -9 OFFCURVE",
"54 2 OFFCURVE",
"84 0 CURVE SMOOTH",
"199 -9 OFFCURVE",
"347 -30 OFFCURVE",
"467 -34 CURVE"
);
}
);
width = 621;
}
);
note = sterling;
unicode = 00A3;
},
